{
.appVersion = "851";
DisplayStrings = (
a,
",",
/Eng,
Q,
R,
W,
"QauegnoHOksz\012",

glyphs = (
{
glyphname = A;
lastChange = "2016-06-07 16:15:49 +0000";
layers = (
{
anchors = (
{
name = bottom;
position = "{678, 0}";
},
{
name = hook;
position = "{796, 772}";
},
{
name = ogonek;
position = "{1159, 0}";
},
{
name = top;
position = "{677, 686}";
}
);
layerId = "B29C398E-974A-40D0-A0A0-00935056D4B4";
paths = (
{
closed = 1;
nodes = (
"237 18 LINE",
"679 662 LINE",
"674 662 LINE",
"1117 18 LINE",
"1155 18 LINE",
"701 673 LINE SMOOTH",
"651 673 LINE",
"198 18 LINE"
);
},
{
closed = 1;
nodes = (
"441 0 LINE",
"441 31 LINE",
"-7 31 LINE",
"-7 0 LINE"
);
},
{
closed = 1;
nodes = (
"965 263 LINE",
"943 293 LINE",
"407 293 LINE",
"383 263 LINE"
);
},
{
closed = 1;
nodes = (
"1359 0 LINE",
"1359 31 LINE",
"912 31 LINE",
"912 0 LINE"
);
},
{
closed = 1;
nodes = (
"924 656 LINE",
"924 686 LINE",
"428 686 LINE",
"428 656 LINE"
);
}
);
width = 1352;
},
{
anchors = (
{
name = bottom;
position = "{435, 0}";
},
{
name = hook;
position = "{535, 766}";
},
{
name = ogonek;
position = "{770, 18}";
},
{
name = top;
position = "{436, 686}";
}
);
layerId = "543F9737-16F7-428D-9F96-2EBD9FC8D3B6";
paths = (
{
closed = 1;
nodes = (
"158 18 LINE",
"431 662 LINE",
"440 662 LINE",
"713 18 LINE",
"750 18 LINE",
"462 673 LINE SMOOTH",
"409 673 LINE",
"125 18 LINE"
);
},
{
closed = 1;
nodes = (
"296 0 LINE",
"296 31 LINE",
"-7 31 LINE",
"-7 0 LINE"
);
},
{
closed = 1;
nodes = (
"634 262 LINE",
"612 293 LINE",
"260 293 LINE",
"237 262 LINE"
);
},
{
closed = 1;
nodes = (
"880 0 LINE",
"880 31 LINE",
"580 31 LINE",
"580 0 LINE"
);
},
{
closed = 1;
nodes = (
"612 656 LINE",
"612 686 LINE",
"260 686 LINE",
"260 656 LINE"
);
}
);
width = 873;
},
{
anchors = (
{
name = bottom;
position = "{415, 0}";
},
{
name = hook;
position = "{506, 843}";
},
{
name = ogonek;
position = "{702, 0}";
},
{
name = top;
position = "{411, 686}";
}
);
layerId = "EB38A4D2-CD30-49BA-8E45-1F04A566FFE8";
paths = (
{
closed = 1;
nodes = (
"204 18 LINE",
"431 625 LINE",
"384 625 LINE",
"612 18 LINE",
"783 18 LINE",
"526 622 LINE SMOOTH",
"304 622 LINE",
"48 18 LINE"
);
},
{
closed = 1;
nodes = (
"356 0 LINE",
"356 127 LINE",
"13 127 LINE",
"13 0 LINE"
);
},
{
closed = 1;
nodes = (
"582 227 LINE",
"560 339 LINE",
"262 339 LINE",
"238 227 LINE"
);
},
{
closed = 1;
nodes = (
"820 0 LINE",
"820 127 LINE",
"470 127 LINE",
"470 0 LINE"
);
},
{
closed = 1;
nodes = (
"622 560 LINE",
"622 686 LINE",
"207 686 LINE",
"207 560 LINE"
);
}
);
width = 833;
},
{
anchors = (
{
name = bottom;
position = "{667, 0}";
},
{
name = hook;
position = "{775, 863}";
},
{
name = ogonek;
position = "{1145, 0}";
},
{
name = top;
position = "{662, 686}";
}
);
layerId = "816E4B99-7363-45E2-A2DF-0C5A75075B59";
paths = (
{
closed = 1;
nodes = (
"283 18 LINE",
"702 603 LINE",
"620 603 LINE",
"1036 18 LINE",
"1246 18 LINE",
"789 596 LINE SMOOTH",
"532 596 LINE",
"74 18 LINE"
);
},
{
closed = 1;
nodes = (
"495 0 LINE",
"495 144 LINE",
"-10 144 LINE",
"-10 0 LINE"
);
},
{
closed = 1;
nodes = (
"918 223 LINE",
"894 350 LINE",
"421 350 LINE",
"397 223 LINE"
);
},
{
closed = 1;
nodes = (
"1331 0 LINE",
"1331 144 LINE",
"827 144 LINE",
"827 0 LINE"
);
},
{
closed = 1;
nodes = (
"950 543 LINE",
"950 686 LINE",
"369 686 LINE",
"369 543 LINE"
);
}
);
width = 1320;
}
);
leftKerningGroup = A;
rightKerningGroup = A;
unicode = 0041;
},
{
glyphname = A.alt;
lastChange = "2016-06-09 21:01:26 +0000";
layers = (
{
anchors = (
{
name = bottom;
position = "{678, 0}";
},
{
name = hook;
position = "{796, 772}";
},
{
name = ogonek;
position = "{1160, 0}";
},
{
name = top;
position = "{680, 676}";
}
);
background = {
paths = (
{
closed = 1;
nodes = (
"176 0 LINE",
"496 458 LINE",
"821 0 LINE",
"833 24 LINE",
"496 496 LINE",
"164 24 LINE"
);
},
{
closed = 1;
nodes = (
"689 199 LINE",
"301 199 LINE",
"284 176 LINE",
"706 176 LINE"
);
},
{
closed = 1;
nodes = (
"329 -1 LINE",
"329 24 LINE",
"0 24 LINE",
"0 -1 LINE"
);
},
{
closed = 1;
nodes = (
"668 24 LINE",
"668 -1 LINE",
"992 -1 LINE",
"994 24 LINE"
);
}
);
};
layerId = "B29C398E-974A-40D0-A0A0-00935056D4B4";
paths = (
{
closed = 1;
nodes = (
"675 700 LINE",
"205 18 LINE",
"243 18 LINE",
"688 662 LINE",
"672 662 LINE",
"1115 18 LINE",
"1154 18 LINE",
"684 700 LINE"
);
},
{
closed = 1;
nodes = (
"1357 0 LINE",
"1357 31 LINE",
"912 31 LINE",
"912 0 LINE"
);
},
{
closed = 1;
nodes = (
"444 0 LINE",
"444 31 LINE",
"0 31 LINE",
"0 0 LINE"
);
},
{
closed = 1;
nodes = (
"952 272 LINE",
"408 272 LINE",
"383 242 LINE",
"971 242 LINE"
);
}
);
width = 1357;
},
{
anchors = (
{
name = bottom;
position = "{450, 0}";
},
{
name = hook;
position = "{560, 785}";
},
{
name = ogonek;
position = "{770, 18}";
},
{
name = top;
position = "{444, 701}";
}
);
layerId = "543F9737-16F7-428D-9F96-2EBD9FC8D3B6";
paths = (
{
closed = 1;
nodes = (
"440 700 LINE",
"132 18 LINE",
"165 18 LINE",
"450 655 LINE",
"437 655 LINE",
"722 18 LINE",
"758 18 LINE",
"448 700 LINE"
);
},
{
closed = 1;
nodes = (
"889 0 LINE",
"889 31 LINE",
"562 31 LINE",
"562 0 LINE"
);
},
{
closed = 1;
nodes = (
"326 0 LINE",
"326 31 LINE",
"0 31 LINE",
"0 0 LINE"
);
},
{
closed = 1;
nodes = (
"615 271 LINE",
"270 271 LINE",
"246 240 LINE",
"638 240 LINE"
);
}
);
width = 889;
},
{
anchors = (
{
name = bottom;
position = "{443, 0}";
},
{
name = hook;
position = "{534, 843}";
},
{
name = ogonek;
position = "{764, 0}";
},
{
name = top;
position = "{439, 700}";
}
);
layerId = "EB38A4D2-CD30-49BA-8E45-1F04A566FFE8";
paths = (
{
closed = 1;
nodes = (
"401 700 LINE",
"38 18 LINE",
"210 18 LINE",
"477 575 LINE",
"401 575 LINE",
"668 18 LINE",
"849 18 LINE",
"487 700 LINE"
);
},
{
closed = 1;
nodes = (
"872 0 LINE",
"872 127 LINE",
"534 127 LINE",
"534 0 LINE"
);
},
{
closed = 1;
nodes = (
"351 0 LINE",
"351 127 LINE",
"13 127 LINE",
"13 0 LINE"
);
},
{
closed = 1;
nodes = (
"587 328 LINE",
"294 328 LINE",
"271 212 LINE",
"609 212 LINE"
);
}
);
width = 885;
},
{
anchors = (
{
name = bottom;
position = "{676, 0}";
},
{
name = hook;
position = "{775, 910}";
},
{
name = ogonek;
position = "{1203, 0}";
},
{
name = top;
position = "{673, 716}";
}
);
layerId = "816E4B99-7363-45E2-A2DF-0C5A75075B59";
paths = (
{
closed = 1;
nodes = (
"627 700 LINE",
"90 18 LINE",
"292 18 LINE",
"716 570 LINE",
"624 570 LINE",
"1048 18 LINE",
"1258 18 LINE",
"726 700 LINE"
);
},
{
closed = 1;
nodes = (
"1357 0 LINE",
"1357 144 LINE",
"875 144 LINE",
"875 0 LINE"
);
},
{
closed = 1;
nodes = (
"470 0 LINE",
"470 144 LINE",
"-12 144 LINE",
"-12 0 LINE"
);
},
{
closed = 1;
nodes = (
"915 337 LINE",
"434 337 LINE",
"409 208 LINE",
"934 208 LINE"
);
}
);
width = 1345;
}
);
leftKerningGroup = A;
rightKerningGroup = A;
},
{
glyphname = AE;
lastChange = "2016-06-07 16:15:49 +0000";
layers = (
{
anchors = (
{
name = bottom;
position = "{1032, 0}";
},
{
name = ogonek;
position = "{1702, 0}";
},
{
name = top;
position = "{1034, 686}";
}
);
background = {
paths = (
{
closed = 1;
nodes = (
"1351 209 LINE",
"1351 524 LINE",
"1318 524 LINE",
"1318 382 LINE",
"972 382 LINE",
"972 351 LINE",
"1318 351 LINE",
"1318 209 LINE"
);
}
);
};
layerId = "B29C398E-974A-40D0-A0A0-00935056D4B4";
paths = (
{
closed = 1;
nodes = (
"244 18 LINE",
"823 662 LINE",
"810 662 LINE",
"1126 18 LINE",
"1163 18 LINE",
"839 673 LINE SMOOTH",
"788 673 LINE",
"200 18 LINE"
);
},
{
closed = 1;
nodes = (
"461 0 LINE",
"461 31 LINE",
"0 31 LINE",
"0 0 LINE"
);
},
{
closed = 1;
nodes = (
"1015 256 LINE",
"1015 286 LINE",
"474 286 LINE",
"442 256 LINE"
);
},
{
closed = 1;
nodes = (
"1702 0 LINE",
"1702 242 LINE",
"1670 242 LINE",
"1670 31 LINE",
"889 31 LINE",
"889 0 LINE"
);
},
{
closed = 1;
nodes = (
"1702 444 LINE",
"1702 686 LINE",
"546 686 LINE",
"546 656 LINE",
"1669 656 LINE",
"1669 444 LINE"
);
},
{
closed = 1;
nodes = (
"1317 359 LINE",
"986 359 LINE",
"986 328 LINE",
"1317 328 LINE",
"1317 186 LINE",
"1350 186 LINE",
"1350 501 LINE",
"1317 501 LINE"
);
}
);
width = 1847;
},
{
anchors = (
{
name = bottom;
position = "{675, 0}";
},
{
name = ogonek;
position = "{1162, 0}";
},
{
name = top;
position = "{678, 686}";
}
);
background = {
paths = (
{
closed = 1;
nodes = (
"956 235 LINE",
"956 484 LINE",
"923 484 LINE",
"923 375 LINE",
"671 375 LINE",
"671 344 LINE",
"923 344 LINE",
"923 235 LINE"
);
}
);
};
layerId = "543F9737-16F7-428D-9F96-2EBD9FC8D3B6";
paths = (
{
closed = 1;
nodes = (
"165 18 LINE",
"573 661 LINE",
"573 661 LINE",
"746 18 LINE",
"783 18 LINE",
"601 673 LINE SMOOTH",
"546 673 LINE",
"130 18 LINE"
);
},
{
closed = 1;
nodes = (
"303 0 LINE",
"303 31 LINE",
"0 31 LINE",
"0 0 LINE"
);
},
{
closed = 1;
nodes = (
"693 262 LINE",
"671 292 LINE",
"319 292 LINE",
"296 262 LINE"
);
},
{
closed = 1;
nodes = (
"1162 0 LINE",
"1162 179 LINE",
"1130 179 LINE",
"1130 31 LINE",
"613 31 LINE",
"613 0 LINE"
);
},
{
closed = 1;
nodes = (
"1162 507 LINE",
"1162 686 LINE",
"398 686 LINE",
"398 656 LINE",
"1129 656 LINE",
"1129 507 LINE"
);
},
{
closed = 1;
nodes = (
"923 359 LINE",
"678 359 LINE",
"678 328 LINE",
"923 328 LINE",
"923 219 LINE",
"956 219 LINE",
"956 468 LINE",
"923 468 LINE"
);
}
);
width = 1248;
},
{
anchors = (
{
name = bottom;
position = "{614, 0}";
},
{
name = ogonek;
position = "{1129, 0}";
},
{
name = top;
position = "{615, 686}";
}
);
background = {
paths = (
{
closed = 1;
nodes = (
"905 199 LINE",
"905 471 LINE",
"787 471 LINE",
"787 395 LINE",
"580 395 LINE",
"580 276 LINE",
"787 276 LINE",
"787 199 LINE"
);
}
);
};
layerId = "EB38A4D2-CD30-49BA-8E45-1F04A566FFE8";
paths = (
{
closed = 1;
nodes = (
"173 18 LINE",
"521 612 LINE",
"460 612 LINE",
"609 18 LINE",
"772 18 LINE",
"614 608 LINE SMOOTH",
"375 608 LINE",
"8 18 LINE"
);
},
{
closed = 1;
nodes = (
"321 0 LINE",
"321 127 LINE",
"1 127 LINE",
"1 0 LINE"
);
},
{
closed = 1;
nodes = (
"656 230 LINE",
"634 342 LINE",
"273 342 LINE",
"250 230 LINE"
);
},
{
closed = 1;
nodes = (
"1129 0 LINE",
"1129 255 LINE",
"986 255 LINE",
"986 127 LINE",
"463 127 LINE",
"463 0 LINE"
);
},
{
closed = 1;
nodes = (
"1129 437 LINE",
"1129 686 LINE",
"277 686 LINE",
"277 560 LINE",
"986 560 LINE",
"986 437 LINE"
);
},
{
closed = 1;
nodes = (
"787 400 LINE",
"581 400 LINE",
"581 286 LINE",
"787 286 LINE",
"787 207 LINE",
"906 207 LINE",
"906 479 LINE",
"787 479 LINE"
);
}
);
width = 1195;
},
{
anchors = (
{
name = bottom;
position = "{980, 0}";
},
{
name = ogonek;
position = "{1574, 0}";
},
{
name = top;
position = "{981, 686}";
}
);
layerId = "816E4B99-7363-45E2-A2DF-0C5A75075B59";
paths = (
{
closed = 1;
nodes = (
"247 18 LINE",
"762 604 LINE",
"662 604 LINE",
"953 18 LINE",
"1137 18 LINE",
"842 596 LINE SMOOTH",
"573 596 LINE",
"35 18 LINE"
);
},
{
closed = 1;
nodes = (
"468 0 LINE",
"468 144 LINE",
"-12 144 LINE",
"-12 0 LINE"
);
},
{
closed = 1;
nodes = (
"959 216 LINE",
"959 345 LINE",
"407 345 LINE",
"375 216 LINE"
);
},
{
closed = 1;
nodes = (
"1650 0 LINE",
"1650 315 LINE",
"1487 315 LINE",
"1487 144 LINE",
"699 144 LINE",
"699 0 LINE"
);
},
{
closed = 1;
nodes = (
"1650 378 LINE",
"1650 686 LINE",
"388 686 LINE",
"388 543 LINE",
"1487 543 LINE",
"1487 378 LINE"
);
},
{
closed = 1;
nodes = (
"1165 411 LINE",
"884 411 LINE",
"884 277 LINE",
"1165 277 LINE",
"1165 206 LINE",
"1309 206 LINE",
"1309 482 LINE",
"1165 482 LINE"
);
}
);
width = 1754;
}
);
leftKerningGroup = AE;
rightKerningGroup = E;
rightMetricsKey = "=E";
unicode = 00C6;
},
{
glyphname = B;
lastChange = "2016-06-09 17:58:50 +0000";
layers = (
{
anchors = (
{
name = bottom;
position = "{609, 0}";
},
{
name = top;
position = "{609, 686}";
}
);
background = {
paths = (
{
closed = 1;
nodes = (
"348 19 LINE",
"348 631 LINE",
"315 631 LINE",
"315 19 LINE"
);
},
{
closed = 1;
nodes = (
"877 326 LINE",
"1024 326 OFFCURVE",
"1093 398 OFFCURVE",
"1093 482 CURVE SMOOTH",
"1093 585 OFFCURVE",
"1015 647 OFFCURVE",
"879 647 CURVE SMOOTH",
"74 647 LINE",
"74 616 LINE",
"879 616 LINE SMOOTH",
"997 616 OFFCURVE",
"1060 563 OFFCURVE",
"1060 482 CURVE SMOOTH",
"1060 403 OFFCURVE",
"985 348 OFFCURVE",
"866 348 CURVE SMOOTH",
"336 348 LINE",
"336 317 LINE",
"866 316 LINE SMOOTH",
"998 316 OFFCURVE",
"1104 266 OFFCURVE",
"1104 169 CURVE SMOOTH",
"1104 75 OFFCURVE",
"1027 31 OFFCURVE",
"891 31 CURVE SMOOTH",
"74 31 LINE",
"74 0 LINE",
"889 0 LINE SMOOTH",
"1063 0 OFFCURVE",
"1137 64 OFFCURVE",
"1137 169 CURVE SMOOTH",
"1137 271 OFFCURVE",
"1048 337 OFFCURVE",
"877 337 CURVE"
);
}
);
};
layerId = "B29C398E-974A-40D0-A0A0-00935056D4B4";
paths = (
{
closed = 1;
nodes = (
"889 0 LINE SMOOTH",
"1043 0 OFFCURVE",
"1137 59 OFFCURVE",
"1137 179 CURVE SMOOTH",
"1137 305 OFFCURVE",
"1031 356 OFFCURVE",
"877 356 CURVE",
"877 345 LINE",
"1023 345 OFFCURVE",
"1093 416 OFFCURVE",
"1093 516 CURVE SMOOTH",
"1093 619 OFFCURVE",
"1014 686 OFFCURVE",
"880 686 CURVE SMOOTH",
"74 686 LINE",
"74 655 LINE",
"877 655 LINE SMOOTH",
"981 655 OFFCURVE",
"1060 614 OFFCURVE",
"1060 516 CURVE SMOOTH",
"1060 417 OFFCURVE",
"983 368 OFFCURVE",
"872 368 CURVE SMOOTH",
"336 368 LINE",
"336 336 LINE",
"866 335 LINE SMOOTH",
"997 335 OFFCURVE",
"1104 293 OFFCURVE",
"1104 180 CURVE SMOOTH",
"1104 73 OFFCURVE",
"1015 31 OFFCURVE",
"880 31 CURVE SMOOTH",
"74 31 LINE",
"74 0 LINE"
);
},
{
closed = 1;
nodes = (
"348 19 LINE",
"348 671 LINE",
"315 671 LINE",
"315 19 LINE"
);
}
);
width = 1269;
},
{
anchors = (
{
name = bottom;
position = "{372, 0}";
},
{
name = top;
position = "{372, 686}";
}
);
background = {
paths = (
{
closed = 1;
nodes = (
"724 319 LINE",
"724 350 LINE",
"200 350 LINE",
"200 319 LINE"
);
},
{
closed = 1;
nodes = (
"344 0 LINE",
"344 31 LINE",
"26 31 LINE",
"26 0 LINE"
);
},
{
closed = 1;
nodes = (
"207 18 LINE",
"207 672 LINE",
"176 672 LINE",
"176 18 LINE"
);
},
{
closed = 1;
nodes = (
"344 656 LINE",
"344 686 LINE",
"26 686 LINE",
"26 656 LINE"
);
},
{
closed = 1;
nodes = (
"897 0 LINE",
"897 31 LINE",
"579 31 LINE",
"579 0 LINE"
);
},
{
closed = 1;
nodes = (
"748 18 LINE",
"748 672 LINE",
"715 672 LINE",
"715 18 LINE"
);
},
{
closed = 1;
nodes = (
"897 656 LINE",
"897 686 LINE",
"579 686 LINE",
"579 656 LINE"
);
}
);
};
layerId = "543F9737-16F7-428D-9F96-2EBD9FC8D3B6";
paths = (
{
closed = 1;
nodes = (
"433 0 LINE SMOOTH",
"587 0 OFFCURVE",
"682 59 OFFCURVE",
"682 179 CURVE SMOOTH",
"682 305 OFFCURVE",
"575 356 OFFCURVE",
"421 356 CURVE",
"421 345 LINE",
"568 345 OFFCURVE",
"638 416 OFFCURVE",
"638 516 CURVE SMOOTH",
"638 619 OFFCURVE",
"559 686 OFFCURVE",
"425 686 CURVE SMOOTH",
"40 686 LINE",
"40 655 LINE",
"421 655 LINE SMOOTH",
"526 655 OFFCURVE",
"605 614 OFFCURVE",
"605 516 CURVE SMOOTH",
"605 417 OFFCURVE",
"528 367 OFFCURVE",
"417 367 CURVE SMOOTH",
"210 367 LINE",
"210 337 LINE",
"410 336 LINE SMOOTH",
"541 334 OFFCURVE",
"649 293 OFFCURVE",
"649 180 CURVE SMOOTH",
"649 73 OFFCURVE",
"560 31 OFFCURVE",
"425 31 CURVE SMOOTH",
"40 31 LINE",
"40 0 LINE"
);
},
{
closed = 1;
nodes = (
"222 19 LINE",
"222 671 LINE",
"189 671 LINE",
"189 19 LINE"
);
}
);
width = 755;
},
{
anchors = (
{
name = bottom;
position = "{359, 0}";
},
{
name = top;
position = "{359, 686}";
}
);
layerId = "EB38A4D2-CD30-49BA-8E45-1F04A566FFE8";
paths = (
{
closed = 1;
nodes = (
"451 0 LINE SMOOTH",
"631 0 OFFCURVE",
"724 73 OFFCURVE",
"724 194 CURVE SMOOTH",
"724 355 OFFCURVE",
"554 378 OFFCURVE",
"435 378 CURVE",
"436 317 LINE",
"524 317 OFFCURVE",
"669 365 OFFCURVE",
"669 501 CURVE SMOOTH",
"669 607 OFFCURVE",
"590 686 OFFCURVE",
"429 686 CURVE SMOOTH",
"33 686 LINE",
"33 559 LINE",
"420 559 LINE SMOOTH",
"459 559 OFFCURVE",
"507 542 OFFCURVE",
"507 480 CURVE SMOOTH",
"507 418 OFFCURVE",
"461 398 OFFCURVE",
"390 398 CURVE SMOOTH",
"252 398 LINE",
"252 284 LINE",
"451 284 LINE SMOOTH",
"527 284 OFFCURVE",
"562 260 OFFCURVE",
"562 207 CURVE SMOOTH",
"562 150 OFFCURVE",
"516 127 OFFCURVE",
"440 127 CURVE SMOOTH",
"33 127 LINE",
"33 0 LINE"
);
},
{
closed = 1;
nodes = (
"304 70 LINE",
"304 613 LINE",
"145 613 LINE",
"145 70 LINE"
);
}
);
width = 757;
},
{
anchors = (
{
name = bottom;
position = "{588, 0}";
},
{
name = top;
position = "{588, 686}";
}
);
layerId = "816E4B99-7363-45E2-A2DF-0C5A75075B59";
paths = (
{
closed = 1;
nodes = (
"927 0 LINE SMOOTH",
"1113 0 OFFCURVE",
"1205 82 OFFCURVE",
"1205 193 CURVE SMOOTH",
"1205 312 OFFCURVE",
"1099 375 OFFCURVE",
"910 375 CURVE",
"911 335 LINE",
"1063 335 OFFCURVE",
"1148 406 OFFCURVE",
"1148 498 CURVE SMOOTH",
"1148 605 OFFCURVE",
"1069 686 OFFCURVE",
"903 686 CURVE SMOOTH",
"60 686 LINE",
"60 542 LINE",
"875 542 LINE SMOOTH",
"931 542 OFFCURVE",
"963 517 OFFCURVE",
"963 473 CURVE SMOOTH",
"963 434 OFFCURVE",
"926 409 OFFCURVE",
"875 409 CURVE SMOOTH",
"379 409 LINE",
"379 281 LINE",
"916 281 LINE SMOOTH",
"982 281 OFFCURVE",
"1019 256 OFFCURVE",
"1019 214 CURVE SMOOTH",
"1019 172 OFFCURVE",
"982 144 OFFCURVE",
"916 144 CURVE SMOOTH",
"60 144 LINE",
"60 0 LINE"
);
},
{
closed = 1;
nodes = (
"442 79 LINE",
"442 602 LINE",
"257 602 LINE",
"257 79 LINE"
);
}
);
width = 1268;
}
);
leftKerningGroup = H;
leftMetricsKey = "=H";
rightKerningGroup = B;
unicode = 0042;
},
{
glyphname = C;
lastChange = "2016-06-07 16:15:49 +0000";
layers = (
{
anchors = (
{
name = bottom;
position = "{569, -14}";
},
{
name = top;
position = "{580, 700}";
}
);
background = {
paths = (
{
closed = 1;
nodes = (
"1058 229 LINE",
"1009 108 OFFCURVE",
"851 -26 OFFCURVE",
"569 -26 CURVE",
"316 -26 OFFCURVE",
"99 105 OFFCURVE",
"99 329 CURVE",
"99 553 OFFCURVE",
"325 682 OFFCURVE",
"580 682 CURVE",
"805 682 OFFCURVE",
"956 587 OFFCURVE",
"1048 460 CURVE",
"1022 460 LINE",
"1022 648 LINE",
"1052 648 LINE",
"1052 410 LINE",
"917 590 OFFCURVE",
"747 652 OFFCURVE",
"580 652 CURVE",
"336 652 OFFCURVE",
"132 529 OFFCURVE",
"132 329 CURVE",
"132 128 OFFCURVE",
"329 4 OFFCURVE",
"569 4 CURVE",
"831 4 OFFCURVE",
"988 136 OFFCURVE",
"1029 240 CURVE"
);
}
);
};
layerId = "B29C398E-974A-40D0-A0A0-00935056D4B4";
paths = (
{
closed = 1;
nodes = (
"851 -14 OFFCURVE",
"992 112 OFFCURVE",
"1055 222 CURVE",
"1028 239 LINE",
"975 141 OFFCURVE",
"831 17 OFFCURVE",
"569 17 CURVE",
"329 17 OFFCURVE",
"132 140 OFFCURVE",
"132 343 CURVE",
"132 547 OFFCURVE",
"336 669 OFFCURVE",
"580 669 CURVE SMOOTH",
"761 669 OFFCURVE",
"916 608 OFFCURVE",
"1035 436 CURVE",
"1051 438 LINE",
"1051 686 LINE",
"1020 686 LINE",
"1020 476 LINE",
"1035 476 LINE",
"944 608 OFFCURVE",
"792 700 OFFCURVE",
"580 700 CURVE SMOOTH",
"325 700 OFFCURVE",
"99 570 OFFCURVE",
"99 343 CURVE",
"99 117 OFFCURVE",
"316 -14 OFFCURVE",
"569 -14 CURVE"
);
}
);
width = 1174;
},
{
anchors = (
{
name = bottom;
position = "{402, -14}";
},
{
name = top;
position = "{403, 700}";
}
);
background = {
paths = (
{
closed = 1;
nodes = (
"590 -13 OFFCURVE",
"741 118 OFFCURVE",
"741 339 CURVE",
"741 560 OFFCURVE",
"590 691 OFFCURVE",
"408 691 CURVE",
"224 691 OFFCURVE",
"74 560 OFFCURVE",
"74 339 CURVE",
"74 118 OFFCURVE",
"224 -13 OFFCURVE",
"408 -13 CURVE"
);
},
{
closed = 1;
nodes = (
"238 19 OFFCURVE",
"106 141 OFFCURVE",
"106 339 CURVE",
"106 536 OFFCURVE",
"238 659 OFFCURVE",
"408 659 CURVE",
"576 659 OFFCURVE",
"711 536 OFFCURVE",
"711 339 CURVE",
"711 141 OFFCURVE",
"576 19 OFFCURVE",
"408 19 CURVE"
);
}
);
};
layerId = "543F9737-16F7-428D-9F96-2EBD9FC8D3B6";
paths = (
{
closed = 1;
nodes = (
"554 -14 OFFCURVE",
"637 65 OFFCURVE",
"682 127 CURVE",
"659 148 LINE",
"615 87 OFFCURVE",
"534 17 OFFCURVE",
"404 17 CURVE SMOOTH",
"237 17 OFFCURVE",
"106 146 OFFCURVE",
"106 343 CURVE SMOOTH",
"106 540 OFFCURVE",
"243 669 OFFCURVE",
"404 669 CURVE SMOOTH",
"539 669 OFFCURVE",
"619 600 OFFCURVE",
"671 482 CURVE",
"686 483 LINE",
"688 686 LINE",
"657 686 LINE",
"655 527 LINE",
"672 520 LINE",
"640 612 OFFCURVE",
"550 700 OFFCURVE",
"404 700 CURVE SMOOTH",
"232 700 OFFCURVE",
"73 563 OFFCURVE",
"73 343 CURVE SMOOTH",
"73 123 OFFCURVE",
"223 -14 OFFCURVE",
"404 -14 CURVE SMOOTH"
);
}
);
width = 754;
},
{
anchors = (
{
name = bottom;
position = "{408, -14}";
},
{
name = top;
position = "{388, 700}";
}
);
background = {
paths = (
{
closed = 1;
nodes = (
"524 -13 OFFCURVE",
"655 44 OFFCURVE",
"732 163 CURVE",
"628 249 LINE",
"573 171 OFFCURVE",
"502 119 OFFCURVE",
"408 119 CURVE SMOOTH",
"284 119 OFFCURVE",
"202 207 OFFCURVE",
"202 341 CURVE SMOOTH",
"202 482 OFFCURVE",
"298 574 OFFCURVE",
"415 574 CURVE SMOOTH",
"508 574 OFFCURVE",
"585 509 OFFCURVE",
"619 437 CURVE",
"726 442 LINE",
"726 686 LINE",
"581 686 LINE",
"581 548 LINE",
"653 527 LINE",
"601 634 OFFCURVE",
"508 700 OFFCURVE",
"372 700 CURVE SMOOTH",
"205 700 OFFCURVE",
"33 559 OFFCURVE",
"33 341 CURVE SMOOTH",
"33 131 OFFCURVE",
"204 -13 OFFCURVE",
"408 -13 CURVE SMOOTH"
);
}
);
};
layerId = "EB38A4D2-CD30-49BA-8E45-1F04A566FFE8";
paths = (
{
closed = 1;
nodes = (
"553 -13 OFFCURVE",
"661 55 OFFCURVE",
"732 163 CURVE",
"628 248 LINE",
"574 168 OFFCURVE",
"515 118 OFFCURVE",
"408 118 CURVE SMOOTH",
"293 118 OFFCURVE",
"202 217 OFFCURVE",
"202 343 CURVE SMOOTH",
"202 490 OFFCURVE",
"299 573 OFFCURVE",
"398 573 CURVE SMOOTH",
"507 573 OFFCURVE",
"572 509 OFFCURVE",
"606 437 CURVE",
"713 447 LINE",
"713 686 LINE",
"568 686 LINE",
"568 548 LINE",
"640 527 LINE",
"587 634 OFFCURVE",
"502 700 OFFCURVE",
"372 700 CURVE SMOOTH",
"189 700 OFFCURVE",
"33 554 OFFCURVE",
"33 341 CURVE SMOOTH",
"33 143 OFFCURVE",
"196 -13 OFFCURVE",
"408 -13 CURVE SMOOTH"
);
}
);
width = 762;
},
{
anchors = (
{
name = bottom;
position = "{614, -14}";
},
{
name = top;
position = "{573, 700}";
}
);
layerId = "816E4B99-7363-45E2-A2DF-0C5A75075B59";
paths = (
{
closed = 1;
nodes = (
"805 -13 OFFCURVE",
"985 56 OFFCURVE",
"1107 136 CURVE",
"1028 269 LINE",
"907 186 OFFCURVE",
"763 136 OFFCURVE",
"575 136 CURVE",
"396 136 OFFCURVE",
"248 216 OFFCURVE",
"248 343 CURVE",
"248 458 OFFCURVE",
"356 556 OFFCURVE",
"553 556 CURVE SMOOTH",
"733 556 OFFCURVE",
"875 500 OFFCURVE",
"975 414 CURVE",
"1098 438 LINE",
"1097 686 LINE",
"934 686 LINE",
"935 533 LINE",
"1014 515 LINE",
"898 635 OFFCURVE",
"735 700 OFFCURVE",
"553 700 CURVE SMOOTH",
"275 700 OFFCURVE",
"53 571 OFFCURVE",
"53 341 CURVE",
"53 113 OFFCURVE",
"281 -13 OFFCURVE",
"575 -13 CURVE"
);
}
);
width = 1162;
}
);
leftKerningGroup = O;
leftMetricsKey = "=O";
rightKerningGroup = C;
unicode = 0043;
},
{
glyphname = D;
lastChange = "2016-06-07 16:15:49 +0000";
layers = (
{
anchors = (
{
name = bottom;
position = "{634, 0}";
},
{
name = center;
position = "{634, 323}";
},
{
name = top;
position = "{634, 686}";
}
);
layerId = "B29C398E-974A-40D0-A0A0-00935056D4B4";
paths = (
{
closed = 1;
nodes = (
"719 0 LINE",
"990 0 OFFCURVE",
"1174 112 OFFCURVE",
"1174 343 CURVE",
"1174 574 OFFCURVE",
"990 686 OFFCURVE",
"719 686 CURVE",
"74 686 LINE",
"74 655 LINE",
"719 655 LINE",
"976 655 OFFCURVE",
"1141 552 OFFCURVE",
"1141 343 CURVE",
"1141 134 OFFCURVE",
"976 31 OFFCURVE",
"719 31 CURVE",
"74 31 LINE",
"74 0 LINE"
);
},
{
closed = 1;
nodes = (
"348 18 LINE",
"348 669 LINE",
"315 669 LINE",
"315 18 LINE"
);
}
);
width = 1273;
},
{
anchors = (
{
name = bottom;
position = "{374, 0}";
},
{
name = center;
position = "{374, 323}";
},
{
name = top;
position = "{374, 686}";
}
);
layerId = "543F9737-16F7-428D-9F96-2EBD9FC8D3B6";
paths = (
{
closed = 1;
nodes = (
"367 0 LINE",
"595 0 OFFCURVE",
"744 131 OFFCURVE",
"744 343 CURVE",
"744 556 OFFCURVE",
"595 686 OFFCURVE",
"367 686 CURVE",
"40 686 LINE",
"40 655 LINE",
"367 655 LINE",
"582 655 OFFCURVE",
"711 534 OFFCURVE",
"711 343 CURVE",
"711 153 OFFCURVE",
"582 31 OFFCURVE",
"367 31 CURVE",
"40 31 LINE",
"40 0 LINE"
);
},
{
closed = 1;
nodes = (
"222 18 LINE",
"222 669 LINE",
"189 669 LINE",
"189 18 LINE"
);
}
);
width = 817;
},
{
anchors = (
{
name = bottom;
position = "{396, 0}";
},
{
name = center;
position = "{396, 348}";
},
{
name = top;
position = "{396, 686}";
}
);
layerId = "EB38A4D2-CD30-49BA-8E45-1F04A566FFE8";
paths = (
{
closed = 1;
nodes = (
"376 0 LINE SMOOTH",
"567 0 OFFCURVE",
"784 97 OFFCURVE",
"784 343 CURVE SMOOTH",
"784 590 OFFCURVE",
"567 686 OFFCURVE",
"376 686 CURVE SMOOTH",
"33 686 LINE",
"33 559 LINE",
"358 559 LINE SMOOTH",
"461 559 OFFCURVE",
"615 534 OFFCURVE",
"615 343 CURVE SMOOTH",
"615 153 OFFCURVE",
"461 127 OFFCURVE",
"358 127 CURVE SMOOTH",
"33 127 LINE",
"33 0 LINE"
);
},
{
closed = 1;
nodes = (
"307 74 LINE",
"307 613 LINE",
"145 613 LINE",
"145 74 LINE"
);
}
);
width = 817;
},
{
anchors = (
{
name = bottom;
position = "{654, 0}";
},
{
name = center;
position = "{654, 353}";
},
{
name = top;
position = "{654, 686}";
}
);
layerId = "816E4B99-7363-45E2-A2DF-0C5A75075B59";
paths = (
{
closed = 1;
nodes = (
"763 0 LINE",
"989 0 OFFCURVE",
"1247 72 OFFCURVE",
"1247 343 CURVE",
"1247 614 OFFCURVE",
"989 686 OFFCURVE",
"763 686 CURVE",
"60 686 LINE",
"60 542 LINE",
"735 542 LINE",
"857 542 OFFCURVE",
"1053 551 OFFCURVE",
"1053 343 CURVE",
"1053 130 OFFCURVE",
"857 144 OFFCURVE",
"735 144 CURVE",
"60 144 LINE",
"60 0 LINE"
);
},
{
closed = 1;
nodes = (
"442 84 LINE",
"442 603 LINE",
"257 603 LINE",
"257 84 LINE"
);
}
);
width = 1300;
}
);
leftKerningGroup = H;
leftMetricsKey = "=H";
rightKerningGroup = O;
rightMetricsKey = "=O";
unicode = 0044;
},
{
glyphname = Eth;
lastChange = "2016-06-07 16:15:49 +0000";
layers = (
{
background = {
paths = (
{
closed = 1;
nodes = (
"719 0 LINE",
"990 0 OFFCURVE",
"1174 112 OFFCURVE",
"1174 343 CURVE",
"1174 574 OFFCURVE",
"990 686 OFFCURVE",
"719 686 CURVE",
"74 686 LINE",
"74 655 LINE",
"719 655 LINE",
"976 655 OFFCURVE",
"1141 552 OFFCURVE",
"1141 343 CURVE",
"1141 134 OFFCURVE",
"976 31 OFFCURVE",
"719 31 CURVE",
"74 31 LINE",
"74 0 LINE"
);
},
{
closed = 1;
nodes = (
"348 18 LINE",
"348 669 LINE",
"315 669 LINE",
"315 18 LINE"
);
},
{
closed = 1;
nodes = (
"79 355 LINE",
"79 325 LINE",
"801 325 LINE",
"801 355 LINE"
);
}
);
};
components = (
{
name = D;
},
{
name = strokeshortcomb;
transform = "{1.4, 0, 0, 1, 69, 4}";
}
);
layerId = "B29C398E-974A-40D0-A0A0-00935056D4B4";
width = 1273;
},
{
background = {
paths = (
{
closed = 1;
nodes = (
"367 0 LINE",
"595 0 OFFCURVE",
"744 131 OFFCURVE",
"744 343 CURVE",
"744 556 OFFCURVE",
"595 686 OFFCURVE",
"367 686 CURVE",
"40 686 LINE",
"40 655 LINE",
"367 655 LINE",
"582 655 OFFCURVE",
"711 534 OFFCURVE",
"711 343 CURVE",
"711 153 OFFCURVE",
"582 31 OFFCURVE",
"367 31 CURVE",
"40 31 LINE",
"40 0 LINE"
);
},
{
closed = 1;
nodes = (
"222 18 LINE",
"222 669 LINE",
"189 669 LINE",
"189 18 LINE"
);
},
{
closed = 1;
nodes = (
"50 355 LINE",
"50 325 LINE",
"495 325 LINE",
"495 355 LINE"
);
}
);
};
components = (
{
name = D;
},
{
name = strokeshortcomb;
transform = "{1.33, 0, 0, 1, 36, 4}";
}
);
layerId = "543F9737-16F7-428D-9F96-2EBD9FC8D3B6";
width = 816;
},
{
background = {
paths = (
{
closed = 1;
nodes = (
"376 0 LINE SMOOTH",
"567 0 OFFCURVE",
"784 97 OFFCURVE",
"784 343 CURVE SMOOTH",
"784 590 OFFCURVE",
"567 686 OFFCURVE",
"376 686 CURVE SMOOTH",
"33 686 LINE",
"33 559 LINE",
"358 559 LINE SMOOTH",
"461 559 OFFCURVE",
"615 534 OFFCURVE",
"615 343 CURVE SMOOTH",
"615 153 OFFCURVE",
"461 127 OFFCURVE",
"358 127 CURVE SMOOTH",
"33 127 LINE",
"33 0 LINE"
);
},
{
closed = 1;
nodes = (
"307 74 LINE",
"307 613 LINE",
"145 613 LINE",
"145 74 LINE"
);
},
{
closed = 1;
nodes = (
"44 407 LINE",
"44 278 LINE",
"480 278 LINE",
"480 407 LINE"
);
}
);
};
components = (
{
name = D;
},
{
name = strokeshortcomb;
transform = "{1.18, 0, 0, 1, 28, 77}";
}
);
layerId = "EB38A4D2-CD30-49BA-8E45-1F04A566FFE8";
width = 817;
},
{
components = (
{
name = D;
},
{
name = strokeshortcomb;
transform = "{1.27, 0, 0, 1, 56, 91}";
}
);
layerId = "816E4B99-7363-45E2-A2DF-0C5A75075B59";
width = 1300;
}
);
leftKerningGroup = H;
rightKerningGroup = O;
rightMetricsKey = "=D";
unicode = 00D0;
},
{
glyphname = E;
lastChange = "2016-06-09 21:00:24 +0000";
layers = (
{
anchors = (
{
name = bottom;
position = "{661, 0}";
},
{
name = ogonek;
position = "{1137, 0}";
},
{
name = top;
position = "{699, 686}";
}
);
background = {
paths = (
{
closed = 1;
nodes = (
"1176 9 LINE",
"1176 250 LINE",
"1142 250 LINE",
"1142 44 LINE",
"110 44 LINE",
"110 9 LINE"
);
},
{
closed = 1;
nodes = (
"384 33 LINE",
"384 633 LINE",
"350 633 LINE",
"350 33 LINE"
);
},
{
closed = 1;
nodes = (
"803 343 LINE",
"803 377 LINE",
"367 377 LINE",
"367 343 LINE"
);
},
{
closed = 1;
nodes = (
"820 190 LINE",
"820 515 LINE",
"785 515 LINE",
"785 190 LINE"
);
},
{
closed = 1;
nodes = (
"1144 613 LINE",
"1144 414 LINE",
"1179 414 LINE",
"1179 647 LINE",
"113 647 LINE",
"112 613 LINE"
);
}
);
};
guideLines = (
{
position = "{550, 405}";
}
);
layerId = "B29C398E-974A-40D0-A0A0-00935056D4B4";
paths = (
{
closed = 1;
nodes = (
"1137 0 LINE",
"1137 242 LINE",
"1105 242 LINE",
"1105 31 LINE",
"74 31 LINE",
"74 0 LINE"
);
},
{
closed = 1;
nodes = (
"348 18 LINE",
"348 669 LINE",
"315 669 LINE",
"315 18 LINE"
);
},
{
closed = 1;
nodes = (
"770 328 LINE",
"770 359 LINE",
"343 359 LINE",
"343 328 LINE"
);
},
{
closed = 1;
nodes = (
"787 186 LINE",
"787 501 LINE",
"754 501 LINE",
"754 186 LINE"
);
},
{
closed = 1;
nodes = (
"1137 444 LINE",
"1137 686 LINE",
"74 686 LINE",
"74 655 LINE",
"1104 655 LINE",
"1104 444 LINE"
);
}
);
width = 1282;
},
{
anchors = (
{
name = bottom;
position = "{405, 0}";
},
{
name = ogonek;
position = "{681, 0}";
},
{
name = top;
position = "{411, 686}";
}
);
background = {
paths = (
{
closed = 1;
nodes = (
"1051 0 LINE",
"1051 243 LINE",
"1029 243 LINE",
"1029 31 LINE",
"270 31 LINE",
"270 0 LINE"
);
},
{
closed = 1;
nodes = (
"780 341 LINE",
"780 371 LINE",
"466 371 LINE",
"466 341 LINE"
);
},
{
closed = 1;
nodes = (
"793 191 LINE",
"793 504 LINE",
"770 504 LINE",
"770 191 LINE"
);
},
{
closed = 1;
nodes = (
"1027 648 LINE",
"1027 440 LINE",
"1051 440 LINE",
"1051 679 LINE",
"270 679 LINE",
"270 648 LINE"
);
},
{
closed = 1;
nodes = (
"470 18 LINE",
"470 661 LINE",
"447 661 LINE",
"447 18 LINE"
);
}
);
};
layerId = "543F9737-16F7-428D-9F96-2EBD9FC8D3B6";
paths = (
{
closed = 1;
nodes = (
"682 0 LINE",
"682 179 LINE",
"649 179 LINE",
"649 31 LINE",
"40 31 LINE",
"40 0 LINE"
);
},
{
closed = 1;
nodes = (
"222 18 LINE",
"222 669 LINE",
"189 669 LINE",
"189 18 LINE"
);
},
{
closed = 1;
nodes = (
"460 328 LINE",
"460 359 LINE",
"218 359 LINE",
"218 328 LINE"
);
},
{
closed = 1;
nodes = (
"476 219 LINE",
"476 468 LINE",
"443 468 LINE",
"443 219 LINE"
);
},
{
closed = 1;
nodes = (
"682 507 LINE",
"682 686 LINE",
"40 686 LINE",
"40 655 LINE",
"649 655 LINE",
"649 507 LINE"
);
}
);
width = 768;
},
{
anchors = (
{
name = bottom;
position = "{435, 0}";
},
{
name = ogonek;
position = "{741, 0}";
},
{
name = top;
position = "{403, 686}";
}
);
layerId = "EB38A4D2-CD30-49BA-8E45-1F04A566FFE8";
paths = (
{
closed = 1;
nodes = (
"741 0 LINE",
"741 255 LINE",
"600 255 LINE",
"600 127 LINE",
"33 127 LINE",
"33 0 LINE"
);
},
{
closed = 1;
nodes = (
"303 70 LINE",
"303 605 LINE",
"144 605 LINE",
"144 70 LINE"
);
},
{
closed = 1;
nodes = (
"474 286 LINE",
"474 400 LINE",
"202 400 LINE",
"202 286 LINE"
);
},
{
closed = 1;
nodes = (
"527 207 LINE",
"527 479 LINE",
"408 479 LINE",
"408 207 LINE"
);
},
{
closed = 1;
nodes = (
"741 431 LINE",
"741 686 LINE",
"33 686 LINE",
"33 559 LINE",
"600 559 LINE",
"600 431 LINE"
);
}
);
width = 807;
},
{
anchors = (
{
name = bottom;
position = "{652, -2}";
},
{
name = ogonek;
position = "{1170, 0}";
},
{
name = top;
position = "{651, 686}";
}
);
layerId = "816E4B99-7363-45E2-A2DF-0C5A75075B59";
paths = (
{
closed = 1;
nodes = (
"1170 0 LINE",
"1170 283 LINE",
"1007 283 LINE",
"1007 144 LINE",
"60 144 LINE",
"60 0 LINE"
);
},
{
closed = 1;
nodes = (
"439 79 LINE",
"439 593 LINE",
"256 593 LINE",
"256 79 LINE"
);
},
{
closed = 1;
nodes = (
"765 285 LINE",
"765 403 LINE",
"319 403 LINE",
"319 285 LINE"
);
},
{
closed = 1;
nodes = (
"825 211 LINE",
"825 477 LINE",
"681 477 LINE",
"681 211 LINE"
);
},
{
closed = 1;
nodes = (
"1170 403 LINE",
"1170 686 LINE",
"60 686 LINE",
"60 542 LINE",
"1007 542 LINE",
"1007 403 LINE"
);
}
);
width = 1274;
}
);
leftKerningGroup = H;
leftMetricsKey = "=H";
rightKerningGroup = E;
unicode = 0045;
},
{
glyphname = F;
lastChange = "2016-06-09 18:06:01 +0000";
layers = (
{
anchors = (
{
name = bottom;
position = "{593, 0}";
},
{
name = top;
position = "{593, 686}";
}
);
layerId = "B29C398E-974A-40D0-A0A0-00935056D4B4";
paths = (
{
closed = 1;
nodes = (
"1071 444 LINE",
"1071 686 LINE",
"74 686 LINE",
"74 655 LINE",
"1039 655 LINE",
"1039 444 LINE"
);
},
{
closed = 1;
nodes = (
"601 0 LINE",
"601 31 LINE",
"74 31 LINE",
"74 0 LINE"
);
},
{
closed = 1;
nodes = (
"348 18 LINE",
"348 669 LINE",
"315 669 LINE",
"315 18 LINE"
);
},
{
closed = 1;
nodes = (
"730 317 LINE",
"730 348 LINE",
"343 348 LINE",
"343 317 LINE"
);
},
{
closed = 1;
nodes = (
"747 174 LINE",
"747 490 LINE",
"714 490 LINE",
"714 174 LINE"
);
}
);
width = 1170;
},
{
anchors = (
{
name = bottom;
position = "{370, 0}";
},
{
name = top;
position = "{370, 686}";
}
);
layerId = "543F9737-16F7-428D-9F96-2EBD9FC8D3B6";
paths = (
{
closed = 1;
nodes = (
"695 507 LINE",
"695 686 LINE",
"40 686 LINE",
"40 655 LINE",
"662 655 LINE",
"662 507 LINE"
);
},
{
closed = 1;
nodes = (
"377 0 LINE",
"377 31 LINE",
"40 31 LINE",
"40 0 LINE"
);
},
{
closed = 1;
nodes = (
"222 18 LINE",
"222 669 LINE",
"189 669 LINE",
"189 18 LINE"
);
},
{
closed = 1;
nodes = (
"486 318 LINE",
"486 349 LINE",
"218 349 LINE",
"218 318 LINE"
);
},
{
closed = 1;
nodes = (
"503 209 LINE",
"503 458 LINE",
"470 458 LINE",
"470 209 LINE"
);
}
);
width = 735;
},
{
anchors = (
{
name = bottom;
position = "{403, 0}";
},
{
name = top;
position = "{403, 686}";
}
);
layerId = "EB38A4D2-CD30-49BA-8E45-1F04A566FFE8";
paths = (
{
closed = 1;
nodes = (
"707 422 LINE",
"707 686 LINE",
"33 686 LINE",
"33 559 LINE",
"566 559 LINE",
"566 422 LINE"
);
},
{
closed = 1;
nodes = (
"424 0 LINE",
"424 127 LINE",
"33 127 LINE",
"33 0 LINE"
);
},
{
closed = 1;
nodes = (
"304 70 LINE",
"304 613 LINE",
"145 613 LINE",
"145 70 LINE"
);
},
{
closed = 1;
nodes = (
"458 277 LINE",
"458 391 LINE",
"204 391 LINE",
"204 277 LINE"
);
},
{
closed = 1;
nodes = (
"510 197 LINE",
"510 470 LINE",
"392 470 LINE",
"392 197 LINE"
);
}
);
width = 740;
},
{
anchors = (
{
name = bottom;
position = "{626, 0}";
},
{
name = top;
position = "{626, 686}";
}
);
layerId = "816E4B99-7363-45E2-A2DF-0C5A75075B59";
paths = (
{
closed = 1;
nodes = (
"1104 373 LINE",
"1104 686 LINE",
"60 686 LINE",
"60 542 LINE",
"941 542 LINE",
"941 373 LINE"
);
},
{
closed = 1;
nodes = (
"650 0 LINE",
"650 144 LINE",
"60 144 LINE",
"60 0 LINE"
);
},
{
closed = 1;
nodes = (
"440 79 LINE",
"440 603 LINE",
"257 603 LINE",
"257 79 LINE"
);
},
{
closed = 1;
nodes = (
"738 273 LINE",
"738 392 LINE",
"321 392 LINE",
"321 273 LINE"
);
},
{
closed = 1;
nodes = (
"794 192 LINE",
"794 472 LINE",
"650 472 LINE",
"650 192 LINE"
);
}
);
width = 1152;
}
);
leftKerningGroup = H;
leftMetricsKey = "=H";
rightKerningGroup = F;
unicode = 0046;
},
{
glyphname = G;
lastChange = "2016-06-09 21:02:24 +0000";
layers = (
{
anchors = (
{
name = bottom;
position = "{610, -14}";
},
{
name = top;
position = "{580, 700}";
}
);
background = {
paths = (
{
closed = 1;
nodes = (
"876 -13 OFFCURVE",
"1068 140 OFFCURVE",
"1068 332 CURVE SMOOTH",
"1068 336 LINE",
"570 336 LINE",
"570 305 LINE",
"1035 305 LINE",
"1018 156 OFFCURVE",
"867 18 OFFCURVE",
"575 18 CURVE SMOOTH",
"336 18 OFFCURVE",
"139 141 OFFCURVE",
"139 342 CURVE SMOOTH",
"139 546 OFFCURVE",
"342 669 OFFCURVE",
"586 669 CURVE SMOOTH",
"760 669 OFFCURVE",
"923 608 OFFCURVE",
"1057 428 CURVE",
"1057 686 LINE",
"1027 686 LINE",
"1027 490 LINE",
"1032 497 LINE",
"939 615 OFFCURVE",
"799 700 OFFCURVE",
"586 700 CURVE SMOOTH",
"331 700 OFFCURVE",
"106 569 OFFCURVE",
"106 342 CURVE SMOOTH",
"106 118 OFFCURVE",
"322 -13 OFFCURVE",
"575 -13 CURVE SMOOTH"
);
}
);
};
layerId = "B29C398E-974A-40D0-A0A0-00935056D4B4";
paths = (
{
closed = 1;
nodes = (
"762 -13 OFFCURVE",
"933 44 OFFCURVE",
"1057 137 CURVE",
"1057 336 LINE",
"575 336 LINE",
"575 305 LINE",
"1024 305 LINE",
"1024 153 LINE",
"904 70 OFFCURVE",
"748 18 OFFCURVE",
"575 18 CURVE SMOOTH",
"336 18 OFFCURVE",
"139 141 OFFCURVE",
"139 342 CURVE SMOOTH",
"139 546 OFFCURVE",
"342 669 OFFCURVE",
"586 669 CURVE SMOOTH",
"768 669 OFFCURVE",
"923 608 OFFCURVE",
"1042 436 CURVE",
"1057 437 LINE",
"1057 686 LINE",
"1026 686 LINE",
"1026 476 LINE",
"1042 476 LINE",
"950 608 OFFCURVE",
"799 700 OFFCURVE",
"586 700 CURVE SMOOTH",
"331 700 OFFCURVE",
"106 569 OFFCURVE",
"106 342 CURVE SMOOTH",
"106 118 OFFCURVE",
"322 -13 OFFCURVE",
"575 -13 CURVE SMOOTH"
);
}
);
width = 1212;
},
{
anchors = (
{
name = bottom;
position = "{395, -14}";
},
{
name = top;
position = "{395, 700}";
}
);
background = {
paths = (
{
closed = 1;
nodes = (
"583 -14 OFFCURVE",
"705 125 OFFCURVE",
"705 310 CURVE SMOOTH",
"705 322 LINE",
"372 322 LINE",
"372 292 LINE",
"672 292 LINE",
"669 150 OFFCURVE",
"574 15 OFFCURVE",
"397 15 CURVE SMOOTH",
"230 15 OFFCURVE",
"99 146 OFFCURVE",
"99 343 CURVE SMOOTH",
"99 540 OFFCURVE",
"237 669 OFFCURVE",
"397 669 CURVE SMOOTH",
"539 669 OFFCURVE",
"619 600 OFFCURVE",
"672 488 CURVE",
"688 490 LINE",
"688 686 LINE",
"658 686 LINE",
"658 546 LINE",
"669 546 LINE",
"640 605 OFFCURVE",
"548 700 OFFCURVE",
"397 700 CURVE SMOOTH",
"226 700 OFFCURVE",
"66 563 OFFCURVE",
"66 343 CURVE SMOOTH",
"66 123 OFFCURVE",
"217 -14 OFFCURVE",
"397 -14 CURVE SMOOTH"
);
}
);
};
layerId = "543F9737-16F7-428D-9F96-2EBD9FC8D3B6";
paths = (
{
closed = 1;
nodes = (
"528 -14 OFFCURVE",
"628 36 OFFCURVE",
"688 95 CURVE",
"688 322 LINE",
"391 322 LINE",
"391 291 LINE",
"655 291 LINE",
"655 106 LINE",
"605 58 OFFCURVE",
"517 17 OFFCURVE",
"404 17 CURVE SMOOTH",
"234 17 OFFCURVE",
"99 146 OFFCURVE",
"99 343 CURVE SMOOTH",
"99 540 OFFCURVE",
"237 669 OFFCURVE",
"397 669 CURVE SMOOTH",
"539 669 OFFCURVE",
"619 595 OFFCURVE",
"672 488 CURVE",
"688 490 LINE",
"688 686 LINE",
"659 686 LINE",
"659 546 LINE",
"669 546 LINE",
"637 614 OFFCURVE",
"548 700 OFFCURVE",
"397 700 CURVE SMOOTH",
"226 700 OFFCURVE",
"66 563 OFFCURVE",
"66 343 CURVE SMOOTH",
"66 123 OFFCURVE",
"221 -14 OFFCURVE",
"404 -14 CURVE SMOOTH"
);
}
);
width = 788;
},
{
anchors = (
{
name = bottom;
position = "{410, -14}";
},
{
name = top;
position = "{410, 700}";
}
);
background = {
paths = (
{
closed = 1;
nodes = (
"633 -14 OFFCURVE",
"778 139 OFFCURVE",
"778 332 CURVE SMOOTH",
"778 372 LINE",
"376 372 LINE",
"376 245 LINE",
"612 245 LINE",
"602 178 OFFCURVE",
"533 112 OFFCURVE",
"426 112 CURVE SMOOTH",
"310 112 OFFCURVE",
"219 213 OFFCURVE",
"219 343 CURVE SMOOTH",
"219 473 OFFCURVE",
"314 574 OFFCURVE",
"434 574 CURVE SMOOTH",
"538 574 OFFCURVE",
"612 509 OFFCURVE",
"648 451 CURVE",
"754 458 LINE",
"754 686 LINE",
"609 686 LINE",
"609 560 LINE",
"683 537 LINE",
"629 635 OFFCURVE",
"527 700 OFFCURVE",
"392 700 CURVE SMOOTH",
"201 700 OFFCURVE",
"50 542 OFFCURVE",
"50 343 CURVE SMOOTH",
"50 143 OFFCURVE",
"213 -14 OFFCURVE",
"420 -14 CURVE SMOOTH"
);
}
);
};
layerId = "EB38A4D2-CD30-49BA-8E45-1F04A566FFE8";
paths = (
{
closed = 1;
nodes = (
"553 -14 OFFCURVE",
"669 33 OFFCURVE",
"737 93 CURVE",
"737 372 LINE",
"409 372 LINE",
"409 253 LINE",
"592 253 LINE",
"592 163 LINE",
"550 136 OFFCURVE",
"500 117 OFFCURVE",
"419 117 CURVE SMOOTH",
"290 117 OFFCURVE",
"202 209 OFFCURVE",
"202 343 CURVE SMOOTH",
"202 491 OFFCURVE",
"297 573 OFFCURVE",
"417 573 CURVE SMOOTH",
"521 573 OFFCURVE",
"595 509 OFFCURVE",
"631 451 CURVE",
"737 458 LINE",
"737 686 LINE",
"595 686 LINE",
"595 560 LINE",
"666 537 LINE",
"612 635 OFFCURVE",
"510 700 OFFCURVE",
"375 700 CURVE SMOOTH",
"184 700 OFFCURVE",
"33 542 OFFCURVE",
"33 343 CURVE SMOOTH",
"33 143 OFFCURVE",
"176 -14 OFFCURVE",
"419 -14 CURVE SMOOTH"
);
}
);
width = 812;
},
{
anchors = (
{
name = bottom;
position = "{576, -14}";
},
{
name = top;
position = "{601, 700}";
}
);
layerId = "816E4B99-7363-45E2-A2DF-0C5A75075B59";
paths = (
{
closed = 1;
nodes = (
"795 -13 OFFCURVE",
"971 53 OFFCURVE",
"1088 132 CURVE",
"1088 379 LINE",
"594 379 LINE",
"594 244 LINE",
"911 244 LINE",
"911 207 LINE",
"848 168 OFFCURVE",
"724 130 OFFCURVE",
"594 130 CURVE SMOOTH",
"382 130 OFFCURVE",
"234 200 OFFCURVE",
"234 342 CURVE SMOOTH",
"234 481 OFFCURVE",
"386 557 OFFCURVE",
"583 557 CURVE SMOOTH",
"736 557 OFFCURVE",
"868 503 OFFCURVE",
"967 438 CURVE",
"1088 462 LINE",
"1088 686 LINE",
"925 686 LINE",
"925 540 LINE",
"1009 514 LINE",
"890 645 OFFCURVE",
"727 700 OFFCURVE",
"532 700 CURVE SMOOTH",
"255 700 OFFCURVE",
"39 560 OFFCURVE",
"39 342 CURVE SMOOTH",
"39 119 OFFCURVE",
"270 -13 OFFCURVE",
"586 -13 CURVE SMOOTH"
);
}
);
width = 1172;
}
);
leftKerningGroup = O;
rightKerningGroup = G;
unicode = 0047;
},
{
glyphname = G.alt;
lastChange = "2016-06-07 16:15:49 +0000";
layers = (
{
anchors = (
{
name = bottom;
position = "{580, -14}";
},
{
name = top;
position = "{580, 700}";
}
);
background = {
paths = (
{
closed = 1;
nodes = (
"876 -13 OFFCURVE",
"1068 140 OFFCURVE",
"1068 332 CURVE SMOOTH",
"1068 336 LINE",
"570 336 LINE",
"570 305 LINE",
"1035 305 LINE",
"1018 156 OFFCURVE",
"867 18 OFFCURVE",
"575 18 CURVE SMOOTH",
"336 18 OFFCURVE",
"139 141 OFFCURVE",
"139 342 CURVE SMOOTH",
"139 546 OFFCURVE",
"342 669 OFFCURVE",
"586 669 CURVE SMOOTH",
"760 669 OFFCURVE",
"923 608 OFFCURVE",
"1057 428 CURVE",
"1057 686 LINE",
"1027 686 LINE",
"1027 490 LINE",
"1032 497 LINE",
"939 615 OFFCURVE",
"799 700 OFFCURVE",
"586 700 CURVE SMOOTH",
"331 700 OFFCURVE",
"106 569 OFFCURVE",
"106 342 CURVE SMOOTH",
"106 118 OFFCURVE",
"322 -13 OFFCURVE",
"575 -13 CURVE SMOOTH"
);
}
);
};
layerId = "B29C398E-974A-40D0-A0A0-00935056D4B4";
paths = (
{
closed = 1;
nodes = (
"876 -13 OFFCURVE",
"1068 140 OFFCURVE",
"1068 332 CURVE SMOOTH",
"1068 336 LINE",
"575 336 LINE",
"575 305 LINE",
"1035 305 LINE",
"1018 156 OFFCURVE",
"867 18 OFFCURVE",
"575 18 CURVE SMOOTH",
"336 18 OFFCURVE",
"139 141 OFFCURVE",
"139 342 CURVE SMOOTH",
"139 546 OFFCURVE",
"342 669 OFFCURVE",
"586 669 CURVE SMOOTH",
"768 669 OFFCURVE",
"923 608 OFFCURVE",
"1042 436 CURVE",
"1057 437 LINE",
"1057 686 LINE",
"1026 686 LINE",
"1026 476 LINE",
"1042 476 LINE",
"950 608 OFFCURVE",
"799 700 OFFCURVE",
"586 700 CURVE SMOOTH",
"331 700 OFFCURVE",
"106 569 OFFCURVE",
"106 342 CURVE SMOOTH",
"106 118 OFFCURVE",
"322 -13 OFFCURVE",
"575 -13 CURVE SMOOTH"
);
}
);
width = 1187;
},
{
anchors = (
{
name = bottom;
position = "{395, -14}";
},
{
name = top;
position = "{395, 700}";
}
);
background = {
paths = (
{
closed = 1;
nodes = (
"583 -14 OFFCURVE",
"705 125 OFFCURVE",
"705 310 CURVE SMOOTH",
"705 322 LINE",
"372 322 LINE",
"372 292 LINE",
"672 292 LINE",
"669 150 OFFCURVE",
"574 15 OFFCURVE",
"397 15 CURVE SMOOTH",
"230 15 OFFCURVE",
"99 146 OFFCURVE",
"99 343 CURVE SMOOTH",
"99 540 OFFCURVE",
"237 669 OFFCURVE",
"397 669 CURVE SMOOTH",
"539 669 OFFCURVE",
"619 600 OFFCURVE",
"672 488 CURVE",
"688 490 LINE",
"688 686 LINE",
"658 686 LINE",
"658 546 LINE",
"669 546 LINE",
"640 605 OFFCURVE",
"548 700 OFFCURVE",
"397 700 CURVE SMOOTH",
"226 700 OFFCURVE",
"66 563 OFFCURVE",
"66 343 CURVE SMOOTH",
"66 123 OFFCURVE",
"217 -14 OFFCURVE",
"397 -14 CURVE SMOOTH"
);
}
);
};
layerId = "543F9737-16F7-428D-9F96-2EBD9FC8D3B6";
paths = (
{
closed = 1;
nodes = (
"577 -14 OFFCURVE",
"705 125 OFFCURVE",
"705 310 CURVE SMOOTH",
"705 322 LINE",
"391 322 LINE",
"391 291 LINE",
"672 291 LINE",
"669 149 OFFCURVE",
"568 17 OFFCURVE",
"391 17 CURVE SMOOTH",
"224 17 OFFCURVE",
"99 146 OFFCURVE",
"99 343 CURVE SMOOTH",
"99 540 OFFCURVE",
"237 669 OFFCURVE",
"397 669 CURVE SMOOTH",
"539 669 OFFCURVE",
"619 595 OFFCURVE",
"672 488 CURVE",
"688 490 LINE",
"688 686 LINE",
"657 686 LINE",
"657 546 LINE",
"669 546 LINE",
"637 614 OFFCURVE",
"548 700 OFFCURVE",
"397 700 CURVE SMOOTH",
"226 700 OFFCURVE",
"66 563 OFFCURVE",
"66 343 CURVE SMOOTH",
"66 123 OFFCURVE",
"211 -14 OFFCURVE",
"391 -14 CURVE SMOOTH"
);
}
);
width = 791;
},
{
anchors = (
{
name = bottom;
position = "{410, -14}";
},
{
name = top;
position = "{410, 700}";
}
);
background = {
paths = (
{
closed = 1;
nodes = (
"616 -14 OFFCURVE",
"761 139 OFFCURVE",
"761 332 CURVE SMOOTH",
"761 372 LINE",
"359 372 LINE",
"359 245 LINE",
"595 245 LINE",
"585 178 OFFCURVE",
"516 112 OFFCURVE",
"409 112 CURVE SMOOTH",
"293 112 OFFCURVE",
"202 213 OFFCURVE",
"202 343 CURVE SMOOTH",
"202 473 OFFCURVE",
"297 574 OFFCURVE",
"417 574 CURVE SMOOTH",
"521 574 OFFCURVE",
"595 509 OFFCURVE",
"631 451 CURVE",
"737 458 LINE",
"737 686 LINE",
"592 686 LINE",
"592 560 LINE",
"666 537 LINE",
"612 635 OFFCURVE",
"510 700 OFFCURVE",
"375 700 CURVE SMOOTH",
"184 700 OFFCURVE",
"33 542 OFFCURVE",
"33 343 CURVE SMOOTH",
"33 143 OFFCURVE",
"196 -14 OFFCURVE",
"403 -14 CURVE SMOOTH"
);
}
);
};
layerId = "EB38A4D2-CD30-49BA-8E45-1F04A566FFE8";
paths = (
{
closed = 1;
nodes = (
"661 -14 OFFCURVE",
"761 194 OFFCURVE",
"761 332 CURVE SMOOTH",
"761 372 LINE",
"409 372 LINE",
"409 245 LINE",
"595 245 LINE",
"595 178 OFFCURVE",
"516 113 OFFCURVE",
"409 113 CURVE SMOOTH",
"293 113 OFFCURVE",
"202 213 OFFCURVE",
"202 343 CURVE SMOOTH",
"202 473 OFFCURVE",
"297 573 OFFCURVE",
"417 573 CURVE SMOOTH",
"521 573 OFFCURVE",
"595 509 OFFCURVE",
"631 451 CURVE",
"737 458 LINE",
"737 686 LINE",
"596 686 LINE",
"596 560 LINE",
"666 537 LINE",
"612 635 OFFCURVE",
"510 700 OFFCURVE",
"375 700 CURVE SMOOTH",
"184 700 OFFCURVE",
"33 542 OFFCURVE",
"33 343 CURVE SMOOTH",
"33 143 OFFCURVE",
"196 -14 OFFCURVE",
"403 -14 CURVE SMOOTH"
);
}
);
width = 794;
},
{
anchors = (
{
name = bottom;
position = "{601, -14}";
},
{
name = top;
position = "{601, 700}";
}
);
layerId = "816E4B99-7363-45E2-A2DF-0C5A75075B59";
paths = (
{
closed = 1;
nodes = (
"921 -13 OFFCURVE",
"1107 125 OFFCURVE",
"1107 344 CURVE SMOOTH",
"1107 395 LINE",
"594 395 LINE",
"594 251 LINE",
"917 251 LINE",
"905 190 OFFCURVE",
"772 130 OFFCURVE",
"594 130 CURVE SMOOTH",
"382 130 OFFCURVE",
"234 206 OFFCURVE",
"234 342 CURVE SMOOTH",
"234 481 OFFCURVE",
"386 557 OFFCURVE",
"583 557 CURVE SMOOTH",
"736 557 OFFCURVE",
"868 503 OFFCURVE",
"967 438 CURVE",
"1088 462 LINE",
"1088 686 LINE",
"925 686 LINE",
"925 540 LINE",
"1009 514 LINE",
"890 645 OFFCURVE",
"727 700 OFFCURVE",
"532 700 CURVE SMOOTH",
"255 700 OFFCURVE",
"39 560 OFFCURVE",
"39 342 CURVE SMOOTH",
"39 125 OFFCURVE",
"270 -13 OFFCURVE",
"586 -13 CURVE SMOOTH"
);
}
);
width = 1167;
}
);
leftKerningGroup = O;
rightKerningGroup = G;
},
{
glyphname = H;
lastChange = "2016-06-07 16:15:49 +0000";
layers = (
{
anchors = (
{
name = bottom;
position = "{746, 0}";
},
{
name = center;
position = "{746, 350}";
},
{
name = top;
position = "{746, 686}";
}
);
layerId = "B29C398E-974A-40D0-A0A0-00935056D4B4";
paths = (
{
closed = 1;
nodes = (
"1154 333 LINE",
"1154 364 LINE",
"340 364 LINE",
"340 333 LINE"
);
},
{
closed = 1;
nodes = (
"586 0 LINE",
"586 31 LINE",
"74 31 LINE",
"74 0 LINE"
);
},
{
closed = 1;
nodes = (
"347 14 LINE",
"347 669 LINE",
"314 669 LINE",
"314 14 LINE"
);
},
{
closed = 1;
nodes = (
"586 655 LINE",
"586 686 LINE",
"74 686 LINE",
"74 655 LINE"
);
},
{
closed = 1;
nodes = (
"1419 0 LINE",
"1419 31 LINE",
"905 31 LINE",
"905 0 LINE"
);
},
{
closed = 1;
nodes = (
"1179 18 LINE",
"1179 672 LINE",
"1146 672 LINE",
"1146 18 LINE"
);
},
{
closed = 1;
nodes = (
"1419 655 LINE",
"1419 686 LINE",
"905 686 LINE",
"905 655 LINE"
);
}
);
width = 1493;
},
{
anchors = (
{
name = bottom;
position = "{475, 0}";
},
{
name = center;
position = "{475, 323}";
},
{
name = top;
position = "{475, 686}";
}
);
background = {
paths = (
{
closed = 1;
nodes = (
"761 18 LINE",
"761 633 LINE",
"728 633 LINE",
"728 18 LINE"
);
},
{
closed = 1;
nodes = (
"358 0 LINE",
"358 33 LINE",
"40 33 LINE",
"40 0 LINE"
);
},
{
closed = 1;
nodes = (
"220 18 LINE",
"220 633 LINE",
"189 633 LINE",
"189 18 LINE"
);
},
{
closed = 1;
nodes = (
"737 304 LINE",
"737 336 LINE",
"213 336 LINE",
"213 304 LINE"
);
},
{
closed = 1;
nodes = (
"358 614 LINE",
"358 647 LINE",
"40 647 LINE",
"40 614 LINE"
);
},
{
closed = 1;
nodes = (
"910 0 LINE",
"910 33 LINE",
"592 33 LINE",
"592 0 LINE"
);
},
{
closed = 1;
nodes = (
"910 614 LINE",
"910 647 LINE",
"592 647 LINE",
"592 614 LINE"
);
}
);
};
layerId = "543F9737-16F7-428D-9F96-2EBD9FC8D3B6";
paths = (
{
closed = 1;
nodes = (
"736 332 LINE",
"736 363 LINE",
"217 363 LINE",
"217 332 LINE"
);
},
{
closed = 1;
nodes = (
"370 0 LINE",
"370 31 LINE",
"40 31 LINE",
"40 0 LINE"
);
},
{
closed = 1;
nodes = (
"223 18 LINE",
"223 672 LINE",
"190 672 LINE",
"190 18 LINE"
);
},
{
closed = 1;
nodes = (
"370 655 LINE",
"370 686 LINE",
"40 686 LINE",
"40 655 LINE"
);
},
{
closed = 1;
nodes = (
"911 0 LINE",
"911 31 LINE",
"580 31 LINE",
"580 0 LINE"
);
},
{
closed = 1;
nodes = (
"761 18 LINE",
"761 672 LINE",
"728 672 LINE",
"728 18 LINE"
);
},
{
closed = 1;
nodes = (
"911 655 LINE",
"911 686 LINE",
"580 686 LINE",
"580 655 LINE"
);
}
);
width = 951;
},
{
anchors = (
{
name = bottom;
position = "{460, 0}";
},
{
name = center;
position = "{460, 339}";
},
{
name = top;
position = "{460, 686}";
}
);
layerId = "EB38A4D2-CD30-49BA-8E45-1F04A566FFE8";
paths = (
{
closed = 1;
nodes = (
"727 290 LINE",
"727 409 LINE",
"196 409 LINE",
"196 290 LINE"
);
},
{
closed = 1;
nodes = (
"418 0 LINE",
"418 127 LINE",
"33 127 LINE",
"33 0 LINE"
);
},
{
closed = 1;
nodes = (
"308 70 LINE",
"308 613 LINE",
"145 613 LINE",
"145 70 LINE"
);
},
{
closed = 1;
nodes = (
"418 559 LINE",
"418 686 LINE",
"33 686 LINE",
"33 559 LINE"
);
},
{
closed = 1;
nodes = (
"889 0 LINE",
"889 127 LINE",
"504 127 LINE",
"504 0 LINE"
);
},
{
closed = 1;
nodes = (
"778 74 LINE",
"778 616 LINE",
"615 616 LINE",
"615 74 LINE"
);
},
{
closed = 1;
nodes = (
"889 559 LINE",
"889 686 LINE",
"504 686 LINE",
"504 559 LINE"
);
}
);
width = 922;
},
{
anchors = (
{
name = bottom;
position = "{739, 0}";
},
{
name = center;
position = "{739, 368}";
},
{
name = top;
position = "{739, 686}";
}
);
layerId = "816E4B99-7363-45E2-A2DF-0C5A75075B59";
paths = (
{
closed = 1;
nodes = (
"1171 283 LINE",
"1171 418 LINE",
"313 418 LINE",
"313 283 LINE"
);
},
{
closed = 1;
nodes = (
"639 0 LINE",
"639 144 LINE",
"60 144 LINE",
"60 0 LINE"
);
},
{
closed = 1;
nodes = (
"443 77 LINE",
"443 598 LINE",
"258 598 LINE",
"258 77 LINE"
);
},
{
closed = 1;
nodes = (
"639 542 LINE",
"639 686 LINE",
"60 686 LINE",
"60 542 LINE"
);
},
{
closed = 1;
nodes = (
"1421 0 LINE",
"1421 144 LINE",
"844 144 LINE",
"844 0 LINE"
);
},
{
closed = 1;
nodes = (
"1223 84 LINE",
"1223 606 LINE",
"1038 606 LINE",
"1038 84 LINE"
);
},
{
closed = 1;
nodes = (
"1421 542 LINE",
"1421 686 LINE",
"844 686 LINE",
"844 542 LINE"
);
}
);
width = 1480;
}
);
leftKerningGroup = H;
rightKerningGroup = H;
unicode = 0048;
},
{
glyphname = Hbar;
lastChange = "2016-06-09 18:07:47 +0000";
layers = (
{
anchors = (
{
name = bottom;
position = "{746, 0}";
},
{
name = center;
position = "{746, 350}";
},
{
name = top;
position = "{746, 686}";
}
);
background = {
paths = (
{
closed = 1;
nodes = (
"1420 488 LINE",
"1420 517 LINE",
"74 517 LINE",
"74 488 LINE"
);
},
{
closed = 1;
nodes = (
"587 0 LINE",
"587 31 LINE",
"74 31 LINE",
"74 0 LINE"
);
},
{
closed = 1;
nodes = (
"348 14 LINE",
"348 669 LINE",
"315 669 LINE",
"315 14 LINE"
);
},
{
closed = 1;
nodes = (
"1420 0 LINE",
"1420 31 LINE",
"906 31 LINE",
"906 0 LINE"
);
},
{
closed = 1;
nodes = (
"1155 334 LINE",
"1155 364 LINE",
"341 364 LINE",
"341 334 LINE"
);
},
{
closed = 1;
nodes = (
"587 656 LINE",
"587 686 LINE",
"74 686 LINE",
"74 656 LINE"
);
},
{
closed = 1;
nodes = (
"1180 18 LINE",
"1180 672 LINE",
"1147 672 LINE",
"1147 18 LINE"
);
},
{
closed = 1;
nodes = (
"1420 656 LINE",
"1420 686 LINE",
"906 686 LINE",
"906 656 LINE"
);
}
);
};
layerId = "B29C398E-974A-40D0-A0A0-00935056D4B4";
paths = (
{
closed = 1;
nodes = (
"1421 488 LINE",
"1421 517 LINE",
"74 517 LINE",
"74 488 LINE"
);
},
{
closed = 1;
nodes = (
"1154 333 LINE",
"1154 364 LINE",
"340 364 LINE",
"340 333 LINE"
);
},
{
closed = 1;
nodes = (
"586 0 LINE",
"586 31 LINE",
"74 31 LINE",
"74 0 LINE"
);
},
{
closed = 1;
nodes = (
"347 14 LINE",
"347 669 LINE",
"314 669 LINE",
"314 14 LINE"
);
},
{
closed = 1;
nodes = (
"586 655 LINE",
"586 686 LINE",
"74 686 LINE",
"74 655 LINE"
);
},
{
closed = 1;
nodes = (
"1419 0 LINE",
"1419 31 LINE",
"905 31 LINE",
"905 0 LINE"
);
},
{
closed = 1;
nodes = (
"1179 18 LINE",
"1179 672 LINE",
"1146 672 LINE",
"1146 18 LINE"
);
},
{
closed = 1;
nodes = (
"1419 655 LINE",
"1419 686 LINE",
"905 686 LINE",
"905 655 LINE"
);
}
);
width = 1495;
},
{
anchors = (
{
name = bottom;
position = "{475, 0}";
},
{
name = center;
position = "{475, 323}";
},
{
name = top;
position = "{475, 686}";
}
);
layerId = "543F9737-16F7-428D-9F96-2EBD9FC8D3B6";
paths = (
{
closed = 1;
nodes = (
"223 18 LINE",
"223 672 LINE",
"190 672 LINE",
"190 18 LINE"
);
},
{
closed = 1;
nodes = (
"370 0 LINE",
"370 31 LINE",
"40 31 LINE",
"40 0 LINE"
);
},
{
closed = 1;
nodes = (
"911 0 LINE",
"911 31 LINE",
"580 31 LINE",
"580 0 LINE"
);
},
{
closed = 1;
nodes = (
"736 314 LINE",
"736 345 LINE",
"217 345 LINE",
"217 314 LINE"
);
},
{
closed = 1;
nodes = (
"370 655 LINE",
"370 686 LINE",
"40 686 LINE",
"40 655 LINE"
);
},
{
closed = 1;
nodes = (
"878 482 LINE",
"878 510 LINE",
"73 510 LINE",
"73 482 LINE"
);
},
{
closed = 1;
nodes = (
"761 18 LINE",
"761 672 LINE",
"728 672 LINE",
"728 18 LINE"
);
},
{
closed = 1;
nodes = (
"911 655 LINE",
"911 686 LINE",
"580 686 LINE",
"580 655 LINE"
);
}
);
width = 951;
},
{
anchors = (
{
name = bottom;
position = "{460, 0}";
},
{
name = center;
position = "{460, 339}";
},
{
name = top;
position = "{460, 686}";
}
);
background = {
paths = (
{
closed = 1;
nodes = (
"883 414 LINE",
"883 510 LINE",
"65 510 LINE",
"65 414 LINE"
);
},
{
closed = 1;
nodes = (
"418 0 LINE",
"418 127 LINE",
"33 127 LINE",
"33 0 LINE"
);
},
{
closed = 1;
nodes = (
"306 70 LINE",
"306 613 LINE",
"145 613 LINE",
"145 70 LINE"
);
},
{
closed = 1;
nodes = (
"916 0 LINE",
"916 127 LINE",
"529 127 LINE",
"529 0 LINE"
);
},
{
closed = 1;
nodes = (
"754 250 LINE",
"754 364 LINE",
"196 364 LINE",
"196 250 LINE"
);
},
{
closed = 1;
nodes = (
"418 560 LINE",
"418 686 LINE",
"33 686 LINE",
"33 560 LINE"
);
},
{
closed = 1;
nodes = (
"804 74 LINE",
"804 616 LINE",
"641 616 LINE",
"641 74 LINE"
);
},
{
closed = 1;
nodes = (
"916 560 LINE",
"916 686 LINE",
"529 686 LINE",
"529 560 LINE"
);
}
);
};
layerId = "EB38A4D2-CD30-49BA-8E45-1F04A566FFE8";
paths = (
{
closed = 1;
nodes = (
"308 70 LINE",
"308 613 LINE",
"145 613 LINE",
"145 70 LINE"
);
},
{
closed = 1;
nodes = (
"418 0 LINE",
"418 127 LINE",
"33 127 LINE",
"33 0 LINE"
);
},
{
closed = 1;
nodes = (
"889 0 LINE",
"889 127 LINE",
"504 127 LINE",
"504 0 LINE"
);
},
{
closed = 1;
nodes = (
"739 250 LINE",
"739 364 LINE",
"181 364 LINE",
"181 250 LINE"
);
},
{
closed = 1;
nodes = (
"418 559 LINE",
"418 686 LINE",
"33 686 LINE",
"33 559 LINE"
);
},
{
closed = 1;
nodes = (
"870 414 LINE",
"870 510 LINE",
"52 510 LINE",
"52 414 LINE"
);
},
{
closed = 1;
nodes = (
"778 74 LINE",
"778 616 LINE",
"615 616 LINE",
"615 74 LINE"
);
},
{
closed = 1;
nodes = (
"889 559 LINE",
"889 686 LINE",
"504 686 LINE",
"504 559 LINE"
);
}
);
width = 922;
},
{
anchors = (
{
name = bottom;
position = "{739, 0}";
},
{
name = center;
position = "{739, 368}";
},
{
name = top;
position = "{739, 686}";
}
);
layerId = "816E4B99-7363-45E2-A2DF-0C5A75075B59";
paths = (
{
closed = 1;
nodes = (
"1420 433 LINE",
"1420 492 LINE",
"60 492 LINE",
"60 433 LINE"
);
},
{
closed = 1;
nodes = (
"1171 260 LINE",
"1171 379 LINE",
"313 379 LINE",
"313 260 LINE"
);
},
{
closed = 1;
nodes = (
"639 0 LINE",
"639 144 LINE",
"60 144 LINE",
"60 0 LINE"
);
},
{
closed = 1;
nodes = (
"443 77 LINE",
"443 598 LINE",
"258 598 LINE",
"258 77 LINE"
);
},
{
closed = 1;
nodes = (
"639 542 LINE",
"639 686 LINE",
"60 686 LINE",
"60 542 LINE"
);
},
{
closed = 1;
nodes = (
"1421 0 LINE",
"1421 144 LINE",
"844 144 LINE",
"844 0 LINE"
);
},
{
closed = 1;
nodes = (
"1223 84 LINE",
"1223 606 LINE",
"1038 606 LINE",
"1038 84 LINE"
);
},
{
closed = 1;
nodes = (
"1421 542 LINE",
"1421 686 LINE",
"844 686 LINE",
"844 542 LINE"
);
}
);
width = 1480;
}
);
leftKerningGroup = H;
leftMetricsKey = "=H";
rightKerningGroup = H;
rightMetricsKey = "=H";
unicode = 0126;
},
{
glyphname = I;
lastChange = "2016-06-07 16:15:49 +0000";
layers = (
{
anchors = (
{
name = bottom;
position = "{331, 0}";
},
{
name = ogonek;
position = "{347, 0}";
},
{
name = top;
position = "{331, 686}";
}
);
layerId = "B29C398E-974A-40D0-A0A0-00935056D4B4";
paths = (
{
closed = 1;
nodes = (
"348 18 LINE SMOOTH",
"348 669 LINE SMOOTH",
"315 669 LINE SMOOTH",
"315 18 LINE SMOOTH"
);
},
{
closed = 1;
nodes = (
"587 0 LINE SMOOTH",
"587 31 LINE SMOOTH",
"74 31 LINE SMOOTH",
"74 0 LINE SMOOTH"
);
},
{
closed = 1;
nodes = (
"587 655 LINE SMOOTH",
"587 686 LINE SMOOTH",
"74 686 LINE SMOOTH",
"74 655 LINE SMOOTH"
);
}
);
width = 661;
},
{
anchors = (
{
name = bottom;
position = "{205, 0}";
},
{
name = ogonek;
position = "{209, 0}";
},
{
name = top;
position = "{206, 686}";
}
);
layerId = "543F9737-16F7-428D-9F96-2EBD9FC8D3B6";
paths = (
{
closed = 1;
nodes = (
"222 18 LINE",
"222 672 LINE",
"189 672 LINE",
"189 18 LINE"
);
},
{
closed = 1;
nodes = (
"371 0 LINE",
"371 31 LINE",
"40 31 LINE",
"40 0 LINE"
);
},
{
closed = 1;
nodes = (
"371 655 LINE",
"371 686 LINE",
"40 686 LINE",
"40 655 LINE"
);
}
);
width = 411;
},
{
anchors = (
{
name = bottom;
position = "{229, 0}";
},
{
name = ogonek;
position = "{278, 0}";
},
{
name = top;
position = "{229, 686}";
}
);
layerId = "EB38A4D2-CD30-49BA-8E45-1F04A566FFE8";
paths = (
{
closed = 1;
nodes = (
"307 75 LINE",
"307 613 LINE",
"145 613 LINE",
"145 75 LINE"
);
},
{
closed = 1;
nodes = (
"420 0 LINE",
"420 127 LINE",
"33 127 LINE",
"33 0 LINE"
);
},
{
closed = 1;
nodes = (
"420 559 LINE",
"420 686 LINE",
"33 686 LINE",
"33 559 LINE"
);
}
);
width = 453;
},
{
anchors = (
{
name = bottom;
position = "{350, 0}";
},
{
name = ogonek;
position = "{385, 0}";
},
{
name = top;
position = "{352, 686}";
}
);
layerId = "816E4B99-7363-45E2-A2DF-0C5A75075B59";
paths = (
{
closed = 1;
nodes = (
"442 85 LINE SMOOTH",
"442 598 LINE SMOOTH",
"257 598 LINE SMOOTH",
"257 85 LINE SMOOTH"
);
},
{
closed = 1;
nodes = (
"639 0 LINE SMOOTH",
"639 144 LINE SMOOTH",
"60 144 LINE SMOOTH",
"60 0 LINE SMOOTH"
);
},
{
closed = 1;
nodes = (
"639 542 LINE SMOOTH",
"639 686 LINE SMOOTH",
"60 686 LINE SMOOTH",
"60 542 LINE SMOOTH"
);
}
);
width = 699;
}
);
leftKerningGroup = H;
leftMetricsKey = "=H";
rightKerningGroup = H;
rightMetricsKey = "=H";
unicode = 0049;
},
{
glyphname = J;
lastChange = "2016-06-07 16:15:49 +0000";
layers = (
{
anchors = (
{
name = bottom;
position = "{327, -14}";
},
{
name = top;
position = "{572, 686}";
}
);
background = {
paths = (
{
closed = 1;
nodes = (
"833 616 LINE",
"833 647 LINE",
"272 647 LINE",
"272 616 LINE"
);
},
{
closed = 1;
nodes = (
"24 136 LINE",
"75 59 OFFCURVE",
"173 -26 OFFCURVE",
"329 -26 CURVE SMOOTH",
"503 -26 OFFCURVE",
"622 73 OFFCURVE",
"622 232 CURVE SMOOTH",
"622 629 LINE",
"589 629 LINE",
"589 232 LINE SMOOTH",
"589 77 OFFCURVE",
"469 4 OFFCURVE",
"329 4 CURVE SMOOTH",
"196 4 OFFCURVE",
"101 81 OFFCURVE",
"48 154 CURVE"
);
}
);
};
layerId = "B29C398E-974A-40D0-A0A0-00935056D4B4";
paths = (
{
closed = 1;
nodes = (
"503 -13 OFFCURVE",
"622 86 OFFCURVE",
"622 245 CURVE SMOOTH",
"622 669 LINE",
"589 669 LINE",
"589 245 LINE SMOOTH",
"589 90 OFFCURVE",
"469 18 OFFCURVE",
"329 18 CURVE SMOOTH",
"196 18 OFFCURVE",
"101 95 OFFCURVE",
"48 167 CURVE",
"26 146 LINE",
"78 73 OFFCURVE",
"173 -13 OFFCURVE",
"329 -13 CURVE SMOOTH"
);
},
{
closed = 1;
nodes = (
"862 655 LINE",
"862 686 LINE",
"272 686 LINE",
"272 655 LINE"
);
}
);
width = 862;
},
{
anchors = (
{
name = bottom;
position = "{231, -14}";
},
{
name = top;
position = "{399, 686}";
}
);
layerId = "543F9737-16F7-428D-9F96-2EBD9FC8D3B6";
paths = (
{
closed = 1;
nodes = (
"352 -13 OFFCURVE",
"438 72 OFFCURVE",
"438 223 CURVE SMOOTH",
"438 669 LINE",
"405 669 LINE",
"405 217 LINE SMOOTH",
"405 85 OFFCURVE",
"330 18 OFFCURVE",
"230 18 CURVE SMOOTH",
"141 18 OFFCURVE",
"72 61 OFFCURVE",
"26 97 CURVE",
"7 70 LINE",
"57 32 OFFCURVE",
"132 -13 OFFCURVE",
"230 -13 CURVE SMOOTH"
);
},
{
closed = 1;
nodes = (
"587 655 LINE",
"587 686 LINE",
"213 686 LINE",
"213 655 LINE"
);
}
);
width = 594;
},
{
anchors = (
{
name = bottom;
position = "{204, -14}";
},
{
name = top;
position = "{345, 686}";
}
);
layerId = "EB38A4D2-CD30-49BA-8E45-1F04A566FFE8";
paths = (
{
closed = 1;
nodes = (
"338 -13 OFFCURVE",
"449 72 OFFCURVE",
"449 223 CURVE SMOOTH",
"449 618 LINE",
"285 618 LINE",
"287 231 LINE SMOOTH",
"287 150 OFFCURVE",
"250 122 OFFCURVE",
"196 118 CURVE SMOOTH",
"151 115 OFFCURVE",
"101 143 OFFCURVE",
"68 167 CURVE",
"2 57 LINE",
"42 19 OFFCURVE",
"118 -13 OFFCURVE",
"204 -13 CURVE SMOOTH"
);
},
{
closed = 1;
nodes = (
"557 559 LINE",
"557 686 LINE",
"117 686 LINE",
"117 559 LINE"
);
}
);
width = 564;
},
{
anchors = (
{
name = bottom;
position = "{344, -14}";
},
{
name = top;
position = "{511, 686}";
}
);
layerId = "816E4B99-7363-45E2-A2DF-0C5A75075B59";
paths = (
{
closed = 1;
nodes = (
"555 -13 OFFCURVE",
"649 112 OFFCURVE",
"649 266 CURVE SMOOTH",
"649 609 LINE",
"463 609 LINE",
"463 263 LINE SMOOTH",
"463 183 OFFCURVE",
"420 136 OFFCURVE",
"342 136 CURVE SMOOTH",
"263 136 OFFCURVE",
"194 167 OFFCURVE",
"123 218 CURVE",
"35 90 LINE",
"130 27 OFFCURVE",
"235 -13 OFFCURVE",
"344 -13 CURVE SMOOTH"
);
},
{
closed = 1;
nodes = (
"819 542 LINE",
"819 686 LINE",
"203 686 LINE",
"203 542 LINE"
);
}
);
width = 831;
}
);
leftKerningGroup = J;
rightKerningGroup = U;
rightMetricsKey = "=U";
unicode = 004A;
},
{
glyphname = K;
lastChange = "2016-06-09 19:10:54 +0000";
layers = (
{
anchors = (
{
name = bottom;
position = "{693, 0}";
},
{
name = top;
position = "{693, 686}";
}
);
layerId = "B29C398E-974A-40D0-A0A0-00935056D4B4";
paths = (
{
closed = 1;
nodes = (
"1088 669 LINE",
"1035 669 LINE",
"330 206 LINE",
"330 171 LINE"
);
},
{
closed = 1;
nodes = (
"587 0 LINE SMOOTH",
"587 31 LINE SMOOTH",
"74 31 LINE SMOOTH",
"74 0 LINE SMOOTH"
);
},
{
closed = 1;
nodes = (
"348 18 LINE SMOOTH",
"348 669 LINE SMOOTH",
"315 669 LINE SMOOTH",
"315 18 LINE SMOOTH"
);
},
{
closed = 1;
nodes = (
"587 655 LINE SMOOTH",
"587 686 LINE SMOOTH",
"74 686 LINE SMOOTH",
"74 655 LINE SMOOTH"
);
},
{
closed = 1;
nodes = (
"1269 0 LINE SMOOTH",
"1269 31 LINE SMOOTH",
"805 31 LINE SMOOTH",
"805 0 LINE SMOOTH"
);
},
{
closed = 1;
nodes = (
"1096 13 LINE",
"635 388 LINE",
"614 367 LINE",
"1049 13 LINE"
);
},
{
closed = 1;
nodes = (
"1256 655 LINE SMOOTH",
"1256 686 LINE SMOOTH",
"792 686 LINE SMOOTH",
"792 655 LINE SMOOTH"
);
}
);
width = 1316;
},
{
anchors = (
{
name = bottom;
position = "{457, 0}";
},
{
name = top;
position = "{457, 686}";
}
);
layerId = "543F9737-16F7-428D-9F96-2EBD9FC8D3B6";
paths = (
{
closed = 1;
nodes = (
"744 669 LINE",
"700 669 LINE",
"205 222 LINE",
"205 185 LINE"
);
},
{
closed = 1;
nodes = (
"371 0 LINE SMOOTH",
"371 31 LINE SMOOTH",
"40 31 LINE SMOOTH",
"40 0 LINE SMOOTH"
);
},
{
closed = 1;
nodes = (
"222 18 LINE SMOOTH",
"222 669 LINE SMOOTH",
"189 669 LINE SMOOTH",
"189 18 LINE SMOOTH"
);
},
{
closed = 1;
nodes = (
"840 0 LINE SMOOTH",
"840 31 LINE SMOOTH",
"548 31 LINE SMOOTH",
"548 0 LINE SMOOTH"
);
},
{
closed = 1;
nodes = (
"741 13 LINE",
"421 402 LINE",
"396 381 LINE",
"700 13 LINE"
);
},
{
closed = 1;
nodes = (
"371 655 LINE SMOOTH",
"371 686 LINE SMOOTH",
"40 686 LINE SMOOTH",
"40 655 LINE SMOOTH"
);
},
{
closed = 1;
nodes = (
"827 655 LINE SMOOTH",
"827 686 LINE SMOOTH",
"535 686 LINE SMOOTH",
"535 655 LINE SMOOTH"
);
}
);
width = 854;
},
{
anchors = (
{
name = bottom;
position = "{462, 0}";
},
{
name = top;
position = "{453, 686}";
}
);
layerId = "EB38A4D2-CD30-49BA-8E45-1F04A566FFE8";
paths = (
{
closed = 1;
nodes = (
"794 583 LINE",
"615 583 LINE",
"212 260 LINE",
"213 117 LINE"
);
},
{
closed = 1;
nodes = (
"409 0 LINE SMOOTH",
"409 127 LINE SMOOTH",
"33 127 LINE SMOOTH",
"33 0 LINE SMOOTH"
);
},
{
closed = 1;
nodes = (
"307 70 LINE SMOOTH",
"307 613 LINE SMOOTH",
"145 613 LINE SMOOTH",
"145 70 LINE SMOOTH"
);
},
{
closed = 1;
nodes = (
"857 0 LINE SMOOTH",
"857 127 LINE SMOOTH",
"510 127 LINE SMOOTH",
"510 0 LINE SMOOTH"
);
},
{
closed = 1;
nodes = (
"820 95 LINE",
"495 440 LINE",
"370 364 LINE",
"615 95 LINE"
);
},
{
closed = 1;
nodes = (
"409 559 LINE SMOOTH",
"409 686 LINE SMOOTH",
"33 686 LINE SMOOTH",
"33 559 LINE SMOOTH"
);
},
{
closed = 1;
nodes = (
"850 559 LINE SMOOTH",
"850 686 LINE SMOOTH",
"505 686 LINE SMOOTH",
"505 559 LINE SMOOTH"
);
}
);
width = 864;
},
{
anchors = (
{
name = bottom;
position = "{685, 0}";
},
{
name = top;
position = "{667, 686}";
}
);
layerId = "816E4B99-7363-45E2-A2DF-0C5A75075B59";
paths = (
{
closed = 1;
nodes = (
"1129 552 LINE",
"1030 622 LINE",
"278 241 LINE",
"377 171 LINE"
);
},
{
closed = 1;
nodes = (
"627 0 LINE SMOOTH",
"627 144 LINE SMOOTH",
"60 144 LINE SMOOTH",
"60 0 LINE SMOOTH"
);
},
{
closed = 1;
nodes = (
"440 79 LINE SMOOTH",
"440 603 LINE SMOOTH",
"257 603 LINE SMOOTH",
"257 79 LINE SMOOTH"
);
},
{
closed = 1;
nodes = (
"627 542 LINE SMOOTH",
"627 686 LINE SMOOTH",
"60 686 LINE SMOOTH",
"60 542 LINE SMOOTH"
);
},
{
closed = 1;
nodes = (
"1268 0 LINE SMOOTH",
"1268 144 LINE SMOOTH",
"740 144 LINE SMOOTH",
"740 0 LINE SMOOTH"
);
},
{
closed = 1;
nodes = (
"1171 111 LINE",
"786 416 LINE",
"601 366 LINE",
"986 61 LINE"
);
},
{
closed = 1;
nodes = (
"1247 542 LINE SMOOTH",
"1247 686 LINE SMOOTH",
"720 686 LINE SMOOTH",
"720 542 LINE SMOOTH"
);
}
);
width = 1271;
}
);
leftKerningGroup = H;
leftMetricsKey = "=H";
rightKerningGroup = X;
unicode = 004B;
},
{
glyphname = L;
lastChange = "2016-06-07 16:15:49 +0000";
layers = (
{
anchors = (
{
name = bottom;
position = "{593, 0}";
},
{
name = center;
position = "{583, 323}";
},
{
name = top;
position = "{330, 686}";
},
{
name = topright;
position = "{592, 447}";
}
);
layerId = "B29C398E-974A-40D0-A0A0-00935056D4B4";
paths = (
{
closed = 1;
nodes = (
"1042 0 LINE",
"1042 242 LINE",
"1009 242 LINE",
"1009 31 LINE",
"74 31 LINE",
"74 0 LINE"
);
},
{
closed = 1;
nodes = (
"348 18 LINE",
"348 669 LINE",
"315 669 LINE",
"315 18 LINE"
);
},
{
closed = 1;
nodes = (
"587 655 LINE",
"587 686 LINE",
"74 686 LINE",
"74 655 LINE"
);
}
);
width = 1108;
},
{
anchors = (
{
name = bottom;
position = "{385, 0}";
},
{
name = center;
position = "{390, 323}";
},
{
name = top;
position = "{285, 686}";
},
{
name = topright;
position = "{438, 543}";
}
);
layerId = "543F9737-16F7-428D-9F96-2EBD9FC8D3B6";
paths = (
{
closed = 1;
nodes = (
"656 0 LINE",
"656 179 LINE",
"625 179 LINE",
"625 31 LINE",
"40 31 LINE",
"40 0 LINE"
);
},
{
closed = 1;
nodes = (
"222 18 LINE",
"222 669 LINE",
"189 669 LINE",
"189 18 LINE"
);
},
{
closed = 1;
nodes = (
"371 655 LINE",
"371 686 LINE",
"40 686 LINE",
"40 655 LINE"
);
}
);
width = 715;
},
{
anchors = (
{
name = bottom;
position = "{369, 0}";
},
{
name = center;
position = "{419, 323}";
},
{
name = top;
position = "{272, 686}";
},
{
name = topright;
position = "{474, 541}";
}
);
layerId = "EB38A4D2-CD30-49BA-8E45-1F04A566FFE8";
paths = (
{
closed = 1;
nodes = (
"699 0 LINE",
"699 288 LINE",
"547 288 LINE",
"547 127 LINE",
"33 127 LINE",
"33 0 LINE"
);
},
{
closed = 1;
nodes = (
"306 70 LINE",
"306 605 LINE",
"145 605 LINE",
"145 70 LINE"
);
},
{
closed = 1;
nodes = (
"417 559 LINE",
"417 686 LINE",
"33 686 LINE",
"33 559 LINE"
);
}
);
width = 732;
},
{
anchors = (
{
name = bottom;
position = "{520, 0}";
},
{
name = center;
position = "{642, 323}";
},
{
name = top;
position = "{358, 686}";
},
{
name = topright;
position = "{705, 455}";
}
);
layerId = "816E4B99-7363-45E2-A2DF-0C5A75075B59";
paths = (
{
closed = 1;
nodes = (
"1054 0 LINE",
"1054 312 LINE",
"891 312 LINE",
"891 144 LINE",
"60 144 LINE",
"60 0 LINE"
);
},
{
closed = 1;
nodes = (
"440 79 LINE",
"440 593 LINE",
"257 593 LINE",
"257 79 LINE"
);
},
{
closed = 1;
nodes = (
"637 542 LINE",
"637 686 LINE",
"60 686 LINE",
"60 542 LINE"
);
}
);
width = 1115;
}
);
leftKerningGroup = H;
leftMetricsKey = "=H";
rightKerningGroup = L;
unicode = 004C;
},
{
glyphname = Lslash;
lastChange = "2016-06-09 21:04:50 +0000";
layers = (
{
components = (
{
name = L;
}
);
layerId = "B29C398E-974A-40D0-A0A0-00935056D4B4";
paths = (
{
closed = 1;
nodes = (
"586 400 LINE",
"586 433 LINE",
"75 244 LINE",
"75 211 LINE"
);
}
);
width = 1147;
},
{
components = (
{
name = L;
}
);
layerId = "543F9737-16F7-428D-9F96-2EBD9FC8D3B6";
paths = (
{
closed = 1;
nodes = (
"371 387 LINE",
"371 420 LINE",
"40 279 LINE",
"40 246 LINE"
);
}
);
width = 708;
},
{
components = (
{
name = L;
}
);
layerId = "EB38A4D2-CD30-49BA-8E45-1F04A566FFE8";
paths = (
{
closed = 1;
nodes = (
"415 358 LINE",
"415 450 LINE",
"35 312 LINE",
"35 220 LINE"
);
}
);
width = 732;
},
{
components = (
{
name = L;
}
);
layerId = "816E4B99-7363-45E2-A2DF-0C5A75075B59";
paths = (
{
closed = 1;
nodes = (
"636 362 LINE",
"636 473 LINE",
"60 330 LINE",
"60 219 LINE"
);
}
);
width = 1102;
}
);
leftKerningGroup = H;
rightKerningGroup = L;
unicode = 0141;
},
{
glyphname = M;
lastChange = "2016-06-07 16:15:49 +0000";
layers = (
{
anchors = (
{
name = bottom;
position = "{836, 0}";
},
{
name = top;
position = "{817, 640}";
}
);
background = {
paths = (
{
closed = 1;
nodes = (
"831 4 LINE",
"348 647 LINE",
"306 647 LINE",
"817 -35 LINE"
);
},
{
closed = 1;
nodes = (
"528 0 LINE",
"528 31 LINE",
"80 31 LINE",
"80 0 LINE"
);
},
{
closed = 1;
nodes = (
"348 15 LINE",
"348 629 LINE",
"315 629 LINE",
"315 15 LINE"
);
},
{
closed = 1;
nodes = (
"348 616 LINE",
"348 647 LINE",
"80 647 LINE",
"80 616 LINE"
);
},
{
closed = 1;
nodes = (
"1552 0 LINE",
"1552 31 LINE",
"1104 31 LINE",
"1104 0 LINE"
);
},
{
closed = 1;
nodes = (
"1328 647 LINE",
"1283 647 LINE",
"806 4 LINE",
"817 -35 LINE"
);
},
{
closed = 1;
nodes = (
"1319 15 LINE",
"1319 629 LINE",
"1286 629 LINE",
"1286 15 LINE"
);
},
{
closed = 1;
nodes = (
"1552 616 LINE",
"1552 647 LINE",
"1286 647 LINE",
"1286 616 LINE"
);
}
);
};
layerId = "B29C398E-974A-40D0-A0A0-00935056D4B4";
paths = (
{
closed = 1;
nodes = (
"820 -14 LINE",
"831 19 LINE",
"348 686 LINE",
"306 686 LINE",
"813 -14 LINE"
);
},
{
closed = 1;
nodes = (
"546 0 LINE",
"546 31 LINE",
"74 31 LINE",
"74 0 LINE"
);
},
{
closed = 1;
nodes = (
"348 15 LINE",
"348 598 LINE",
"348 627 OFFCURVE",
"348 658 OFFCURVE",
"348 686 CURVE",
"315 686 LINE",
"315 15 LINE"
);
},
{
closed = 1;
nodes = (
"348 655 LINE",
"348 686 LINE",
"74 686 LINE",
"74 655 LINE"
);
},
{
closed = 1;
nodes = (
"1559 0 LINE",
"1559 31 LINE",
"1088 31 LINE",
"1088 0 LINE"
);
},
{
closed = 1;
nodes = (
"821 -14 LINE",
"1328 686 LINE",
"1286 686 LINE",
"806 19 LINE",
"814 -14 LINE"
);
},
{
closed = 1;
nodes = (
"1319 15 LINE",
"1319 686 LINE",
"1286 686 LINE",
"1286 658 OFFCURVE",
"1286 627 OFFCURVE",
"1286 598 CURVE",
"1286 15 LINE"
);
},
{
closed = 1;
nodes = (
"1559 655 LINE",
"1559 686 LINE",
"1286 686 LINE",
"1286 655 LINE"
);
}
);
width = 1633;
},
{
anchors = (
{
name = bottom;
position = "{555, 0}";
},
{
name = top;
position = "{537, 640}";
}
);
background = {
paths = (
{
closed = 1;
nodes = (
"44 31 LINE",
"348 31 LINE",
"348 0 LINE",
"44 0 LINE"
);
},
{
closed = 1;
nodes = (
"186 647 LINE",
"219 647 LINE",
"219 15 LINE",
"186 15 LINE"
);
},
{
closed = 1;
nodes = (
"44 647 LINE",
"219 647 LINE",
"219 616 LINE",
"44 616 LINE"
);
},
{
closed = 1;
nodes = (
"541 -35 LINE",
"190 647 LINE",
"224 647 LINE",
"554 8 LINE"
);
},
{
closed = 1;
nodes = (
"858 647 LINE",
"892 647 LINE",
"541 -35 LINE",
"530 8 LINE"
);
},
{
closed = 1;
nodes = (
"735 0 LINE",
"735 31 LINE",
"1038 31 LINE",
"1038 0 LINE"
);
},
{
closed = 1;
nodes = (
"864 15 LINE",
"864 647 LINE",
"897 647 LINE",
"897 15 LINE"
);
},
{
closed = 1;
nodes = (
"864 616 LINE",
"864 647 LINE",
"1038 647 LINE",
"1038 616 LINE"
);
}
);
};
layerId = "543F9737-16F7-428D-9F96-2EBD9FC8D3B6";
paths = (
{
closed = 1;
nodes = (
"544 -14 LINE",
"557 19 LINE",
"225 686 LINE",
"190 686 LINE",
"538 -14 LINE"
);
},
{
closed = 1;
nodes = (
"356 0 LINE",
"356 31 LINE",
"40 31 LINE",
"40 0 LINE"
);
},
{
closed = 1;
nodes = (
"220 15 LINE",
"220 590 LINE",
"220 622 OFFCURVE",
"220 655 OFFCURVE",
"220 686 CURVE",
"187 686 LINE",
"187 15 LINE"
);
},
{
closed = 1;
nodes = (
"220 655 LINE",
"220 686 LINE",
"40 686 LINE",
"40 655 LINE"
);
},
{
closed = 1;
nodes = (
"1045 0 LINE",
"1045 31 LINE",
"728 31 LINE",
"728 0 LINE"
);
},
{
closed = 1;
nodes = (
"547 -14 LINE",
"893 686 LINE",
"859 686 LINE",
"531 19 LINE",
"540 -14 LINE"
);
},
{
closed = 1;
nodes = (
"898 15 LINE",
"898 686 LINE",
"865 686 LINE",
"865 655 OFFCURVE",
"865 622 OFFCURVE",
"865 590 CURVE",
"865 15 LINE"
);
},
{
closed = 1;
nodes = (
"1045 655 LINE",
"1045 686 LINE",
"865 686 LINE",
"865 655 LINE"
);
}
);
width = 1085;
},
{
anchors = (
{
name = bottom;
position = "{591, 4}";
},
{
name = top;
position = "{554, 640}";
}
);
layerId = "EB38A4D2-CD30-49BA-8E45-1F04A566FFE8";
paths = (
{
closed = 1;
nodes = (
"574 -1 LINE",
"609 113 LINE",
"322 686 LINE",
"169 686 LINE",
"509 -1 LINE"
);
},
{
closed = 1;
nodes = (
"400 0 LINE",
"400 127 LINE",
"33 127 LINE",
"33 0 LINE"
);
},
{
closed = 1;
nodes = (
"295 72 LINE",
"295 276 LINE",
"295 391 OFFCURVE",
"255 612 OFFCURVE",
"238 686 CURVE",
"145 686 LINE",
"145 72 LINE"
);
},
{
closed = 1;
nodes = (
"293 559 LINE",
"293 686 LINE",
"33 686 LINE",
"33 559 LINE"
);
},
{
closed = 1;
nodes = (
"1082 0 LINE",
"1082 127 LINE",
"707 127 LINE",
"707 0 LINE"
);
},
{
closed = 1;
nodes = (
"598 -1 LINE",
"938 686 LINE",
"792 686 LINE",
"510 113 LINE",
"539 -1 LINE"
);
},
{
closed = 1;
nodes = (
"970 72 LINE",
"970 686 LINE",
"882 686 LINE",
"859 612 OFFCURVE",
"812 391 OFFCURVE",
"812 276 CURVE SMOOTH",
"812 72 LINE"
);
},
{
closed = 1;
nodes = (
"1082 559 LINE",
"1082 686 LINE",
"814 686 LINE",
"814 559 LINE"
);
}
);
width = 1115;
},
{
anchors = (
{
name = bottom;
position = "{868, 0}";
},
{
name = top;
position = "{831, 640}";
}
);
layerId = "816E4B99-7363-45E2-A2DF-0C5A75075B59";
paths = (
{
closed = 1;
nodes = (
"850 1 LINE",
"888 123 LINE",
"479 686 LINE",
"273 686 LINE",
"774 1 LINE"
);
},
{
closed = 1;
nodes = (
"592 0 LINE",
"592 144 LINE",
"60 144 LINE",
"60 0 LINE"
);
},
{
closed = 1;
nodes = (
"433 82 LINE",
"433 234 LINE",
"433 361 OFFCURVE",
"390 606 OFFCURVE",
"370 686 CURVE",
"259 686 LINE",
"259 82 LINE"
);
},
{
closed = 1;
nodes = (
"429 542 LINE",
"429 686 LINE",
"60 686 LINE",
"60 542 LINE"
);
},
{
closed = 1;
nodes = (
"1596 0 LINE",
"1596 144 LINE",
"1058 144 LINE",
"1058 0 LINE"
);
},
{
closed = 1;
nodes = (
"877 1 LINE",
"1380 686 LINE",
"1179 686 LINE",
"778 123 LINE",
"808 1 LINE"
);
},
{
closed = 1;
nodes = (
"1400 82 LINE",
"1400 686 LINE",
"1294 686 LINE",
"1267 606 OFFCURVE",
"1216 361 OFFCURVE",
"1216 234 CURVE",
"1216 82 LINE"
);
},
{
closed = 1;
nodes = (
"1597 542 LINE",
"1597 686 LINE",
"1221 686 LINE",
"1221 542 LINE"
);
}
);
width = 1657;
}
);
leftKerningGroup = H;
leftMetricsKey = "=H";
rightKerningGroup = H;
rightMetricsKey = "=H";
unicode = 004D;
},
{
glyphname = N;
lastChange = "2016-06-07 16:15:49 +0000";
layers = (
{
anchors = (
{
name = bottom;
position = "{820, 14}";
},
{
name = top;
position = "{688, 672}";
}
);
background = {
paths = (
{
closed = 1;
nodes = (
"1195 -7 LINE",
"1201 -7 LINE",
"1201 669 LINE",
"1168 669 LINE",
"1168 75 LINE",
"655 686 LINE",
"608 686 LINE"
);
}
);
};
layerId = "B29C398E-974A-40D0-A0A0-00935056D4B4";
paths = (
{
closed = 1;
nodes = (
"1201 -7 LINE",
"1201 669 LINE",
"1168 669 LINE",
"1168 57 LINE",
"348 686 LINE",
"289 686 LINE",
"1195 -7 LINE"
);
},
{
closed = 1;
nodes = (
"587 0 LINE",
"587 31 LINE",
"74 31 LINE",
"74 0 LINE"
);
},
{
closed = 1;
nodes = (
"348 15 LINE",
"348 686 LINE",
"315 686 LINE",
"315 15 LINE"
);
},
{
closed = 1;
nodes = (
"348 655 LINE",
"348 686 LINE",
"74 686 LINE",
"74 655 LINE"
);
},
{
closed = 1;
nodes = (
"1441 655 LINE",
"1441 686 LINE",
"928 686 LINE",
"928 655 LINE"
);
}
);
width = 1461;
},
{
anchors = (
{
name = bottom;
position = "{502, 14}";
},
{
name = top;
position = "{462, 686}";
}
);
background = {
paths = (
{
closed = 1;
nodes = (
"737 319 LINE",
"737 350 LINE",
"213 350 LINE",
"213 319 LINE"
);
},
{
closed = 1;
nodes = (
"358 0 LINE",
"358 31 LINE",
"40 31 LINE",
"40 0 LINE"
);
},
{
closed = 1;
nodes = (
"220 18 LINE",
"220 672 LINE",
"189 672 LINE",
"189 18 LINE"
);
},
{
closed = 1;
nodes = (
"358 656 LINE",
"358 686 LINE",
"40 686 LINE",
"40 656 LINE"
);
},
{
closed = 1;
nodes = (
"910 0 LINE",
"910 31 LINE",
"592 31 LINE",
"592 0 LINE"
);
},
{
closed = 1;
nodes = (
"761 18 LINE",
"761 672 LINE",
"728 672 LINE",
"728 18 LINE"
);
},
{
closed = 1;
nodes = (
"910 656 LINE",
"910 686 LINE",
"592 686 LINE",
"592 656 LINE"
);
}
);
};
layerId = "543F9737-16F7-428D-9F96-2EBD9FC8D3B6";
paths = (
{
closed = 1;
nodes = (
"768 -7 LINE",
"768 669 LINE",
"735 669 LINE",
"735 75 LINE",
"222 686 LINE",
"176 686 LINE",
"761 -7 LINE"
);
},
{
closed = 1;
nodes = (
"359 0 LINE",
"359 31 LINE",
"40 31 LINE",
"40 0 LINE"
);
},
{
closed = 1;
nodes = (
"222 15 LINE",
"222 686 LINE",
"189 686 LINE",
"189 15 LINE"
);
},
{
closed = 1;
nodes = (
"222 655 LINE",
"222 686 LINE",
"40 686 LINE",
"40 655 LINE"
);
},
{
closed = 1;
nodes = (
"917 655 LINE",
"917 686 LINE",
"586 686 LINE",
"586 655 LINE"
);
}
);
width = 931;
},
{
anchors = (
{
name = bottom;
position = "{547, 14}";
},
{
name = top;
position = "{462, 686}";
}
);
layerId = "EB38A4D2-CD30-49BA-8E45-1F04A566FFE8";
paths = (
{
closed = 1;
nodes = (
"817 -6 LINE",
"817 669 LINE",
"669 669 LINE",
"669 265 LINE",
"297 686 LINE",
"101 686 LINE",
"730 -7 LINE"
);
},
{
closed = 1;
nodes = (
"409 0 LINE",
"409 127 LINE",
"33 127 LINE",
"33 0 LINE"
);
},
{
closed = 1;
nodes = (
"297 15 LINE",
"297 686 LINE",
"145 686 LINE",
"145 15 LINE"
);
},
{
closed = 1;
nodes = (
"294 559 LINE",
"297 686 LINE",
"33 686 LINE",
"33 559 LINE"
);
},
{
closed = 1;
nodes = (
"923 559 LINE",
"923 686 LINE",
"557 686 LINE",
"557 559 LINE"
);
}
);
width = 943;
},
{
anchors = (
{
name = bottom;
position = "{829, 14}";
},
{
name = top;
position = "{713, 672}";
}
);
layerId = "816E4B99-7363-45E2-A2DF-0C5A75075B59";
paths = (
{
closed = 1;
nodes = (
"1253 -6 LINE",
"1253 669 LINE",
"1084 669 LINE",
"1084 259 LINE",
"435 686 LINE",
"108 686 LINE",
"1151 -7 LINE"
);
},
{
closed = 1;
nodes = (
"653 0 LINE",
"653 144 LINE",
"60 144 LINE",
"60 0 LINE"
);
},
{
closed = 1;
nodes = (
"435 15 LINE",
"435 686 LINE",
"257 686 LINE",
"257 15 LINE"
);
},
{
closed = 1;
nodes = (
"434 542 LINE",
"436 686 LINE",
"60 686 LINE",
"60 542 LINE"
);
},
{
closed = 1;
nodes = (
"1449 542 LINE",
"1449 686 LINE",
"888 686 LINE",
"888 542 LINE"
);
}
);
width = 1448;
}
);
leftKerningGroup = H;
leftMetricsKey = "=H";
rightKerningGroup = N;
unicode = 004E;
},
{
glyphname = Eng;
lastChange = "2016-06-07 16:19:27 +0000";
layers = (
{
anchors = (
{
name = bottom;
position = "{820, 14}";
},
{
name = top;
position = "{688, 672}";
}
);
layerId = "B29C398E-974A-40D0-A0A0-00935056D4B4";
paths = (
{
closed = 1;
nodes = (
"1082 -251 OFFCURVE",
"1201 -152 OFFCURVE",
"1201 8 CURVE SMOOTH",
"1201 669 LINE",
"1168 669 LINE",
"1168 57 LINE",
"348 686 LINE",
"289 686 LINE",
"1168 14 LINE",
"1168 8 LINE SMOOTH",
"1168 -147 OFFCURVE",
"1048 -220 OFFCURVE",
"909 -220 CURVE SMOOTH",
"774 -220 OFFCURVE",
"681 -143 OFFCURVE",
"628 -70 CURVE",
"606 -91 LINE",
"658 -165 OFFCURVE",
"752 -251 OFFCURVE",
"909 -251 CURVE SMOOTH"
);
},
{
closed = 1;
nodes = (
"521 0 LINE",
"521 31 LINE",
"74 31 LINE",
"74 0 LINE"
);
},
{
closed = 1;
nodes = (
"348 15 LINE",
"348 686 LINE",
"315 686 LINE",
"315 15 LINE"
);
},
{
closed = 1;
nodes = (
"348 656 LINE",
"348 686 LINE",
"74 686 LINE",
"74 656 LINE"
);
},
{
closed = 1;
nodes = (
"1441 656 LINE",
"1441 686 LINE",
"928 686 LINE",
"928 656 LINE"
);
}
);
width = 1461;
},
{
anchors = (
{
name = bottom;
position = "{502, 13}";
},
{
name = top;
position = "{462, 673}";
}
);
layerId = "543F9737-16F7-428D-9F96-2EBD9FC8D3B6";
paths = (
{
closed = 1;
nodes = (
"682 -251 OFFCURVE",
"768 -166 OFFCURVE",
"768 -14 CURVE SMOOTH",
"768 669 LINE",
"735 669 LINE",
"735 75 LINE",
"222 686 LINE",
"176 686 LINE",
"735 24 LINE",
"735 -21 LINE SMOOTH",
"735 -153 OFFCURVE",
"661 -220 OFFCURVE",
"561 -220 CURVE SMOOTH",
"473 -220 OFFCURVE",
"403 -177 OFFCURVE",
"358 -141 CURVE",
"338 -167 LINE",
"388 -206 OFFCURVE",
"463 -251 OFFCURVE",
"561 -251 CURVE SMOOTH"
);
},
{
closed = 1;
nodes = (
"359 0 LINE",
"359 31 LINE",
"40 31 LINE",
"40 0 LINE"
);
},
{
closed = 1;
nodes = (
"222 15 LINE",
"222 686 LINE",
"189 686 LINE",
"189 15 LINE"
);
},
{
closed = 1;
nodes = (
"222 656 LINE",
"222 686 LINE",
"40 686 LINE",
"40 656 LINE"
);
},
{
closed = 1;
nodes = (
"917 656 LINE",
"917 686 LINE",
"586 686 LINE",
"586 656 LINE"
);
}
);
width = 931;
},
{
anchors = (
{
name = bottom;
position = "{488, 0}";
},
{
name = top;
position = "{488, 686}";
}
);
layerId = "EB38A4D2-CD30-49BA-8E45-1F04A566FFE8";
paths = (
{
closed = 1;
nodes = (
"707 -238 OFFCURVE",
"815 -155 OFFCURVE",
"817 -6 CURVE SMOOTH",
"817 669 LINE",
"669 669 LINE",
"669 265 LINE",
"297 686 LINE",
"101 686 LINE",
"671 58 LINE",
"671 9 LINE SMOOTH",
"671 -73 OFFCURVE",
"633 -100 OFFCURVE",
"576 -105 CURVE",
"532 -107 OFFCURVE",
"483 -79 OFFCURVE",
"450 -55 CURVE",
"384 -167 LINE",
"424 -206 OFFCURVE",
"499 -238 OFFCURVE",
"585 -238 CURVE SMOOTH"
);
},
{
closed = 1;
nodes = (
"409 0 LINE",
"409 127 LINE",
"33 127 LINE",
"33 0 LINE"
);
},
{
closed = 1;
nodes = (
"297 15 LINE",
"297 686 LINE",
"145 686 LINE",
"145 15 LINE"
);
},
{
closed = 1;
nodes = (
"294 559 LINE",
"297 686 LINE",
"33 686 LINE",
"33 559 LINE"
);
},
{
closed = 1;
nodes = (
"923 559 LINE",
"923 686 LINE",
"557 686 LINE",
"557 559 LINE"
);
}
);
width = 943;
},
{
anchors = (
{
name = bottom;
position = "{782, 13}";
},
{
name = top;
position = "{760, 673}";
}
);
layerId = "816E4B99-7363-45E2-A2DF-0C5A75075B59";
paths = (
{
closed = 1;
nodes = (
"1140 -236 OFFCURVE",
"1253 -137 OFFCURVE",
"1253 45 CURVE SMOOTH",
"1253 669 LINE",
"1084 669 LINE",
"1084 265 LINE",
"435 686 LINE",
"102 686 LINE",
"1084 37 LINE",
"1085 31 LINE",
"1081 -49 OFFCURVE",
"1040 -82 OFFCURVE",
"976 -82 CURVE SMOOTH",
"898 -82 OFFCURVE",
"819 -20 OFFCURVE",
"764 27 CURVE",
"666 -102 LINE",
"742 -157 OFFCURVE",
"845 -236 OFFCURVE",
"977 -236 CURVE SMOOTH"
);
},
{
closed = 1;
nodes = (
"603 0 LINE",
"603 144 LINE",
"60 144 LINE",
"60 0 LINE"
);
},
{
closed = 1;
nodes = (
"435 15 LINE",
"435 686 LINE",
"257 686 LINE",
"257 15 LINE"
);
},
{
closed = 1;
nodes = (
"434 541 LINE",
"436 686 LINE",
"60 686 LINE",
"60 541 LINE"
);
},
{
closed = 1;
nodes = (
"1449 541 LINE",
"1449 686 LINE",
"888 686 LINE",
"888 541 LINE"
);
}
);
width = 1448;
}
);
leftKerningGroup = H;
leftMetricsKey = N;
rightKerningGroup = J;
rightMetricsKey = N;
unicode = 014A;
},
{
glyphname = O;
lastChange = "2016-06-09 21:08:42 +0000";
layers = (
{
anchors = (
{
name = bottom;
position = "{605, -14}";
},
{
name = center;
position = "{605, 333}";
},
{
name = ogonek;
position = "{607, 0}";
},
{
name = top;
position = "{605, 700}";
},
{
name = topright;
position = "{1176, 647}";
}
);
background = {
paths = (
{
closed = 1;
nodes = (
"890 -26 OFFCURVE",
"1110 103 OFFCURVE",
"1110 328 CURVE",
"1110 550 OFFCURVE",
"890 681 OFFCURVE",
"605 681 CURVE",
"319 681 OFFCURVE",
"99 550 OFFCURVE",
"99 328 CURVE",
"99 103 OFFCURVE",
"319 -26 OFFCURVE",
"605 -26 CURVE"
);
},
{
closed = 1;
nodes = (
"332 4 OFFCURVE",
"132 127 OFFCURVE",
"132 328 CURVE",
"132 528 OFFCURVE",
"332 651 OFFCURVE",
"605 651 CURVE",
"876 651 OFFCURVE",
"1077 528 OFFCURVE",
"1077 328 CURVE",
"1077 127 OFFCURVE",
"876 4 OFFCURVE",
"605 4 CURVE"
);
}
);
};
layerId = "B29C398E-974A-40D0-A0A0-00935056D4B4";
paths = (
{
closed = 1;
nodes = (
"890 -13 OFFCURVE",
"1110 117 OFFCURVE",
"1110 343 CURVE",
"1110 569 OFFCURVE",
"890 700 OFFCURVE",
"605 700 CURVE",
"319 700 OFFCURVE",
"99 569 OFFCURVE",
"99 343 CURVE",
"99 117 OFFCURVE",
"319 -13 OFFCURVE",
"605 -13 CURVE"
);
},
{
closed = 1;
nodes = (
"332 18 OFFCURVE",
"132 140 OFFCURVE",
"132 343 CURVE",
"132 547 OFFCURVE",
"332 669 OFFCURVE",
"605 669 CURVE",
"876 669 OFFCURVE",
"1077 547 OFFCURVE",
"1077 343 CURVE",
"1077 140 OFFCURVE",
"876 18 OFFCURVE",
"605 18 CURVE"
);
}
);
width = 1209;
},
{
anchors = (
{
name = bottom;
position = "{407, -14}";
},
{
name = center;
position = "{407, 333}";
},
{
name = ogonek;
position = "{417, 0}";
},
{
name = top;
position = "{407, 700}";
},
{
name = topright;
position = "{719, 647}";
}
);
layerId = "543F9737-16F7-428D-9F96-2EBD9FC8D3B6";
paths = (
{
closed = 1;
nodes = (
"589 -13 OFFCURVE",
"740 118 OFFCURVE",
"740 343 CURVE",
"740 569 OFFCURVE",
"589 700 OFFCURVE",
"407 700 CURVE",
"223 700 OFFCURVE",
"73 569 OFFCURVE",
"73 343 CURVE",
"73 118 OFFCURVE",
"223 -13 OFFCURVE",
"407 -13 CURVE"
);
},
{
closed = 1;
nodes = (
"238 18 OFFCURVE",
"106 140 OFFCURVE",
"106 343 CURVE",
"106 547 OFFCURVE",
"238 669 OFFCURVE",
"407 669 CURVE",
"574 669 OFFCURVE",
"707 547 OFFCURVE",
"707 343 CURVE",
"707 140 OFFCURVE",
"574 18 OFFCURVE",
"407 18 CURVE"
);
}
);
width = 813;
},
{
anchors = (
{
name = bottom;
position = "{407, -14}";
},
{
name = center;
position = "{408, 333}";
},
{
name = ogonek;
position = "{461, 0}";
},
{
name = top;
position = "{407, 700}";
},
{
name = topright;
position = "{721, 647}";
}
);
layerId = "EB38A4D2-CD30-49BA-8E45-1F04A566FFE8";
paths = (
{
closed = 1;
nodes = (
"623 -13 OFFCURVE",
"781 145 OFFCURVE",
"781 343 CURVE",
"781 541 OFFCURVE",
"623 700 OFFCURVE",
"408 700 CURVE",
"191 700 OFFCURVE",
"33 541 OFFCURVE",
"33 343 CURVE",
"33 145 OFFCURVE",
"191 -13 OFFCURVE",
"408 -13 CURVE"
);
},
{
closed = 1;
nodes = (
"276 118 OFFCURVE",
"202 220 OFFCURVE",
"202 343 CURVE",
"202 463 OFFCURVE",
"276 569 OFFCURVE",
"408 569 CURVE",
"536 569 OFFCURVE",
"612 466 OFFCURVE",
"612 343 CURVE",
"612 223 OFFCURVE",
"536 118 OFFCURVE",
"408 118 CURVE"
);
}
);
width = 814;
},
{
anchors = (
{
name = bottom;
position = "{607, -14}";
},
{
name = center;
position = "{607, 333}";
},
{
name = ogonek;
position = "{686, 0}";
},
{
name = top;
position = "{606, 700}";
},
{
name = topright;
position = "{1178, 647}";
}
);
layerId = "816E4B99-7363-45E2-A2DF-0C5A75075B59";
paths = (
{
closed = 1;
nodes = (
"941 -13 OFFCURVE",
"1160 142 OFFCURVE",
"1160 343 CURVE",
"1160 544 OFFCURVE",
"941 700 OFFCURVE",
"607 700 CURVE",
"274 700 OFFCURVE",
"53 544 OFFCURVE",
"53 343 CURVE",
"53 142 OFFCURVE",
"274 -13 OFFCURVE",
"607 -13 CURVE"
);
},
{
closed = 1;
nodes = (
"377 136 OFFCURVE",
"248 215 OFFCURVE",
"248 343 CURVE",
"248 467 OFFCURVE",
"377 551 OFFCURVE",
"606 551 CURVE",
"834 551 OFFCURVE",
"965 471 OFFCURVE",
"965 343 CURVE",
"965 220 OFFCURVE",
"834 136 OFFCURVE",
"606 136 CURVE"
);
}
);
width = 1213;
}
);
leftKerningGroup = O;
rightKerningGroup = O;
unicode = 004F;
},
{
color = 4;
glyphname = Oslash;
lastChange = "2016-06-07 16:15:49 +0000";
layers = (
{
components = (
{
name = O;
}
);
layerId = "B29C398E-974A-40D0-A0A0-00935056D4B4";
paths = (
{
closed = 1;
nodes = (
"451 12 LINE",
"456 20 LINE",
"789 664 LINE",
"794 673 LINE",
"843 767 LINE",
"807 767 LINE",
"760 679 LINE",
"755 669 LINE",
"423 31 LINE",
"416 19 LINE",
"367 -78 LINE",
"404 -78 LINE"
);
}
);
width = 1209;
},
{
components = (
{
name = O;
}
);
layerId = "543F9737-16F7-428D-9F96-2EBD9FC8D3B6";
paths = (
{
closed = 1;
nodes = (
"303 14 LINE",
"307 25 LINE",
"538 658 LINE",
"542 668 LINE",
"577 767 LINE",
"544 767 LINE",
"511 678 LINE",
"508 668 LINE",
"279 37 LINE",
"276 28 LINE",
"237 -78 LINE",
"270 -78 LINE"
);
}
);
width = 813;
},
{
components = (
{
name = O;
}
);
layerId = "EB38A4D2-CD30-49BA-8E45-1F04A566FFE8";
paths = (
{
closed = 1;
nodes = (
"343 57 LINE",
"339 77 LINE",
"570 580 LINE",
"588 587 LINE",
"669 767 LINE",
"535 767 LINE",
"474 634 LINE",
"477 614 LINE",
"239 91 LINE",
"218 78 LINE",
"146 -78 LINE",
"280 -78 LINE"
);
}
);
width = 814;
},
{
components = (
{
name = O;
}
);
layerId = "816E4B99-7363-45E2-A2DF-0C5A75075B59";
paths = (
{
closed = 1;
nodes = (
"499 62 LINE",
"493 81 LINE",
"827 572 LINE",
"850 578 LINE",
"965 767 LINE",
"809 767 LINE",
"715 627 LINE",
"719 605 LINE",
"374 95 LINE",
"348 77 LINE",
"248 -78 LINE",
"404 -78 LINE"
);
}
);
width = 1213;
}
);
leftKerningGroup = O;
rightKerningGroup = O;
unicode = 00D8;
},
{
glyphname = OE;
lastChange = "2016-06-09 20:40:54 +0000";
layers = (
{
anchors = (
{
name = bottom;
position = "{1004, 0}";
},
{
name = center;
position = "{1004, 333}";
},
{
name = ogonek;
position = "{1749, 0}";
},
{
name = top;
position = "{1004, 686}";
}
);
layerId = "B29C398E-974A-40D0-A0A0-00935056D4B4";
paths = (
{
closed = 1;
nodes = (
"1749 0 LINE",
"1749 242 LINE",
"1717 242 LINE",
"1717 31 LINE",
"553 31 LINE SMOOTH",
"297 31 OFFCURVE",
"132 134 OFFCURVE",
"132 343 CURVE SMOOTH",
"132 552 OFFCURVE",
"297 656 OFFCURVE",
"553 656 CURVE SMOOTH",
"1716 656 LINE",
"1716 444 LINE",
"1749 444 LINE",
"1749 686 LINE",
"553 686 LINE SMOOTH",
"283 686 OFFCURVE",
"99 574 OFFCURVE",
"99 343 CURVE SMOOTH",
"99 112 OFFCURVE",
"283 0 OFFCURVE",
"553 0 CURVE SMOOTH"
);
},
{
closed = 1;
nodes = (
"958 18 LINE",
"958 669 LINE",
"925 669 LINE",
"925 18 LINE"
);
},
{
closed = 1;
nodes = (
"1381 344 LINE",
"1381 375 LINE",
"955 375 LINE",
"955 344 LINE"
);
},
{
closed = 1;
nodes = (
"1398 202 LINE",
"1398 517 LINE",
"1365 517 LINE",
"1365 202 LINE"
);
}
);
width = 1894;
},
{
anchors = (
{
name = bottom;
position = "{608, 0}";
},
{
name = center;
position = "{608, 333}";
},
{
name = ogonek;
position = "{1008, 0}";
},
{
name = top;
position = "{608, 686}";
}
);
layerId = "543F9737-16F7-428D-9F96-2EBD9FC8D3B6";
paths = (
{
closed = 1;
nodes = (
"1008 0 LINE",
"1008 179 LINE",
"976 179 LINE",
"976 31 LINE",
"455 31 LINE SMOOTH",
"240 31 OFFCURVE",
"106 146 OFFCURVE",
"106 337 CURVE SMOOTH",
"106 527 OFFCURVE",
"240 656 OFFCURVE",
"455 656 CURVE SMOOTH",
"975 656 LINE",
"975 507 LINE",
"1008 507 LINE",
"1008 686 LINE",
"455 686 LINE SMOOTH",
"227 686 OFFCURVE",
"73 549 OFFCURVE",
"73 337 CURVE SMOOTH",
"73 124 OFFCURVE",
"227 0 OFFCURVE",
"455 0 CURVE SMOOTH"
);
},
{
closed = 1;
nodes = (
"586 18 LINE",
"586 669 LINE",
"553 669 LINE",
"553 18 LINE"
);
},
{
closed = 1;
nodes = (
"798 344 LINE",
"798 375 LINE",
"582 375 LINE",
"582 344 LINE"
);
},
{
closed = 1;
nodes = (
"814 235 LINE",
"814 484 LINE",
"781 484 LINE",
"781 235 LINE"
);
}
);
width = 1094;
},
{
anchors = (
{
name = bottom;
position = "{649, 0}";
},
{
name = center;
position = "{649, 333}";
},
{
name = ogonek;
position = "{1101, 0}";
},
{
name = top;
position = "{649, 686}";
}
);
layerId = "EB38A4D2-CD30-49BA-8E45-1F04A566FFE8";
paths = (
{
closed = 1;
nodes = (
"1101 0 LINE",
"1101 251 LINE",
"958 251 LINE",
"958 127 LINE",
"458 127 LINE SMOOTH",
"355 127 OFFCURVE",
"202 154 OFFCURVE",
"202 344 CURVE SMOOTH",
"202 536 OFFCURVE",
"355 560 OFFCURVE",
"458 560 CURVE SMOOTH",
"958 560 LINE",
"958 435 LINE",
"1101 435 LINE",
"1101 686 LINE",
"418 686 LINE SMOOTH",
"230 686 OFFCURVE",
"33 592 OFFCURVE",
"33 344 CURVE SMOOTH",
"33 98 OFFCURVE",
"230 0 OFFCURVE",
"418 0 CURVE SMOOTH"
);
},
{
closed = 1;
nodes = (
"672 70 LINE",
"672 605 LINE",
"510 605 LINE",
"510 70 LINE"
);
},
{
closed = 1;
nodes = (
"837 272 LINE",
"837 398 LINE",
"569 398 LINE",
"569 272 LINE"
);
},
{
closed = 1;
nodes = (
"891 199 LINE",
"891 471 LINE",
"765 471 LINE",
"765 199 LINE"
);
}
);
width = 1167;
},
{
anchors = (
{
name = bottom;
position = "{1054, 0}";
},
{
name = center;
position = "{1054, 333}";
},
{
name = ogonek;
position = "{1861, 0}";
},
{
name = top;
position = "{1054, 686}";
}
);
background = {
paths = (
{
closed = 1;
nodes = (
"1791 0 LINE",
"1791 283 LINE",
"1628 283 LINE",
"1628 144 LINE",
"681 144 LINE",
"681 0 LINE"
);
},
{
closed = 1;
nodes = (
"1060 79 LINE",
"1060 593 LINE",
"877 593 LINE",
"877 79 LINE"
);
},
{
closed = 1;
nodes = (
"1386 285 LINE",
"1386 403 LINE",
"940 403 LINE",
"940 285 LINE"
);
},
{
closed = 1;
nodes = (
"1446 211 LINE",
"1446 477 LINE",
"1302 477 LINE",
"1302 211 LINE"
);
},
{
closed = 1;
nodes = (
"1791 403 LINE",
"1791 686 LINE",
"681 686 LINE",
"681 542 LINE",
"1628 542 LINE",
"1628 403 LINE"
);
}
);
};
layerId = "816E4B99-7363-45E2-A2DF-0C5A75075B59";
paths = (
{
closed = 1;
nodes = (
"1861 0 LINE",
"1861 282 LINE",
"1698 282 LINE",
"1698 144 LINE",
"589 144 LINE SMOOTH",
"480 144 OFFCURVE",
"248 153 OFFCURVE",
"248 352 CURVE SMOOTH",
"248 553 OFFCURVE",
"480 541 OFFCURVE",
"589 541 CURVE SMOOTH",
"1698 541 LINE",
"1698 401 LINE",
"1861 401 LINE",
"1861 686 LINE",
"541 686 LINE SMOOTH",
"334 686 OFFCURVE",
"53 615 OFFCURVE",
"53 352 CURVE SMOOTH",
"53 88 OFFCURVE",
"334 0 OFFCURVE",
"541 0 CURVE SMOOTH"
);
},
{
closed = 1;
nodes = (
"1061 79 LINE",
"1061 593 LINE",
"877 593 LINE",
"877 79 LINE"
);
},
{
closed = 1;
nodes = (
"1428 285 LINE",
"1428 403 LINE",
"941 403 LINE",
"941 285 LINE"
);
},
{
closed = 1;
nodes = (
"1489 211 LINE",
"1489 477 LINE",
"1345 477 LINE",
"1345 211 LINE"
);
}
);
width = 1965;
}
);
leftKerningGroup = O;
leftMetricsKey = "=O";
rightKerningGroup = E;
rightMetricsKey = "=E";
unicode = 0152;
},
{
glyphname = P;
lastChange = "2016-06-09 21:10:38 +0000";
layers = (
{
anchors = (
{
name = bottom;
position = "{331, 0}";
},
{
name = top;
position = "{609, 686}";
}
);
background = {
paths = (
{
closed = 1;
nodes = (
"348 18 LINE",
"348 629 LINE",
"315 629 LINE",
"315 18 LINE"
);
},
{
closed = 1;
nodes = (
"601 0 LINE",
"601 31 LINE",
"74 31 LINE",
"74 0 LINE"
);
},
{
closed = 1;
nodes = (
"916 255 LINE SMOOTH",
"1064 255 OFFCURVE",
"1154 341 OFFCURVE",
"1154 449 CURVE SMOOTH",
"1154 569 OFFCURVE",
"1062 647 OFFCURVE",
"916 647 CURVE SMOOTH",
"74 647 LINE",
"74 616 LINE",
"925 616 LINE SMOOTH",
"1043 616 OFFCURVE",
"1121 548 OFFCURVE",
"1121 449 CURVE SMOOTH",
"1121 352 OFFCURVE",
"1038 285 OFFCURVE",
"925 285 CURVE SMOOTH",
"331 285 LINE",
"331 255 LINE"
);
}
);
};
layerId = "B29C398E-974A-40D0-A0A0-00935056D4B4";
paths = (
{
closed = 1;
nodes = (
"916 282 LINE SMOOTH",
"1064 282 OFFCURVE",
"1154 367 OFFCURVE",
"1154 482 CURVE SMOOTH",
"1154 608 OFFCURVE",
"1062 686 OFFCURVE",
"916 686 CURVE SMOOTH",
"74 686 LINE",
"74 655 LINE",
"925 655 LINE SMOOTH",
"1043 655 OFFCURVE",
"1121 587 OFFCURVE",
"1121 482 CURVE SMOOTH",
"1121 378 OFFCURVE",
"1038 313 OFFCURVE",
"925 313 CURVE SMOOTH",
"331 313 LINE",
"331 282 LINE"
);
},
{
closed = 1;
nodes = (
"601 0 LINE",
"601 31 LINE",
"74 31 LINE",
"74 0 LINE"
);
},
{
closed = 1;
nodes = (
"348 18 LINE",
"348 669 LINE",
"315 669 LINE",
"315 18 LINE"
);
}
);
width = 1233;
},
{
anchors = (
{
name = bottom;
position = "{205, 0}";
},
{
name = top;
position = "{361, 686}";
}
);
layerId = "543F9737-16F7-428D-9F96-2EBD9FC8D3B6";
paths = (
{
closed = 1;
nodes = (
"415 282 LINE SMOOTH",
"569 282 OFFCURVE",
"671 351 OFFCURVE",
"671 483 CURVE SMOOTH",
"671 615 OFFCURVE",
"569 686 OFFCURVE",
"415 686 CURVE SMOOTH",
"40 686 LINE",
"40 655 LINE",
"415 655 LINE SMOOTH",
"541 655 OFFCURVE",
"638 602 OFFCURVE",
"638 483 CURVE SMOOTH",
"638 364 OFFCURVE",
"541 313 OFFCURVE",
"415 313 CURVE SMOOTH",
"211 313 LINE",
"211 282 LINE"
);
},
{
closed = 1;
nodes = (
"377 0 LINE",
"377 31 LINE",
"40 31 LINE",
"40 0 LINE"
);
},
{
closed = 1;
nodes = (
"222 18 LINE",
"222 669 LINE",
"189 669 LINE",
"189 18 LINE"
);
}
);
width = 730;
},
{
anchors = (
{
name = bottom;
position = "{229, 0}";
},
{
name = top;
position = "{377, 686}";
}
);
layerId = "EB38A4D2-CD30-49BA-8E45-1F04A566FFE8";
paths = (
{
closed = 1;
nodes = (
"438 232 LINE SMOOTH",
"605 232 OFFCURVE",
"712 326 OFFCURVE",
"712 464 CURVE SMOOTH",
"712 598 OFFCURVE",
"601 686 OFFCURVE",
"436 686 CURVE SMOOTH",
"33 686 LINE",
"33 559 LINE",
"425 559 LINE SMOOTH",
"484 559 OFFCURVE",
"552 541 OFFCURVE",
"552 466 CURVE SMOOTH",
"552 374 OFFCURVE",
"483 359 OFFCURVE",
"429 359 CURVE SMOOTH",
"251 361 LINE",
"251 232 LINE"
);
},
{
closed = 1;
nodes = (
"427 0 LINE",
"427 127 LINE",
"33 127 LINE",
"33 0 LINE"
);
},
{
closed = 1;
nodes = (
"304 70 LINE",
"304 618 LINE",
"145 618 LINE",
"145 70 LINE"
);
}
);
width = 738;
},
{
anchors = (
{
name = bottom;
position = "{356, 0}";
},
{
name = top;
position = "{624, 686}";
}
);
layerId = "816E4B99-7363-45E2-A2DF-0C5A75075B59";
paths = (
{
closed = 1;
nodes = (
"881 241 LINE SMOOTH",
"1083 241 OFFCURVE",
"1197 322 OFFCURVE",
"1197 465 CURVE SMOOTH",
"1197 606 OFFCURVE",
"1083 686 OFFCURVE",
"881 686 CURVE SMOOTH",
"60 686 LINE",
"60 542 LINE",
"871 542 LINE SMOOTH",
"958 542 OFFCURVE",
"1007 513 OFFCURVE",
"1007 461 CURVE SMOOTH",
"1007 410 OFFCURVE",
"958 381 OFFCURVE",
"871 381 CURVE SMOOTH",
"373 381 LINE",
"373 241 LINE"
);
},
{
closed = 1;
nodes = (
"652 0 LINE",
"652 144 LINE",
"60 144 LINE",
"60 0 LINE"
);
},
{
closed = 1;
nodes = (
"442 79 LINE",
"442 609 LINE",
"257 609 LINE",
"257 79 LINE"
);
}
);
width = 1232;
}
);
leftKerningGroup = H;
leftMetricsKey = "=H";
rightKerningGroup = P;
unicode = 0050;
},
{
glyphname = Thorn;
lastChange = "2016-06-09 20:36:13 +0000";
layers = (
{
background = {
paths = (
{
closed = 1;
nodes = (
"601 0 LINE SMOOTH",
"601 31 LINE SMOOTH",
"74 31 LINE SMOOTH",
"74 0 LINE SMOOTH"
);
}
);
};
layerId = "B29C398E-974A-40D0-A0A0-00935056D4B4";
paths = (
{
closed = 1;
nodes = (
"887 189 LINE SMOOTH",
"1009 189 OFFCURVE",
"1085 249 OFFCURVE",
"1085 343 CURVE SMOOTH",
"1085 438 OFFCURVE",
"1009 497 OFFCURVE",
"887 497 CURVE SMOOTH",
"329 497 LINE",
"329 468 LINE",
"897 468 LINE SMOOTH",
"983 468 OFFCURVE",
"1052 427 OFFCURVE",
"1052 343 CURVE SMOOTH",
"1052 260 OFFCURVE",
"983 219 OFFCURVE",
"897 219 CURVE SMOOTH",
"329 219 LINE",
"329 189 LINE"
);
},
{
closed = 1;
nodes = (
"587 0 LINE",
"587 31 LINE",
"336 31 LINE",
"325 31 LINE",
"74 31 LINE",
"74 0 LINE"
);
},
{
closed = 1;
nodes = (
"348 18 LINE SMOOTH",
"348 669 LINE SMOOTH",
"315 669 LINE SMOOTH",
"315 18 LINE SMOOTH"
);
},
{
closed = 1;
nodes = (
"322 656 LINE",
"331 656 LINE",
"587 656 LINE SMOOTH",
"587 686 LINE SMOOTH",
"74 686 LINE SMOOTH",
"74 656 LINE SMOOTH"
);
}
);
width = 1164;
},
{
layerId = "543F9737-16F7-428D-9F96-2EBD9FC8D3B6";
paths = (
{
closed = 1;
nodes = (
"458 187 LINE SMOOTH",
"586 187 OFFCURVE",
"671 240 OFFCURVE",
"671 341 CURVE SMOOTH",
"671 441 OFFCURVE",
"586 496 OFFCURVE",
"458 496 CURVE SMOOTH",
"199 496 LINE",
"199 466 LINE",
"458 466 LINE SMOOTH",
"567 466 OFFCURVE",
"638 422 OFFCURVE",
"638 342 CURVE SMOOTH",
"638 262 OFFCURVE",
"567 218 OFFCURVE",
"458 218 CURVE SMOOTH",
"199 218 LINE",
"199 187 LINE"
);
},
{
closed = 1;
nodes = (
"377 0 LINE",
"377 31 LINE",
"209 31 LINE",
"199 31 LINE",
"40 31 LINE",
"40 0 LINE"
);
},
{
closed = 1;
nodes = (
"222 18 LINE",
"222 671 LINE",
"189 671 LINE",
"189 18 LINE"
);
},
{
closed = 1;
nodes = (
"196 656 LINE",
"210 656 LINE",
"377 656 LINE",
"377 686 LINE",
"40 686 LINE",
"40 656 LINE"
);
}
);
width = 711;
},
{
layerId = "EB38A4D2-CD30-49BA-8E45-1F04A566FFE8";
paths = (
{
closed = 1;
nodes = (
"473 176 LINE SMOOTH",
"603 177 OFFCURVE",
"701 230 OFFCURVE",
"701 342 CURVE SMOOTH",
"701 457 OFFCURVE",
"603 507 OFFCURVE",
"473 507 CURVE SMOOTH",
"244 507 LINE",
"244 396 LINE",
"448 396 LINE SMOOTH",
"494 396 OFFCURVE",
"540 389 OFFCURVE",
"540 342 CURVE SMOOTH",
"540 288 OFFCURVE",
"488 284 OFFCURVE",
"448 284 CURVE SMOOTH",
"243 284 LINE",
"243 174 LINE"
);
},
{
closed = 1;
nodes = (
"407 0 LINE",
"407 113 LINE",
"272 113 LINE",
"272 127 LINE",
"33 127 LINE",
"33 0 LINE"
);
},
{
closed = 1;
nodes = (
"290 70 LINE",
"290 618 LINE",
"139 618 LINE",
"139 70 LINE"
);
},
{
closed = 1;
nodes = (
"262 560 LINE",
"262 573 LINE",
"407 573 LINE",
"407 686 LINE",
"33 686 LINE",
"33 560 LINE"
);
}
);
width = 707;
},
{
layerId = "816E4B99-7363-45E2-A2DF-0C5A75075B59";
paths = (
{
closed = 1;
nodes = (
"911 175 LINE SMOOTH",
"1035 176 OFFCURVE",
"1128 236 OFFCURVE",
"1128 344 CURVE SMOOTH",
"1128 457 OFFCURVE",
"1035 510 OFFCURVE",
"911 510 CURVE SMOOTH",
"388 510 LINE",
"388 384 LINE",
"868 384 LINE SMOOTH",
"916 384 OFFCURVE",
"943 369 OFFCURVE",
"943 343 CURVE SMOOTH",
"943 310 OFFCURVE",
"916 297 OFFCURVE",
"868 297 CURVE SMOOTH",
"387 297 LINE",
"387 174 LINE"
);
},
{
closed = 1;
nodes = (
"630 0 LINE",
"630 128 LINE",
"392 128 LINE",
"394 144 LINE",
"60 144 LINE",
"60 0 LINE"
);
},
{
closed = 1;
nodes = (
"435 79 LINE SMOOTH",
"435 606 LINE SMOOTH",
"257 606 LINE SMOOTH",
"257 79 LINE SMOOTH"
);
},
{
closed = 1;
nodes = (
"382 541 LINE",
"381 558 LINE",
"630 558 LINE SMOOTH",
"630 686 LINE SMOOTH",
"60 686 LINE SMOOTH",
"60 541 LINE SMOOTH"
);
}
);
width = 1157;
}
);
leftKerningGroup = H;
leftMetricsKey = "=I";
rightKerningGroup = Thorn;
unicode = 00DE;
},
{
glyphname = Q;
lastChange = "2016-06-09 21:08:04 +0000";
layers = (
{
anchors = (
{
name = bottom;
position = "{605, -14}";
},
{
name = top;
position = "{605, 700}";
}
);
background = {
paths = (
{
closed = 1;
nodes = (
"890 -26 OFFCURVE",
"1110 103 OFFCURVE",
"1110 328 CURVE",
"1110 550 OFFCURVE",
"890 681 OFFCURVE",
"605 681 CURVE",
"319 681 OFFCURVE",
"99 550 OFFCURVE",
"99 328 CURVE",
"99 103 OFFCURVE",
"319 -26 OFFCURVE",
"605 -26 CURVE"
);
},
{
closed = 1;
nodes = (
"332 4 OFFCURVE",
"132 127 OFFCURVE",
"132 328 CURVE",
"132 528 OFFCURVE",
"332 651 OFFCURVE",
"605 651 CURVE",
"876 651 OFFCURVE",
"1077 528 OFFCURVE",
"1077 328 CURVE",
"1077 127 OFFCURVE",
"876 4 OFFCURVE",
"605 4 CURVE"
);
}
);
};
layerId = "B29C398E-974A-40D0-A0A0-00935056D4B4";
paths = (
{
closed = 1;
nodes = (
"1093 -209 OFFCURVE",
"1176 -131 OFFCURVE",
"1190 -18 CURVE",
"1161 -12 LINE",
"1147 -114 OFFCURVE",
"1074 -178 OFFCURVE",
"971 -178 CURVE SMOOTH",
"869 -178 OFFCURVE",
"794 -106 OFFCURVE",
"704 2 CURVE SMOOTH",
"680 31 LINE SMOOTH",
"557 177 OFFCURVE",
"469 295 OFFCURVE",
"237 295 CURVE SMOOTH",
"130 295 LINE",
"130 264 LINE",
"237 264 LINE SMOOTH",
"450 264 OFFCURVE",
"540 150 OFFCURVE",
"647 22 CURVE SMOOTH",
"664 1 LINE SMOOTH",
"773 -131 OFFCURVE",
"850 -209 OFFCURVE",
"971 -209 CURVE SMOOTH"
);
},
{
closed = 1;
nodes = (
"890 -13 OFFCURVE",
"1110 117 OFFCURVE",
"1110 343 CURVE",
"1110 569 OFFCURVE",
"890 700 OFFCURVE",
"605 700 CURVE",
"319 700 OFFCURVE",
"99 569 OFFCURVE",
"99 343 CURVE",
"99 117 OFFCURVE",
"319 -13 OFFCURVE",
"605 -13 CURVE"
);
},
{
closed = 1;
nodes = (
"332 18 OFFCURVE",
"132 140 OFFCURVE",
"132 343 CURVE",
"132 547 OFFCURVE",
"332 669 OFFCURVE",
"605 669 CURVE",
"876 669 OFFCURVE",
"1077 547 OFFCURVE",
"1077 343 CURVE",
"1077 140 OFFCURVE",
"876 18 OFFCURVE",
"605 18 CURVE"
);
}
);
width = 1209;
},
{
anchors = (
{
name = bottom;
position = "{407, -14}";
},
{
name = top;
position = "{407, 700}";
}
);
layerId = "543F9737-16F7-428D-9F96-2EBD9FC8D3B6";
paths = (
{
closed = 1;
nodes = (
"715 -121 OFFCURVE",
"738 -120 OFFCURVE",
"752 -114 CURVE",
"748 -86 LINE",
"738 -89 OFFCURVE",
"715 -90 OFFCURVE",
"693 -90 CURVE SMOOTH",
"586 -90 OFFCURVE",
"530 -8 OFFCURVE",
"460 118 CURVE SMOOTH",
"431 169 LINE SMOOTH",
"354 310 OFFCURVE",
"305 370 OFFCURVE",
"139 370 CURVE SMOOTH",
"91 370 LINE",
"91 339 LINE",
"139 339 LINE SMOOTH",
"298 339 OFFCURVE",
"334 277 OFFCURVE",
"398 161 CURVE SMOOTH",
"428 107 LINE SMOOTH",
"507 -39 OFFCURVE",
"574 -121 OFFCURVE",
"693 -121 CURVE SMOOTH"
);
},
{
closed = 1;
nodes = (
"589 -13 OFFCURVE",
"740 118 OFFCURVE",
"740 343 CURVE",
"740 569 OFFCURVE",
"589 700 OFFCURVE",
"407 700 CURVE",
"223 700 OFFCURVE",
"73 569 OFFCURVE",
"73 343 CURVE",
"73 118 OFFCURVE",
"223 -13 OFFCURVE",
"407 -13 CURVE"
);
},
{
closed = 1;
nodes = (
"237 18 OFFCURVE",
"106 141 OFFCURVE",
"106 343 CURVE",
"106 546 OFFCURVE",
"237 669 OFFCURVE",
"407 669 CURVE",
"575 669 OFFCURVE",
"707 546 OFFCURVE",
"707 343 CURVE",
"707 141 OFFCURVE",
"575 18 OFFCURVE",
"407 18 CURVE"
);
}
);
width = 813;
},
{
anchors = (
{
name = bottom;
position = "{407, -14}";
},
{
name = top;
position = "{407, 700}";
}
);
layerId = "EB38A4D2-CD30-49BA-8E45-1F04A566FFE8";
paths = (
{
closed = 1;
nodes = (
"746 -110 OFFCURVE",
"781 -101 OFFCURVE",
"804 -94 CURVE",
"785 25 LINE",
"768 21 OFFCURVE",
"750 19 OFFCURVE",
"725 19 CURVE",
"668 19 OFFCURVE",
"609 46 OFFCURVE",
"554 164 CURVE SMOOTH",
"521 233 LINE SMOOTH",
"454 376 OFFCURVE",
"356 403 OFFCURVE",
"253 403 CURVE SMOOTH",
"178 403 LINE",
"178 288 LINE",
"253 288 LINE SMOOTH",
"323 288 OFFCURVE",
"359 259 OFFCURVE",
"394 183 CURVE SMOOTH",
"424 114 LINE SMOOTH",
"497 -48 OFFCURVE",
"601 -110 OFFCURVE",
"702 -110 CURVE SMOOTH"
);
},
{
closed = 1;
nodes = (
"623 -13 OFFCURVE",
"781 145 OFFCURVE",
"781 343 CURVE SMOOTH",
"781 541 OFFCURVE",
"623 700 OFFCURVE",
"408 700 CURVE SMOOTH",
"191 700 OFFCURVE",
"33 541 OFFCURVE",
"33 343 CURVE SMOOTH",
"33 145 OFFCURVE",
"191 -13 OFFCURVE",
"408 -13 CURVE SMOOTH"
);
},
{
closed = 1;
nodes = (
"273 112 OFFCURVE",
"197 217 OFFCURVE",
"197 343 CURVE SMOOTH",
"197 468 OFFCURVE",
"273 575 OFFCURVE",
"407 575 CURVE SMOOTH",
"541 575 OFFCURVE",
"617 470 OFFCURVE",
"617 343 CURVE SMOOTH",
"617 219 OFFCURVE",
"541 112 OFFCURVE",
"407 112 CURVE SMOOTH"
);
}
);
width = 814;
},
{
anchors = (
{
name = bottom;
position = "{607, -14}";
},
{
name = top;
position = "{607, 700}";
}
);
layerId = "816E4B99-7363-45E2-A2DF-0C5A75075B59";
paths = (
{
closed = 1;
nodes = (
"1106 -211 OFFCURVE",
"1199 -131 OFFCURVE",
"1223 -27 CURVE",
"1092 15 LINE",
"1075 -38 OFFCURVE",
"1030 -68 OFFCURVE",
"974 -68 CURVE SMOOTH",
"910 -68 OFFCURVE",
"858 -28 OFFCURVE",
"806 58 CURVE SMOOTH",
"706 223 LINE SMOOTH",
"604 391 OFFCURVE",
"496 441 OFFCURVE",
"318 441 CURVE SMOOTH",
"210 441 LINE",
"210 312 LINE",
"318 312 LINE SMOOTH",
"449 312 OFFCURVE",
"507 245 OFFCURVE",
"561 153 CURVE SMOOTH",
"645 11 LINE SMOOTH",
"741 -149 OFFCURVE",
"848 -211 OFFCURVE",
"972 -211 CURVE SMOOTH"
);
},
{
closed = 1;
nodes = (
"941 -13 OFFCURVE",
"1160 149 OFFCURVE",
"1160 343 CURVE",
"1160 536 OFFCURVE",
"941 700 OFFCURVE",
"607 700 CURVE",
"274 700 OFFCURVE",
"53 536 OFFCURVE",
"53 343 CURVE",
"53 149 OFFCURVE",
"274 -13 OFFCURVE",
"607 -13 CURVE"
);
},
{
closed = 1;
nodes = (
"379 122 OFFCURVE",
"240 215 OFFCURVE",
"240 343 CURVE",
"240 480 OFFCURVE",
"379 565 OFFCURVE",
"606 565 CURVE",
"833 565 OFFCURVE",
"967 471 OFFCURVE",
"967 343 CURVE",
"967 216 OFFCURVE",
"833 122 OFFCURVE",
"606 122 CURVE"
);
}
);
width = 1213;
}
);
leftKerningGroup = O;
leftMetricsKey = "=O";
rightKerningGroup = O;
unicode = 0051;
},
{
glyphname = Q.swsh;
lastChange = "2016-06-09 23:36:38 +0000";
layers = (
{
anchors = (
{
name = bottom;
position = "{605, -14}";
},
{
name = top;
position = "{605, 700}";
}
);
background = {
paths = (
{
closed = 1;
nodes = (
"717 259 OFFCURVE",
"572 350 OFFCURVE",
"178 350 CURVE SMOOTH",
"117 350 LINE",
"117 319 LINE",
"178 319 LINE SMOOTH",
"528 319 OFFCURVE",
"675 252 OFFCURVE",
"879 -1 CURVE SMOOTH",
"1102 -283 OFFCURVE",
"1263 -463 OFFCURVE",
"1532 -463 CURVE SMOOTH",
"1717 -463 OFFCURVE",
"1837 -403 OFFCURVE",
"1940 -309 CURVE",
"1920 -285 LINE",
"1826 -371 OFFCURVE",
"1712 -433 OFFCURVE",
"1532 -433 CURVE SMOOTH",
"1291 -433 OFFCURVE",
"1133 -271 OFFCURVE",
"920 0 CURVE SMOOTH"
);
},
{
closed = 1;
nodes = (
"890 -26 OFFCURVE",
"1110 103 OFFCURVE",
"1110 328 CURVE",
"1110 550 OFFCURVE",
"890 681 OFFCURVE",
"605 681 CURVE",
"319 681 OFFCURVE",
"99 550 OFFCURVE",
"99 328 CURVE",
"99 103 OFFCURVE",
"319 -26 OFFCURVE",
"605 -26 CURVE"
);
},
{
closed = 1;
nodes = (
"332 4 OFFCURVE",
"132 127 OFFCURVE",
"132 328 CURVE",
"132 528 OFFCURVE",
"332 651 OFFCURVE",
"605 651 CURVE",
"876 651 OFFCURVE",
"1077 528 OFFCURVE",
"1077 328 CURVE",
"1077 127 OFFCURVE",
"876 4 OFFCURVE",
"605 4 CURVE"
);
}
);
};
guideLines = (
{
position = "{803, 35}";
}
);
layerId = "B29C398E-974A-40D0-A0A0-00935056D4B4";
paths = (
{
closed = 1;
nodes = (
"1796 -370 OFFCURVE",
"1928 -299 OFFCURVE",
"2015 -243 CURVE",
"1999 -218 LINE",
"1918 -272 OFFCURVE",
"1791 -339 OFFCURVE",
"1606 -339 CURVE SMOOTH",
"1384 -339 OFFCURVE",
"1210 -233 OFFCURVE",
"952 26 CURVE SMOOTH",
"735 244 OFFCURVE",
"572 350 OFFCURVE",
"244 350 CURVE SMOOTH",
"117 350 LINE",
"117 319 LINE",
"244 319 LINE SMOOTH",
"543 319 OFFCURVE",
"702 230 OFFCURVE",
"905 25 CURVE SMOOTH",
"1173 -244 OFFCURVE",
"1355 -370 OFFCURVE",
"1606 -370 CURVE SMOOTH"
);
},
{
closed = 1;
nodes = (
"890 -13 OFFCURVE",
"1110 117 OFFCURVE",
"1110 343 CURVE",
"1110 569 OFFCURVE",
"890 700 OFFCURVE",
"605 700 CURVE",
"319 700 OFFCURVE",
"99 569 OFFCURVE",
"99 343 CURVE",
"99 117 OFFCURVE",
"319 -13 OFFCURVE",
"605 -13 CURVE"
);
},
{
closed = 1;
nodes = (
"332 18 OFFCURVE",
"132 140 OFFCURVE",
"132 343 CURVE",
"132 547 OFFCURVE",
"332 669 OFFCURVE",
"605 669 CURVE",
"876 669 OFFCURVE",
"1077 547 OFFCURVE",
"1077 343 CURVE",
"1077 140 OFFCURVE",
"876 18 OFFCURVE",
"605 18 CURVE"
);
}
);
width = 1201;
},
{
anchors = (
{
name = bottom;
position = "{407, -14}";
},
{
name = top;
position = "{407, 700}";
}
);
layerId = "543F9737-16F7-428D-9F96-2EBD9FC8D3B6";
paths = (
{
closed = 1;
nodes = (
"1186 -249 OFFCURVE",
"1261 -218 OFFCURVE",
"1318 -179 CURVE",
"1301 -154 LINE",
"1249 -190 OFFCURVE",
"1175 -218 OFFCURVE",
"1089 -218 CURVE SMOOTH",
"939 -218 OFFCURVE",
"812 -138 OFFCURVE",
"634 80 CURVE SMOOTH",
"443 312 OFFCURVE",
"325 334 OFFCURVE",
"125 334 CURVE SMOOTH",
"91 334 LINE",
"91 304 LINE",
"125 304 LINE SMOOTH",
"325 304 OFFCURVE",
"428 282 OFFCURVE",
"598 73 CURVE SMOOTH",
"791 -163 OFFCURVE",
"926 -249 OFFCURVE",
"1089 -249 CURVE SMOOTH"
);
},
{
closed = 1;
nodes = (
"589 -13 OFFCURVE",
"740 118 OFFCURVE",
"740 343 CURVE",
"740 569 OFFCURVE",
"589 700 OFFCURVE",
"407 700 CURVE",
"223 700 OFFCURVE",
"73 569 OFFCURVE",
"73 343 CURVE",
"73 118 OFFCURVE",
"223 -13 OFFCURVE",
"407 -13 CURVE"
);
},
{
closed = 1;
nodes = (
"237 19 OFFCURVE",
"105 141 OFFCURVE",
"105 343 CURVE",
"105 546 OFFCURVE",
"237 668 OFFCURVE",
"407 668 CURVE",
"575 668 OFFCURVE",
"708 546 OFFCURVE",
"708 343 CURVE",
"708 141 OFFCURVE",
"575 19 OFFCURVE",
"407 19 CURVE"
);
}
);
width = 821;
},
{
anchors = (
{
name = bottom;
position = "{408, -14}";
},
{
name = top;
position = "{408, 700}";
}
);
layerId = "EB38A4D2-CD30-49BA-8E45-1F04A566FFE8";
paths = (
{
closed = 1;
nodes = (
"1164 -264 OFFCURVE",
"1255 -224 OFFCURVE",
"1318 -179 CURVE",
"1258 -68 LINE",
"1199 -109 OFFCURVE",
"1140 -133 OFFCURVE",
"1060 -133 CURVE SMOOTH",
"942 -133 OFFCURVE",
"853 -58 OFFCURVE",
"725 78 CURVE SMOOTH",
"529 286 OFFCURVE",
"453 375 OFFCURVE",
"186 375 CURVE SMOOTH",
"130 375 LINE",
"130 260 LINE",
"190 260 LINE SMOOTH",
"381 260 OFFCURVE",
"437 184 OFFCURVE",
"598 14 CURVE SMOOTH",
"779 -176 OFFCURVE",
"913 -264 OFFCURVE",
"1060 -264 CURVE SMOOTH"
);
},
{
closed = 1;
nodes = (
"623 -13 OFFCURVE",
"781 145 OFFCURVE",
"781 343 CURVE SMOOTH",
"781 541 OFFCURVE",
"623 700 OFFCURVE",
"408 700 CURVE SMOOTH",
"191 700 OFFCURVE",
"33 541 OFFCURVE",
"33 343 CURVE SMOOTH",
"33 145 OFFCURVE",
"191 -13 OFFCURVE",
"408 -13 CURVE SMOOTH"
);
},
{
closed = 1;
nodes = (
"273 112 OFFCURVE",
"197 217 OFFCURVE",
"197 343 CURVE SMOOTH",
"197 468 OFFCURVE",
"273 575 OFFCURVE",
"407 575 CURVE SMOOTH",
"541 575 OFFCURVE",
"617 470 OFFCURVE",
"617 343 CURVE SMOOTH",
"617 219 OFFCURVE",
"541 112 OFFCURVE",
"407 112 CURVE SMOOTH"
);
}
);
width = 825;
},
{
anchors = (
{
name = bottom;
position = "{606, -14}";
},
{
name = top;
position = "{606, 700}";
}
);
background = {
paths = (
{
closed = 1;
nodes = (
"1106 -211 OFFCURVE",
"1199 -131 OFFCURVE",
"1223 -27 CURVE",
"1092 15 LINE",
"1075 -38 OFFCURVE",
"1030 -68 OFFCURVE",
"974 -68 CURVE SMOOTH",
"910 -68 OFFCURVE",
"858 -28 OFFCURVE",
"806 58 CURVE SMOOTH",
"706 223 LINE SMOOTH",
"604 391 OFFCURVE",
"496 441 OFFCURVE",
"318 441 CURVE SMOOTH",
"210 441 LINE",
"210 312 LINE",
"318 312 LINE SMOOTH",
"449 312 OFFCURVE",
"507 245 OFFCURVE",
"561 153 CURVE SMOOTH",
"645 11 LINE SMOOTH",
"741 -149 OFFCURVE",
"848 -211 OFFCURVE",
"972 -211 CURVE SMOOTH"
);
},
{
closed = 1;
nodes = (
"941 -13 OFFCURVE",
"1160 149 OFFCURVE",
"1160 343 CURVE",
"1160 536 OFFCURVE",
"941 700 OFFCURVE",
"607 700 CURVE",
"274 700 OFFCURVE",
"53 536 OFFCURVE",
"53 343 CURVE",
"53 149 OFFCURVE",
"274 -13 OFFCURVE",
"607 -13 CURVE"
);
},
{
closed = 1;
nodes = (
"379 122 OFFCURVE",
"240 215 OFFCURVE",
"240 343 CURVE",
"240 480 OFFCURVE",
"379 565 OFFCURVE",
"606 565 CURVE",
"833 565 OFFCURVE",
"967 471 OFFCURVE",
"967 343 CURVE",
"967 216 OFFCURVE",
"833 122 OFFCURVE",
"606 122 CURVE"
);
}
);
};
layerId = "816E4B99-7363-45E2-A2DF-0C5A75075B59";
paths = (
{
closed = 1;
nodes = (
"1772 -431 OFFCURVE",
"1923 -351 OFFCURVE",
"2016 -286 CURVE",
"1948 -158 LINE",
"1860 -219 OFFCURVE",
"1751 -282 OFFCURVE",
"1573 -282 CURVE SMOOTH",
"1386 -282 OFFCURVE",
"1241 -163 OFFCURVE",
"1041 44 CURVE SMOOTH",
"846 258 OFFCURVE",
"725 428 OFFCURVE",
"317 428 CURVE SMOOTH",
"162 428 LINE",
"162 299 LINE",
"322 299 LINE SMOOTH",
"612 299 OFFCURVE",
"721 160 OFFCURVE",
"886 -24 CURVE SMOOTH",
"1140 -311 OFFCURVE",
"1317 -431 OFFCURVE",
"1573 -431 CURVE SMOOTH"
);
},
{
closed = 1;
nodes = (
"941 -13 OFFCURVE",
"1160 149 OFFCURVE",
"1160 343 CURVE",
"1160 536 OFFCURVE",
"941 700 OFFCURVE",
"607 700 CURVE",
"274 700 OFFCURVE",
"53 536 OFFCURVE",
"53 343 CURVE",
"53 149 OFFCURVE",
"274 -13 OFFCURVE",
"607 -13 CURVE"
);
},
{
closed = 1;
nodes = (
"379 122 OFFCURVE",
"240 215 OFFCURVE",
"240 343 CURVE",
"240 480 OFFCURVE",
"379 565 OFFCURVE",
"606 565 CURVE",
"833 565 OFFCURVE",
"967 471 OFFCURVE",
"967 343 CURVE",
"967 216 OFFCURVE",
"838 122 OFFCURVE",
"606 122 CURVE"
);
}
);
width = 1219;
}
);
leftKerningGroup = O;
leftMetricsKey = "=O";
rightKerningGroup = O;
},
{
glyphname = R;
lastChange = "2016-06-09 23:55:25 +0000";
layers = (
{
anchors = (
{
name = bottom;
position = "{745, 0}";
},
{
name = top;
position = "{692, 686}";
}
);
background = {
paths = (
{
closed = 1;
nodes = (
"596 316 LINE SMOOTH",
"707 316 OFFCURVE",
"767 223 OFFCURVE",
"832 145 CURVE SMOOTH",
"904 58 OFFCURVE",
"986 -48 OFFCURVE",
"1108 -48 CURVE SMOOTH",
"1253 -48 OFFCURVE",
"1335 48 OFFCURVE",
"1335 196 CURVE SMOOTH",
"1335 223 LINE",
"1302 223 LINE",
"1302 196 LINE SMOOTH",
"1302 64 OFFCURVE",
"1229 -19 OFFCURVE",
"1108 -19 CURVE SMOOTH",
"998 -19 OFFCURVE",
"931 79 OFFCURVE",
"859 163 CURVE SMOOTH",
"777 260 OFFCURVE",
"724 334 OFFCURVE",
"581 334 CURVE SMOOTH",
"341 334 LINE",
"341 316 LINE"
);
},
{
closed = 1;
nodes = (
"348 18 LINE",
"348 669 LINE",
"315 669 LINE",
"315 18 LINE"
);
},
{
closed = 1;
nodes = (
"600 0 LINE",
"600 31 LINE",
"74 29 LINE",
"74 -1 LINE"
);
},
{
closed = 1;
nodes = (
"946 318 LINE SMOOTH",
"1110 318 OFFCURVE",
"1188 408 OFFCURVE",
"1188 499 CURVE SMOOTH",
"1188 603 OFFCURVE",
"1109 686 OFFCURVE",
"946 686 CURVE SMOOTH",
"74 686 LINE",
"74 656 LINE",
"946 656 LINE SMOOTH",
"1090 656 OFFCURVE",
"1155 582 OFFCURVE",
"1155 499 CURVE SMOOTH",
"1155 418 OFFCURVE",
"1087 345 OFFCURVE",
"946 345 CURVE SMOOTH",
"341 345 LINE",
"341 318 LINE"
);
}
);
};
layerId = "B29C398E-974A-40D0-A0A0-00935056D4B4";
paths = (
{
closed = 1;
nodes = (
"946 318 LINE SMOOTH",
"1110 318 OFFCURVE",
"1188 408 OFFCURVE",
"1188 499 CURVE SMOOTH",
"1188 603 OFFCURVE",
"1109 686 OFFCURVE",
"946 686 CURVE SMOOTH",
"74 686 LINE",
"74 655 LINE",
"946 655 LINE SMOOTH",
"1090 655 OFFCURVE",
"1155 582 OFFCURVE",
"1155 499 CURVE SMOOTH",
"1155 418 OFFCURVE",
"1087 348 OFFCURVE",
"946 348 CURVE SMOOTH",
"341 348 LINE",
"341 318 LINE"
);
},
{
closed = 1;
nodes = (
"587 0 LINE",
"587 32 LINE",
"74 30 LINE",
"74 -1 LINE"
);
},
{
closed = 1;
nodes = (
"348 18 LINE",
"348 669 LINE",
"315 669 LINE",
"315 18 LINE"
);
},
{
closed = 1;
nodes = (
"1253 -13 OFFCURVE",
"1335 85 OFFCURVE",
"1335 205 CURVE SMOOTH",
"1335 232 LINE",
"1302 232 LINE",
"1302 205 LINE SMOOTH",
"1302 99 OFFCURVE",
"1229 18 OFFCURVE",
"1128 18 CURVE SMOOTH",
"1022 18 OFFCURVE",
"969 88 OFFCURVE",
"891 183 CURVE SMOOTH",
"793 299 OFFCURVE",
"750 334 OFFCURVE",
"607 334 CURVE SMOOTH",
"341 334 LINE",
"341 316 LINE",
"623 316 LINE SMOOTH",
"734 316 OFFCURVE",
"785 265 OFFCURVE",
"864 165 CURVE SMOOTH",
"942 65 OFFCURVE",
"1010 -13 OFFCURVE",
"1128 -13 CURVE SMOOTH"
);
}
);
width = 1380;
},
{
anchors = (
{
name = bottom;
position = "{442, 0}";
},
{
name = top;
position = "{389, 686}";
}
);
background = {
paths = (
{
closed = 1;
nodes = (
"422 318 LINE SMOOTH",
"573 318 OFFCURVE",
"651 408 OFFCURVE",
"651 499 CURVE SMOOTH",
"651 603 OFFCURVE",
"572 686 OFFCURVE",
"422 686 CURVE SMOOTH",
"40 686 LINE",
"40 656 LINE",
"422 656 LINE SMOOTH",
"553 656 OFFCURVE",
"618 582 OFFCURVE",
"618 499 CURVE SMOOTH",
"618 418 OFFCURVE",
"549 345 OFFCURVE",
"422 345 CURVE SMOOTH",
"216 345 LINE",
"216 318 LINE"
);
},
{
closed = 1;
nodes = (
"371 0 LINE",
"371 31 LINE",
"40 29 LINE",
"40 -1 LINE"
);
},
{
closed = 1;
nodes = (
"222 18 LINE",
"222 669 LINE",
"189 669 LINE",
"189 18 LINE"
);
},
{
closed = 1;
nodes = (
"768 33 LINE",
"749 24 OFFCURVE",
"724 18 OFFCURVE",
"695 18 CURVE SMOOTH",
"645 18 OFFCURVE",
"597 47 OFFCURVE",
"551 121 CURVE SMOOTH",
"419 334 LINE",
"385 329 LINE",
"511 121 LINE SMOOTH",
"571 21 OFFCURVE",
"626 -13 OFFCURVE",
"695 -13 CURVE SMOOTH",
"724 -13 OFFCURVE",
"749 -7 OFFCURVE",
"768 0 CURVE"
);
}
);
};
layerId = "543F9737-16F7-428D-9F96-2EBD9FC8D3B6";
paths = (
{
closed = 1;
nodes = (
"422 313 LINE SMOOTH",
"573 313 OFFCURVE",
"651 406 OFFCURVE",
"651 497 CURVE SMOOTH",
"651 601 OFFCURVE",
"572 686 OFFCURVE",
"422 686 CURVE SMOOTH",
"40 686 LINE",
"40 656 LINE",
"422 656 LINE SMOOTH",
"553 656 OFFCURVE",
"618 580 OFFCURVE",
"618 497 CURVE SMOOTH",
"618 416 OFFCURVE",
"549 340 OFFCURVE",
"422 340 CURVE SMOOTH",
"216 340 LINE",
"216 313 LINE"
);
},
{
closed = 1;
nodes = (
"371 0 LINE",
"371 31 LINE",
"40 29 LINE",
"40 -1 LINE"
);
},
{
closed = 1;
nodes = (
"222 18 LINE",
"222 669 LINE",
"189 669 LINE",
"189 18 LINE"
);
},
{
closed = 1;
nodes = (
"692 -13 OFFCURVE",
"721 -3 OFFCURVE",
"739 6 CURVE",
"729 36 LINE",
"711 27 OFFCURVE",
"690 19 OFFCURVE",
"655 19 CURVE SMOOTH",
"580 19 OFFCURVE",
"537 56 OFFCURVE",
"493 170 CURVE SMOOTH",
"431 329 LINE",
"397 324 LINE",
"456 169 LINE SMOOTH",
"508 33 OFFCURVE",
"559 -13 OFFCURVE",
"655 -13 CURVE SMOOTH"
);
}
);
width = 769;
},
{
anchors = (
{
name = bottom;
position = "{475, 0}";
},
{
name = top;
position = "{422, 686}";
}
);
background = {
paths = (
{
closed = 1;
nodes = (
"458 273 LINE SMOOTH",
"618 273 OFFCURVE",
"718 345 OFFCURVE",
"718 481 CURVE SMOOTH",
"718 615 OFFCURVE",
"605 686 OFFCURVE",
"444 686 CURVE SMOOTH",
"33 686 LINE",
"33 560 LINE",
"449 560 LINE SMOOTH",
"497 560 OFFCURVE",
"557 543 OFFCURVE",
"557 481 CURVE SMOOTH",
"557 411 OFFCURVE",
"494 392 OFFCURVE",
"449 392 CURVE SMOOTH",
"251 392 LINE",
"251 273 LINE"
);
},
{
closed = 1;
nodes = (
"414 0 LINE",
"414 127 LINE",
"33 128 LINE",
"33 0 LINE"
);
},
{
closed = 1;
nodes = (
"308 70 LINE",
"308 613 LINE",
"145 613 LINE",
"145 70 LINE"
);
},
{
closed = 1;
nodes = (
"788 130 LINE",
"774 125 OFFCURVE",
"756 122 OFFCURVE",
"735 122 CURVE SMOOTH",
"689 122 OFFCURVE",
"655 140 OFFCURVE",
"627 190 CURVE SMOOTH",
"562 306 LINE",
"440 289 LINE",
"479 179 LINE SMOOTH",
"533 29 OFFCURVE",
"608 -14 OFFCURVE",
"697 -14 CURVE SMOOTH",
"741 -14 OFFCURVE",
"774 -4 OFFCURVE",
"788 0 CURVE"
);
}
);
};
layerId = "EB38A4D2-CD30-49BA-8E45-1F04A566FFE8";
paths = (
{
closed = 1;
nodes = (
"448 273 LINE SMOOTH",
"608 273 OFFCURVE",
"718 345 OFFCURVE",
"718 481 CURVE SMOOTH",
"718 615 OFFCURVE",
"605 686 OFFCURVE",
"444 686 CURVE SMOOTH",
"33 686 LINE",
"33 559 LINE",
"449 559 LINE SMOOTH",
"497 559 OFFCURVE",
"558 543 OFFCURVE",
"558 481 CURVE SMOOTH",
"558 411 OFFCURVE",
"494 392 OFFCURVE",
"449 392 CURVE SMOOTH",
"251 392 LINE",
"251 273 LINE"
);
},
{
closed = 1;
nodes = (
"414 0 LINE",
"414 126 LINE",
"33 127 LINE",
"33 0 LINE"
);
},
{
closed = 1;
nodes = (
"307 70 LINE",
"307 613 LINE",
"145 613 LINE",
"145 70 LINE"
);
},
{
closed = 1;
nodes = (
"732 -14 OFFCURVE",
"768 -6 OFFCURVE",
"793 8 CURVE",
"761 136 LINE",
"748 133 OFFCURVE",
"735 129 OFFCURVE",
"714 129 CURVE SMOOTH",
"687 129 OFFCURVE",
"635 138 OFFCURVE",
"592 238 CURVE SMOOTH",
"562 306 LINE",
"435 289 LINE",
"466 194 LINE SMOOTH",
"520 29 OFFCURVE",
"607 -13 OFFCURVE",
"695 -14 CURVE"
);
}
);
width = 798;
},
{
anchors = (
{
name = bottom;
position = "{708, 0}";
},
{
name = top;
position = "{655, 686}";
}
);
background = {
paths = (
{
closed = 1;
nodes = (
"901 280 LINE SMOOTH",
"1070 280 OFFCURVE",
"1181 350 OFFCURVE",
"1181 485 CURVE SMOOTH",
"1181 617 OFFCURVE",
"1065 686 OFFCURVE",
"885 686 CURVE SMOOTH",
"60 686 LINE",
"60 542 LINE",
"891 542 LINE SMOOTH",
"957 542 OFFCURVE",
"996 520 OFFCURVE",
"996 480 CURVE SMOOTH",
"996 433 OFFCURVE",
"957 415 OFFCURVE",
"891 415 CURVE SMOOTH",
"377 415 LINE",
"377 280 LINE"
);
},
{
closed = 1;
nodes = (
"631 0 LINE",
"631 144 LINE",
"60 146 LINE",
"60 0 LINE"
);
},
{
closed = 1;
nodes = (
"442 79 LINE",
"442 603 LINE",
"257 603 LINE",
"257 79 LINE"
);
},
{
closed = 1;
nodes = (
"1253 -14 OFFCURVE",
"1372 99 OFFCURVE",
"1372 250 CURVE SMOOTH",
"1372 286 LINE",
"1214 286 LINE",
"1214 246 LINE SMOOTH",
"1214 179 OFFCURVE",
"1164 139 OFFCURVE",
"1112 139 CURVE SMOOTH",
"1057 139 OFFCURVE",
"1019 158 OFFCURVE",
"963 209 CURVE SMOOTH",
"880 286 OFFCURVE",
"826 306 OFFCURVE",
"653 306 CURVE SMOOTH",
"434 306 LINE",
"434 281 LINE",
"559 281 LINE SMOOTH",
"705 281 OFFCURVE",
"734 235 OFFCURVE",
"796 165 CURVE SMOOTH",
"861 90 OFFCURVE",
"958 -14 OFFCURVE",
"1112 -14 CURVE SMOOTH"
);
}
);
};
layerId = "816E4B99-7363-45E2-A2DF-0C5A75075B59";
paths = (
{
closed = 1;
nodes = (
"901 280 LINE SMOOTH",
"1070 280 OFFCURVE",
"1181 350 OFFCURVE",
"1181 485 CURVE SMOOTH",
"1181 617 OFFCURVE",
"1065 686 OFFCURVE",
"885 686 CURVE SMOOTH",
"60 686 LINE",
"60 542 LINE",
"886 542 LINE SMOOTH",
"953 542 OFFCURVE",
"996 520 OFFCURVE",
"996 472 CURVE SMOOTH",
"996 422 OFFCURVE",
"953 398 OFFCURVE",
"886 398 CURVE SMOOTH",
"377 398 LINE",
"377 280 LINE"
);
},
{
closed = 1;
nodes = (
"631 0 LINE",
"631 144 LINE",
"60 146 LINE",
"60 0 LINE"
);
},
{
closed = 1;
nodes = (
"442 79 LINE",
"442 603 LINE",
"257 603 LINE",
"257 79 LINE"
);
},
{
closed = 1;
nodes = (
"1277 -14 OFFCURVE",
"1372 107 OFFCURVE",
"1372 243 CURVE SMOOTH",
"1372 286 LINE",
"1214 286 LINE",
"1214 246 LINE SMOOTH",
"1214 183 OFFCURVE",
"1171 139 OFFCURVE",
"1111 139 CURVE SMOOTH",
"1058 139 OFFCURVE",
"1023 159 OFFCURVE",
"968 213 CURVE SMOOTH",
"897 283 OFFCURVE",
"816 306 OFFCURVE",
"683 306 CURVE SMOOTH",
"434 306 LINE",
"434 281 LINE",
"529 281 LINE SMOOTH",
"645 281 OFFCURVE",
"724 232 OFFCURVE",
"794 165 CURVE SMOOTH",
"885 78 OFFCURVE",
"963 -14 OFFCURVE",
"1114 -14 CURVE SMOOTH"
);
}
);
width = 1347;
}
);
leftKerningGroup = H;
leftMetricsKey = "=H";
rightKerningGroup = R;
unicode = 0052;
},
{
glyphname = R.swsh;
lastChange = "2016-06-09 23:56:07 +0000";
layers = (
{
anchors = (
{
name = bottom;
position = "{720, 0}";
},
{
name = top;
position = "{670, 686}";
}
);
background = {
paths = (
{
closed = 1;
nodes = (
"348 24 LINE",
"348 627 LINE",
"315 627 LINE",
"315 24 LINE"
);
},
{
closed = 1;
nodes = (
"602 0 LINE",
"602 31 LINE",
"74 31 LINE",
"74 0 LINE"
);
},
{
closed = 1;
nodes = (
"810 282 LINE SMOOTH",
"963 282 OFFCURVE",
"1076 349 OFFCURVE",
"1076 462 CURVE SMOOTH",
"1076 572 OFFCURVE",
"996 647 OFFCURVE",
"843 647 CURVE SMOOTH",
"74 647 LINE",
"74 616 LINE",
"843 616 LINE SMOOTH",
"978 616 OFFCURVE",
"1043 550 OFFCURVE",
"1043 462 CURVE SMOOTH",
"1043 364 OFFCURVE",
"938 311 OFFCURVE",
"810 311 CURVE SMOOTH",
"331 311 LINE",
"331 282 LINE"
);
},
{
closed = 1;
nodes = (
"398 297 LINE",
"371 282 LINE",
"532 282 LINE SMOOTH",
"747 282 OFFCURVE",
"847 229 OFFCURVE",
"1005 -11 CURVE SMOOTH",
"1194 -295 OFFCURVE",
"1387 -466 OFFCURVE",
"1671 -466 CURVE SMOOTH",
"1892 -466 OFFCURVE",
"2028 -377 OFFCURVE",
"2105 -328 CURVE",
"2091 -303 LINE",
"2021 -350 OFFCURVE",
"1887 -436 OFFCURVE",
"1671 -436 CURVE SMOOTH",
"1415 -436 OFFCURVE",
"1225 -283 OFFCURVE",
"1043 -9 CURVE SMOOTH",
"887 224 OFFCURVE",
"805 297 OFFCURVE",
"535 297 CURVE SMOOTH"
);
}
);
};
guideLines = (
{
position = "{627, -348}";
}
);
layerId = "B29C398E-974A-40D0-A0A0-00935056D4B4";
paths = (
{
closed = 1;
nodes = (
"1866 -370 OFFCURVE",
"1991 -283 OFFCURVE",
"2067 -232 CURVE",
"2052 -206 LINE",
"1981 -253 OFFCURVE",
"1860 -339 OFFCURVE",
"1645 -339 CURVE SMOOTH",
"1388 -339 OFFCURVE",
"1207 -189 OFFCURVE",
"1049 18 CURVE SMOOTH",
"871 250 OFFCURVE",
"783 326 OFFCURVE",
"535 326 CURVE SMOOTH",
"331 326 LINE",
"332 308 LINE",
"532 308 LINE SMOOTH",
"747 308 OFFCURVE",
"827 246 OFFCURVE",
"1005 15 CURVE SMOOTH",
"1168 -194 OFFCURVE",
"1361 -370 OFFCURVE",
"1645 -370 CURVE SMOOTH"
);
},
{
closed = 1;
nodes = (
"587 0 LINE",
"587 31 LINE",
"74 31 LINE",
"74 0 LINE"
);
},
{
closed = 1;
nodes = (
"348 24 LINE",
"348 666 LINE",
"315 666 LINE",
"315 24 LINE"
);
},
{
closed = 1;
nodes = (
"833 309 LINE SMOOTH",
"997 309 OFFCURVE",
"1075 400 OFFCURVE",
"1075 499 CURVE SMOOTH",
"1075 609 OFFCURVE",
"996 686 OFFCURVE",
"833 686 CURVE SMOOTH",
"74 686 LINE",
"74 655 LINE",
"833 655 LINE SMOOTH",
"977 655 OFFCURVE",
"1042 589 OFFCURVE",
"1042 499 CURVE SMOOTH",
"1042 410 OFFCURVE",
"972 340 OFFCURVE",
"833 340 CURVE SMOOTH",
"341 340 LINE",
"341 309 LINE"
);
}
);
width = 1222;
},
{
anchors = (
{
name = bottom;
position = "{469, 0}";
},
{
name = top;
position = "{416, 686}";
}
);
layerId = "543F9737-16F7-428D-9F96-2EBD9FC8D3B6";
paths = (
{
closed = 1;
nodes = (
"1144 -264 OFFCURVE",
"1220 -231 OFFCURVE",
"1269 -196 CURVE",
"1254 -171 LINE",
"1208 -204 OFFCURVE",
"1134 -233 OFFCURVE",
"1052 -233 CURVE SMOOTH",
"912 -233 OFFCURVE",
"807 -156 OFFCURVE",
"662 92 CURVE SMOOTH",
"539 304 OFFCURVE",
"482 334 OFFCURVE",
"365 334 CURVE SMOOTH",
"268 334 LINE",
"268 318 LINE",
"365 318 LINE SMOOTH",
"450 318 OFFCURVE",
"508 296 OFFCURVE",
"634 79 CURVE SMOOTH",
"784 -183 OFFCURVE",
"895 -264 OFFCURVE",
"1052 -264 CURVE SMOOTH"
);
},
{
closed = 1;
nodes = (
"371 0 LINE",
"371 31 LINE",
"40 29 LINE",
"40 -1 LINE"
);
},
{
closed = 1;
nodes = (
"222 18 LINE",
"222 669 LINE",
"189 669 LINE",
"189 18 LINE"
);
},
{
closed = 1;
nodes = (
"464 318 LINE SMOOTH",
"615 318 OFFCURVE",
"693 408 OFFCURVE",
"693 499 CURVE SMOOTH",
"693 603 OFFCURVE",
"614 686 OFFCURVE",
"464 686 CURVE SMOOTH",
"40 686 LINE",
"40 655 LINE",
"464 655 LINE SMOOTH",
"595 655 OFFCURVE",
"660 582 OFFCURVE",
"660 499 CURVE SMOOTH",
"660 418 OFFCURVE",
"592 348 OFFCURVE",
"464 348 CURVE SMOOTH",
"216 348 LINE",
"216 318 LINE"
);
}
);
width = 788;
},
{
anchors = (
{
name = bottom;
position = "{451, 0}";
},
{
name = top;
position = "{408, 686}";
}
);
layerId = "EB38A4D2-CD30-49BA-8E45-1F04A566FFE8";
paths = (
{
closed = 1;
nodes = (
"1222 -264 OFFCURVE",
"1329 -223 OFFCURVE",
"1425 -151 CURVE",
"1359 -45 LINE",
"1282 -101 OFFCURVE",
"1185 -133 OFFCURVE",
"1078 -133 CURVE SMOOTH",
"946 -133 OFFCURVE",
"838 -82 OFFCURVE",
"724 67 CURVE SMOOTH",
"600 228 OFFCURVE",
"535 303 OFFCURVE",
"444 303 CURVE SMOOTH",
"266 303 LINE",
"266 277 LINE",
"329 277 LINE SMOOTH",
"403 277 OFFCURVE",
"425 196 OFFCURVE",
"581 2 CURVE SMOOTH",
"739 -194 OFFCURVE",
"886 -264 OFFCURVE",
"1078 -264 CURVE SMOOTH"
);
},
{
closed = 1;
nodes = (
"420 0 LINE",
"420 127 LINE",
"33 128 LINE",
"33 0 LINE"
);
},
{
closed = 1;
nodes = (
"308 70 LINE",
"308 613 LINE",
"145 613 LINE",
"145 70 LINE"
);
},
{
closed = 1;
nodes = (
"471 277 LINE SMOOTH",
"646 277 OFFCURVE",
"732 376 OFFCURVE",
"732 483 CURVE SMOOTH",
"732 603 OFFCURVE",
"645 686 OFFCURVE",
"471 686 CURVE SMOOTH",
"33 686 LINE",
"33 559 LINE",
"462 559 LINE SMOOTH",
"510 559 OFFCURVE",
"572 548 OFFCURVE",
"572 483 CURVE SMOOTH",
"572 405 OFFCURVE",
"507 397 OFFCURVE",
"462 397 CURVE SMOOTH",
"251 397 LINE",
"251 277 LINE"
);
}
);
width = 785;
},
{
anchors = (
{
name = bottom;
position = "{581, 0}";
},
{
name = top;
position = "{590, 686}";
}
);
background = {
paths = (
{
closed = 1;
nodes = (
"901 280 LINE SMOOTH",
"1070 280 OFFCURVE",
"1181 350 OFFCURVE",
"1181 485 CURVE SMOOTH",
"1181 617 OFFCURVE",
"1065 686 OFFCURVE",
"885 686 CURVE SMOOTH",
"60 686 LINE",
"60 542 LINE",
"886 542 LINE SMOOTH",
"953 542 OFFCURVE",
"996 520 OFFCURVE",
"996 472 CURVE SMOOTH",
"996 427 OFFCURVE",
"953 403 OFFCURVE",
"886 403 CURVE SMOOTH",
"377 403 LINE",
"377 280 LINE"
);
}
);
};
layerId = "816E4B99-7363-45E2-A2DF-0C5A75075B59";
paths = (
{
closed = 1;
nodes = (
"1963 -377 OFFCURVE",
"2141 -265 OFFCURVE",
"2254 -176 CURVE",
"2169 -64 LINE",
"2069 -138 OFFCURVE",
"1940 -228 OFFCURVE",
"1698 -228 CURVE SMOOTH",
"1486 -228 OFFCURVE",
"1321 -151 OFFCURVE",
"1123 41 CURVE SMOOTH",
"988 172 OFFCURVE",
"870 309 OFFCURVE",
"653 309 CURVE SMOOTH",
"374 309 LINE",
"375 288 LINE",
"532 288 LINE SMOOTH",
"671 288 OFFCURVE",
"780 135 OFFCURVE",
"943 -22 CURVE SMOOTH",
"1209 -278 OFFCURVE",
"1422 -377 OFFCURVE",
"1705 -377 CURVE SMOOTH"
);
},
{
closed = 1;
nodes = (
"639 0 LINE",
"639 144 LINE",
"60 148 LINE",
"60 1 LINE"
);
},
{
closed = 1;
nodes = (
"442 87 LINE",
"442 599 LINE",
"257 599 LINE",
"257 87 LINE"
);
},
{
closed = 1;
nodes = (
"834 282 LINE SMOOTH",
"1004 284 OFFCURVE",
"1114 345 OFFCURVE",
"1114 478 CURVE SMOOTH",
"1114 616 OFFCURVE",
"999 686 OFFCURVE",
"819 686 CURVE SMOOTH",
"60 686 LINE",
"60 542 LINE",
"825 542 LINE SMOOTH",
"892 542 OFFCURVE",
"930 517 OFFCURVE",
"930 473 CURVE SMOOTH",
"930 422 OFFCURVE",
"892 396 OFFCURVE",
"825 396 CURVE SMOOTH",
"290 396 LINE",
"290 276 LINE"
);
}
);
width = 1161;
}
);
leftKerningGroup = H;
leftMetricsKey = "=H";
rightKerningGroup = R;
},
{
glyphname = S;
lastChange = "2016-06-07 16:15:49 +0000";
layers = (
{
anchors = (
{
name = bottom;
position = "{620, -14}";
},
{
name = top;
position = "{594, 700}";
}
);
background = {
paths = (
{
closed = 1;
nodes = (
"321 652 OFFCURVE",
"187 594 OFFCURVE",
"187 495 CURVE SMOOTH",
"187 403 OFFCURVE",
"299 371 OFFCURVE",
"568 341 CURVE SMOOTH",
"877 306 OFFCURVE",
"1025 288 OFFCURVE",
"1025 157 CURVE SMOOTH",
"1025 26 OFFCURVE",
"869 -26 OFFCURVE",
"656 -26 CURVE",
"429 -26 OFFCURVE",
"226 73 OFFCURVE",
"156 158 CURVE",
"185 158 LINE",
"185 0 LINE",
"152 0 LINE",
"152 209 LINE",
"252 85 OFFCURVE",
"461 4 OFFCURVE",
"658 4 CURVE",
"847 4 OFFCURVE",
"994 57 OFFCURVE",
"994 157 CURVE SMOOTH",
"994 259 OFFCURVE",
"869 276 OFFCURVE",
"567 309 CURVE SMOOTH",
"279 339 OFFCURVE",
"154 371 OFFCURVE",
"154 495 CURVE SMOOTH",
"154 615 OFFCURVE",
"286 682 OFFCURVE",
"494 682 CURVE",
"757 682 OFFCURVE",
"905 581 OFFCURVE",
"975 495 CURVE",
"946 495 LINE",
"946 647 LINE",
"979 647 LINE",
"979 447 LINE",
"878 569 OFFCURVE",
"725 652 OFFCURVE",
"491 652 CURVE"
);
}
);
};
layerId = "B29C398E-974A-40D0-A0A0-00935056D4B4";
paths = (
{
closed = 1;
nodes = (
"889 -13 OFFCURVE",
"1025 45 OFFCURVE",
"1025 164 CURVE SMOOTH",
"1025 288 OFFCURVE",
"897 329 OFFCURVE",
"581 354 CURVE SMOOTH",
"286 377 OFFCURVE",
"187 417 OFFCURVE",
"187 509 CURVE SMOOTH",
"187 618 OFFCURVE",
"308 669 OFFCURVE",
"491 669 CURVE SMOOTH",
"712 669 OFFCURVE",
"858 586 OFFCURVE",
"971 454 CURVE",
"979 457 LINE",
"979 686 LINE",
"948 686 LINE",
"948 499 LINE",
"968 499 LINE",
"879 598 OFFCURVE",
"737 700 OFFCURVE",
"494 700 CURVE SMOOTH",
"279 700 OFFCURVE",
"154 633 OFFCURVE",
"154 509 CURVE SMOOTH",
"154 403 OFFCURVE",
"256 344 OFFCURVE",
"580 322 CURVE SMOOTH",
"878 301 OFFCURVE",
"994 265 OFFCURVE",
"994 164 CURVE SMOOTH",
"994 62 OFFCURVE",
"867 18 OFFCURVE",
"704 18 CURVE SMOOTH",
"507 18 OFFCURVE",
"278 97 OFFCURVE",
"160 233 CURVE",
"152 231 LINE",
"152 0 LINE",
"183 0 LINE",
"183 185 LINE",
"163 185 LINE",
"259 86 OFFCURVE",
"475 -13 OFFCURVE",
"702 -13 CURVE SMOOTH"
);
}
);
width = 1144;
},
{
anchors = (
{
name = bottom;
position = "{355, -14}";
},
{
name = top;
position = "{329, 700}";
}
);
background = {
paths = (
{
closed = 0;
nodes = (
"411 18 LINE",
"301 18 OFFCURVE",
"158 85 OFFCURVE",
"45 235 CURVE",
"45 0 LINE",
"75 0 LINE",
"75 185 LINE",
"55 185 LINE",
"139 73 OFFCURVE",
"270 -13 OFFCURVE",
"411 -13 CURVE"
);
}
);
};
layerId = "543F9737-16F7-428D-9F96-2EBD9FC8D3B6";
paths = (
{
closed = 1;
nodes = (
"502 -13 OFFCURVE",
"595 55 OFFCURVE",
"595 151 CURVE SMOOTH",
"595 255 OFFCURVE",
"517 309 OFFCURVE",
"342 355 CURVE SMOOTH",
"193 395 OFFCURVE",
"120 453 OFFCURVE",
"120 539 CURVE SMOOTH",
"120 620 OFFCURVE",
"191 669 OFFCURVE",
"285 669 CURVE SMOOTH",
"404 669 OFFCURVE",
"483 609 OFFCURVE",
"554 476 CURVE",
"562 477 LINE",
"562 686 LINE",
"531 686 LINE",
"531 519 LINE",
"554 513 LINE",
"502 634 OFFCURVE",
"407 700 OFFCURVE",
"285 700 CURVE SMOOTH",
"171 700 OFFCURVE",
"87 635 OFFCURVE",
"87 536 CURVE SMOOTH",
"87 440 OFFCURVE",
"163 365 OFFCURVE",
"341 322 CURVE SMOOTH",
"501 283 OFFCURVE",
"562 232 OFFCURVE",
"562 151 CURVE SMOOTH",
"562 70 OFFCURVE",
"481 18 OFFCURVE",
"378 18 CURVE SMOOTH",
"257 18 OFFCURVE",
"158 86 OFFCURVE",
"87 210 CURVE",
"79 209 LINE",
"79 0 LINE",
"110 0 LINE",
"110 163 LINE",
"87 174 LINE",
"144 59 OFFCURVE",
"255 -13 OFFCURVE",
"378 -13 CURVE SMOOTH"
);
}
);
width = 674;
},
{
anchors = (
{
name = bottom;
position = "{393, -14}";
},
{
name = top;
position = "{367, 700}";
}
);
layerId = "EB38A4D2-CD30-49BA-8E45-1F04A566FFE8";
paths = (
{
closed = 1;
nodes = (
"585 -13 OFFCURVE",
"687 59 OFFCURVE",
"687 183 CURVE SMOOTH",
"687 311 OFFCURVE",
"560 371 OFFCURVE",
"409 415 CURVE SMOOTH",
"281 450 OFFCURVE",
"238 473 OFFCURVE",
"238 510 CURVE SMOOTH",
"238 550 OFFCURVE",
"283 573 OFFCURVE",
"345 573 CURVE SMOOTH",
"423 573 OFFCURVE",
"511 526 OFFCURVE",
"556 438 CURVE",
"651 443 LINE",
"651 686 LINE",
"510 686 LINE",
"510 535 LINE",
"585 521 LINE",
"521 646 OFFCURVE",
"423 700 OFFCURVE",
"304 700 CURVE SMOOTH",
"184 700 OFFCURVE",
"69 625 OFFCURVE",
"69 503 CURVE SMOOTH",
"69 395 OFFCURVE",
"139 326 OFFCURVE",
"299 282 CURVE SMOOTH",
"459 238 OFFCURVE",
"518 208 OFFCURVE",
"518 166 CURVE SMOOTH",
"518 131 OFFCURVE",
"486 114 OFFCURVE",
"438 114 CURVE SMOOTH",
"359 114 OFFCURVE",
"240 169 OFFCURVE",
"168 256 CURVE",
"68 251 LINE",
"68 1 LINE",
"209 1 LINE",
"209 151 LINE",
"125 160 LINE",
"218 66 OFFCURVE",
"321 -13 OFFCURVE",
"449 -13 CURVE SMOOTH"
);
}
);
width = 720;
},
{
anchors = (
{
name = bottom;
position = "{551, -14}";
},
{
name = top;
position = "{509, 700}";
}
);
layerId = "816E4B99-7363-45E2-A2DF-0C5A75075B59";
paths = (
{
closed = 1;
nodes = (
"925 -14 OFFCURVE",
"1041 63 OFFCURVE",
"1041 183 CURVE SMOOTH",
"1041 313 OFFCURVE",
"927 375 OFFCURVE",
"630 417 CURVE SMOOTH",
"366 454 OFFCURVE",
"305 458 OFFCURVE",
"305 498 CURVE SMOOTH",
"305 528 OFFCURVE",
"362 554 OFFCURVE",
"447 554 CURVE SMOOTH",
"622 554 OFFCURVE",
"782 502 OFFCURVE",
"881 408 CURVE",
"993 430 LINE",
"993 686 LINE",
"828 686 LINE",
"828 523 LINE",
"912 544 LINE",
"777 649 OFFCURVE",
"604 699 OFFCURVE",
"446 699 CURVE SMOOTH",
"231 699 OFFCURVE",
"111 622 OFFCURVE",
"111 498 CURVE SMOOTH",
"111 364 OFFCURVE",
"223 305 OFFCURVE",
"497 266 CURVE SMOOTH",
"783 227 OFFCURVE",
"847 221 OFFCURVE",
"847 183 CURVE SMOOTH",
"847 151 OFFCURVE",
"809 127 OFFCURVE",
"720 127 CURVE SMOOTH",
"539 127 OFFCURVE",
"368 183 OFFCURVE",
"226 286 CURVE",
"108 263 LINE",
"108 0 LINE",
"275 0 LINE",
"275 158 LINE",
"177 167 LINE",
"346 46 OFFCURVE",
"539 -14 OFFCURVE",
"721 -14 CURVE SMOOTH"
);
}
);
width = 1094;
}
);
leftKerningGroup = S;
rightKerningGroup = S;
unicode = 0053;
},
{
glyphname = Germandbls;
lastChange = "2016-06-07 16:15:49 +0000";
layers = (
{
layerId = "B29C398E-974A-40D0-A0A0-00935056D4B4";
paths = (
{
closed = 1;
nodes = (
"516 0 LINE",
"516 172 LINE",
"496 172 LINE",
"593 73 OFFCURVE",
"750 -26 OFFCURVE",
"931 -26 CURVE SMOOTH",
"1064 -26 OFFCURVE",
"1168 32 OFFCURVE",
"1168 130 CURVE SMOOTH",
"1168 240 OFFCURVE",
"1042 309 OFFCURVE",
"706 334 CURVE",
"1126 659 LINE",
"1109 684 LINE",
"636 315 LINE",
"1052 284 OFFCURVE",
"1136 211 OFFCURVE",
"1136 130 CURVE SMOOTH",
"1136 48 OFFCURVE",
"1043 4 OFFCURVE",
"932 4 CURVE SMOOTH",
"781 4 OFFCURVE",
"620 80 OFFCURVE",
"494 218 CURVE",
"486 216 LINE",
"486 0 LINE"
);
},
{
closed = 1;
nodes = (
"352 702 OFFCURVE",
"240 585 OFFCURVE",
"240 396 CURVE SMOOTH",
"240 31 LINE",
"0 31 LINE",
"0 0 LINE",
"273 0 LINE",
"273 398 LINE SMOOTH",
"273 567 OFFCURVE",
"375 672 OFFCURVE",
"554 672 CURVE SMOOTH",
"714 672 OFFCURVE",
"829 582 OFFCURVE",
"915 508 CURVE",
"939 528 LINE",
"854 605 OFFCURVE",
"719 702 OFFCURVE",
"557 702 CURVE SMOOTH"
);
}
);
width = 1234;
},
{
background = {
paths = (
{
closed = 1;
nodes = (
"653 315 LINE",
"1069 284 OFFCURVE",
"1154 211 OFFCURVE",
"1154 130 CURVE SMOOTH",
"1154 48 OFFCURVE",
"1060 4 OFFCURVE",
"949 4 CURVE SMOOTH",
"799 4 OFFCURVE",
"629 85 OFFCURVE",
"503 222 CURVE",
"503 0 LINE",
"534 0 LINE",
"534 172 LINE",
"514 172 LINE",
"609 73 OFFCURVE",
"767 -26 OFFCURVE",
"948 -26 CURVE SMOOTH",
"1081 -26 OFFCURVE",
"1186 32 OFFCURVE",
"1186 130 CURVE SMOOTH",
"1186 240 OFFCURVE",
"1058 309 OFFCURVE",
"724 334 CURVE",
"1143 659 LINE",
"1126 684 LINE"
);
},
{
closed = 1;
nodes = (
"279 0 LINE",
"279 31 LINE",
"18 31 LINE",
"18 0 LINE"
);
},
{
closed = 1;
nodes = (
"957 528 LINE",
"871 605 OFFCURVE",
"750 684 OFFCURVE",
"587 684 CURVE SMOOTH",
"383 684 OFFCURVE",
"257 560 OFFCURVE",
"257 377 CURVE SMOOTH",
"257 0 LINE",
"290 0 LINE",
"290 381 LINE SMOOTH",
"290 541 OFFCURVE",
"405 653 OFFCURVE",
"585 653 CURVE SMOOTH",
"745 653 OFFCURVE",
"846 582 OFFCURVE",
"932 508 CURVE"
);
}
);
};
layerId = "543F9737-16F7-428D-9F96-2EBD9FC8D3B6";
paths = (
{
closed = 1;
nodes = (
"330 0 LINE",
"330 146 LINE",
"308 161 LINE",
"364 51 OFFCURVE",
"469 -13 OFFCURVE",
"573 -13 CURVE SMOOTH",
"679 -13 OFFCURVE",
"763 52 OFFCURVE",
"763 144 CURVE SMOOTH",
"763 242 OFFCURVE",
"680 306 OFFCURVE",
"474 345 CURVE",
"725 678 LINE",
"702 693 LINE",
"427 328 LINE",
"666 284 OFFCURVE",
"732 219 OFFCURVE",
"732 144 CURVE SMOOTH",
"732 68 OFFCURVE",
"658 18 OFFCURVE",
"573 18 CURVE SMOOTH",
"471 18 OFFCURVE",
"378 80 OFFCURVE",
"308 197 CURVE",
"299 196 LINE",
"299 0 LINE"
);
},
{
closed = 1;
nodes = (
"233 702 OFFCURVE",
"150 615 OFFCURVE",
"150 466 CURVE SMOOTH",
"150 31 LINE",
"0 31 LINE",
"0 0 LINE",
"183 0 LINE",
"183 469 LINE SMOOTH",
"183 603 OFFCURVE",
"259 672 OFFCURVE",
"361 672 CURVE SMOOTH",
"443 672 OFFCURVE",
"529 631 OFFCURVE",
"618 547 CURVE",
"639 570 LINE",
"548 658 OFFCURVE",
"457 702 OFFCURVE",
"361 702 CURVE SMOOTH"
);
}
);
width = 803;
},
{
layerId = "EB38A4D2-CD30-49BA-8E45-1F04A566FFE8";
paths = (
{
closed = 1;
nodes = (
"507 0 LINE",
"507 156 LINE",
"434 163 LINE",
"518 35 OFFCURVE",
"576 -13 OFFCURVE",
"681 -13 CURVE SMOOTH",
"797 -13 OFFCURVE",
"907 66 OFFCURVE",
"907 193 CURVE SMOOTH",
"907 312 OFFCURVE",
"816 391 OFFCURVE",
"734 455 CURVE",
"887 649 LINE",
"783 735 LINE",
"520 392 LINE",
"714 301 OFFCURVE",
"738 235 OFFCURVE",
"738 193 CURVE SMOOTH",
"738 146 OFFCURVE",
"701 111 OFFCURVE",
"650 111 CURVE SMOOTH",
"592 111 OFFCURVE",
"520 154 OFFCURVE",
"461 260 CURVE",
"361 253 LINE",
"361 0 LINE"
);
},
{
closed = 1;
nodes = (
"241 707 OFFCURVE",
"125 616 OFFCURVE",
"125 420 CURVE SMOOTH",
"125 127 LINE",
"25 127 LINE",
"25 0 LINE",
"285 0 LINE",
"285 422 LINE SMOOTH",
"285 530 OFFCURVE",
"343 573 OFFCURVE",
"426 573 CURVE SMOOTH",
"520 573 OFFCURVE",
"597 521 OFFCURVE",
"676 450 CURVE",
"762 547 LINE",
"639 655 OFFCURVE",
"534 707 OFFCURVE",
"421 707 CURVE SMOOTH"
);
}
);
width = 939;
},
{
layerId = "816E4B99-7363-45E2-A2DF-0C5A75075B59";
paths = (
{
closed = 1;
nodes = (
"690 0 LINE",
"690 181 LINE",
"614 173 LINE",
"741 55 OFFCURVE",
"843 -26 OFFCURVE",
"1027 -26 CURVE SMOOTH",
"1173 -26 OFFCURVE",
"1306 49 OFFCURVE",
"1306 187 CURVE SMOOTH",
"1306 322 OFFCURVE",
"1177 402 OFFCURVE",
"1040 446 CURVE",
"1268 622 LINE",
"1173 734 LINE",
"715 389 LINE",
"1046 317 OFFCURVE",
"1112 252 OFFCURVE",
"1112 200 CURVE SMOOTH",
"1112 150 OFFCURVE",
"1071 115 OFFCURVE",
"999 115 CURVE SMOOTH",
"901 115 OFFCURVE",
"756 167 OFFCURVE",
"644 294 CURVE",
"526 283 LINE",
"526 0 LINE"
);
},
{
closed = 1;
nodes = (
"329 708 OFFCURVE",
"179 586 OFFCURVE",
"179 342 CURVE SMOOTH",
"179 144 LINE",
"-3 144 LINE",
"-3 0 LINE",
"365 0 LINE",
"365 344 LINE SMOOTH",
"365 481 OFFCURVE",
"442 555 OFFCURVE",
"568 555 CURVE SMOOTH",
"741 555 OFFCURVE",
"876 453 OFFCURVE",
"951 393 CURVE",
"1052 500 LINE",
"929 601 OFFCURVE",
"779 708 OFFCURVE",
"550 708 CURVE SMOOTH"
);
}
);
width = 1351;
}
);
leftKerningGroup = Germandbls;
rightKerningGroup = Germandbls;
unicode = 1E9E;
},
{
glyphname = T;
lastChange = "2016-06-07 16:15:49 +0000";
layers = (
{
anchors = (
{
name = bottom;
position = "{594, 0}";
},
{
name = center;
position = "{594, 333}";
},
{
name = top;
position = "{594, 686}";
}
);
layerId = "B29C398E-974A-40D0-A0A0-00935056D4B4";
paths = (
{
closed = 1;
nodes = (
"118 444 LINE",
"118 656 LINE",
"1070 656 LINE",
"1070 444 LINE",
"1103 444 LINE",
"1103 686 LINE",
"85 686 LINE",
"85 444 LINE"
);
},
{
closed = 1;
nodes = (
"864 0 LINE",
"864 31 LINE",
"324 31 LINE",
"324 0 LINE"
);
},
{
closed = 1;
nodes = (
"611 18 LINE",
"611 669 LINE",
"578 669 LINE",
"578 18 LINE"
);
}
);
width = 1188;
},
{
anchors = (
{
name = bottom;
position = "{391, 0}";
},
{
name = center;
position = "{376, 323}";
},
{
name = top;
position = "{376, 700}";
}
);
layerId = "543F9737-16F7-428D-9F96-2EBD9FC8D3B6";
paths = (
{
closed = 1;
nodes = (
"86 507 LINE",
"86 656 LINE",
"679 656 LINE",
"679 507 LINE",
"712 507 LINE",
"712 686 LINE",
"53 686 LINE",
"53 507 LINE"
);
},
{
closed = 1;
nodes = (
"555 0 LINE",
"555 31 LINE",
"211 31 LINE",
"211 0 LINE"
);
},
{
closed = 1;
nodes = (
"399 18 LINE",
"399 669 LINE",
"366 669 LINE",
"366 18 LINE"
);
}
);
width = 765;
},
{
anchors = (
{
name = bottom;
position = "{419, 0}";
},
{
name = center;
position = "{394, 323}";
},
{
name = top;
position = "{394, 695}";
}
);
layerId = "EB38A4D2-CD30-49BA-8E45-1F04A566FFE8";
paths = (
{
closed = 1;
nodes = (
"167 422 LINE",
"167 559 LINE",
"622 559 LINE",
"622 422 LINE",
"763 422 LINE",
"763 686 LINE",
"26 686 LINE",
"26 422 LINE"
);
},
{
closed = 1;
nodes = (
"585 0 LINE",
"585 127 LINE",
"204 127 LINE",
"204 0 LINE"
);
},
{
closed = 1;
nodes = (
"476 81 LINE",
"476 616 LINE",
"314 616 LINE",
"314 81 LINE"
);
}
);
width = 789;
},
{
anchors = (
{
name = bottom;
position = "{592, 0}";
},
{
name = center;
position = "{592, 321}";
},
{
name = top;
position = "{592, 686}";
}
);
layerId = "816E4B99-7363-45E2-A2DF-0C5A75075B59";
paths = (
{
closed = 1;
nodes = (
"194 403 LINE",
"194 543 LINE",
"979 543 LINE",
"979 403 LINE",
"1142 403 LINE",
"1142 686 LINE",
"32 686 LINE",
"32 403 LINE"
);
},
{
closed = 1;
nodes = (
"877 0 LINE",
"877 144 LINE",
"294 144 LINE",
"294 0 LINE"
);
},
{
closed = 1;
nodes = (
"678 92 LINE",
"678 606 LINE",
"493 606 LINE",
"493 92 LINE"
);
}
);
width = 1174;
}
);
leftKerningGroup = T;
rightKerningGroup = T;
unicode = 0054;
},
{
color = 4;
glyphname = Tbar;
lastChange = "2016-06-07 16:15:49 +0000";
layers = (
{
components = (
{
name = T;
}
);
layerId = "B29C398E-974A-40D0-A0A0-00935056D4B4";
paths = (
{
closed = 1;
nodes = (
"890 288 LINE",
"890 317 LINE",
"299 317 LINE",
"299 288 LINE"
);
}
);
width = 1188;
},
{
components = (
{
name = T;
}
);
layerId = "543F9737-16F7-428D-9F96-2EBD9FC8D3B6";
paths = (
{
closed = 1;
nodes = (
"636 288 LINE",
"636 317 LINE",
"128 317 LINE",
"128 288 LINE"
);
}
);
width = 765;
},
{
components = (
{
name = T;
}
);
layerId = "EB38A4D2-CD30-49BA-8E45-1F04A566FFE8";
paths = (
{
closed = 1;
nodes = (
"622 255 LINE",
"622 352 LINE",
"167 352 LINE",
"167 255 LINE"
);
}
);
width = 789;
},
{
components = (
{
name = T;
}
);
layerId = "816E4B99-7363-45E2-A2DF-0C5A75075B59";
paths = (
{
closed = 1;
nodes = (
"878 273 LINE",
"878 382 LINE",
"295 382 LINE",
"295 273 LINE"
);
}
);
width = 1174;
}
);
leftKerningGroup = T;
rightKerningGroup = T;
unicode = 0166;
},
{
glyphname = U;
lastChange = "2016-06-07 16:15:49 +0000";
layers = (
{
anchors = (
{
name = bottom;
position = "{661, -14}";
},
{
name = ogonek;
position = "{661, -14}";
},
{
name = top;
position = "{661, 686}";
},
{
name = topright;
position = "{1321, 686}";
}
);
background = {
paths = (
{
closed = 1;
nodes = (
"1102 211 LINE SMOOTH",
"1102 176 OFFCURVE",
"1091 143 OFFCURVE",
"1069 112 CURVE SMOOTH",
"1037 67 OFFCURVE",
"983 29 OFFCURVE",
"915 1 CURVE SMOOTH",
"847 -25 OFFCURVE",
"767 -41 OFFCURVE",
"684 -41 CURVE SMOOTH",
"581 -41 OFFCURVE",
"477 -13 OFFCURVE",
"403 33 CURVE SMOOTH",
"364 54 OFFCURVE",
"332 81 OFFCURVE",
"311 112 CURVE SMOOTH",
"290 143 OFFCURVE",
"279 176 OFFCURVE",
"278 211 CURVE",
"278 629 LINE",
"245 629 LINE",
"245 211 LINE SMOOTH",
"245 167 OFFCURVE",
"259 128 OFFCURVE",
"284 92 CURVE SMOOTH",
"321 41 OFFCURVE",
"381 -1 OFFCURVE",
"450 -29 CURVE SMOOTH",
"521 -58 OFFCURVE",
"602 -75 OFFCURVE",
"684 -75 CURVE SMOOTH",
"800 -75 OFFCURVE",
"911 -46 OFFCURVE",
"996 2 CURVE SMOOTH",
"1037 28 OFFCURVE",
"1074 57 OFFCURVE",
"1097 92 CURVE SMOOTH",
"1123 128 OFFCURVE",
"1136 167 OFFCURVE",
"1136 211 CURVE SMOOTH",
"1136 629 LINE",
"1102 629 LINE"
);
},
{
closed = 1;
nodes = (
"540 613 LINE",
"540 647 LINE",
"-34 647 LINE",
"-34 613 LINE"
);
},
{
closed = 1;
nodes = (
"1414 613 LINE",
"1414 647 LINE",
"839 647 LINE",
"839 613 LINE"
);
}
);
};
layerId = "B29C398E-974A-40D0-A0A0-00935056D4B4";
paths = (
{
closed = 1;
nodes = (
"916 -14 OFFCURVE",
"1081 104 OFFCURVE",
"1081 335 CURVE SMOOTH",
"1081 669 LINE",
"1052 669 LINE",
"1048 318 LINE SMOOTH",
"1046 117 OFFCURVE",
"891 17 OFFCURVE",
"661 17 CURVE",
"430 17 OFFCURVE",
"275 117 OFFCURVE",
"273 320 CURVE SMOOTH",
"270 669 LINE",
"240 669 LINE",
"240 335 LINE SMOOTH",
"240 104 OFFCURVE",
"407 -14 OFFCURVE",
"661 -14 CURVE"
);
},
{
closed = 1;
nodes = (
"509 655 LINE",
"509 686 LINE",
"0 686 LINE",
"0 655 LINE"
);
},
{
closed = 1;
nodes = (
"1321 655 LINE",
"1321 686 LINE",
"812 686 LINE",
"812 655 LINE"
);
}
);
width = 1321;
},
{
anchors = (
{
name = bottom;
position = "{444, -13}";
},
{
name = ogonek;
position = "{474, 10}";
},
{
name = top;
position = "{451, 686}";
},
{
name = topright;
position = "{882, 686}";
}
);
background = {
paths = (
{
closed = 1;
nodes = (
"704 319 LINE",
"704 350 LINE",
"180 350 LINE",
"180 319 LINE"
);
},
{
closed = 1;
nodes = (
"325 0 LINE",
"325 31 LINE",
"7 31 LINE",
"7 0 LINE"
);
},
{
closed = 1;
nodes = (
"187 18 LINE",
"187 672 LINE",
"156 672 LINE",
"156 18 LINE"
);
},
{
closed = 1;
nodes = (
"325 656 LINE",
"325 686 LINE",
"7 686 LINE",
"7 656 LINE"
);
},
{
closed = 1;
nodes = (
"877 0 LINE",
"877 31 LINE",
"559 31 LINE",
"559 0 LINE"
);
},
{
closed = 1;
nodes = (
"728 18 LINE",
"728 672 LINE",
"695 672 LINE",
"695 18 LINE"
);
},
{
closed = 1;
nodes = (
"877 656 LINE",
"877 686 LINE",
"559 686 LINE",
"559 656 LINE"
);
}
);
};
layerId = "543F9737-16F7-428D-9F96-2EBD9FC8D3B6";
paths = (
{
closed = 1;
nodes = (
"627 -14 OFFCURVE",
"733 104 OFFCURVE",
"733 255 CURVE SMOOTH",
"733 669 LINE",
"700 669 LINE",
"700 249 LINE SMOOTH",
"700 117 OFFCURVE",
"598 17 OFFCURVE",
"444 17 CURVE SMOOTH",
"290 17 OFFCURVE",
"189 117 OFFCURVE",
"189 250 CURVE SMOOTH",
"189 669 LINE",
"156 669 LINE",
"156 255 LINE SMOOTH",
"156 104 OFFCURVE",
"263 -14 OFFCURVE",
"444 -14 CURVE SMOOTH"
);
},
{
closed = 1;
nodes = (
"339 655 LINE",
"339 686 LINE",
"7 686 LINE",
"7 655 LINE"
);
},
{
closed = 1;
nodes = (
"882 655 LINE",
"882 686 LINE",
"549 686 LINE",
"549 655 LINE"
);
}
);
width = 889;
},
{
anchors = (
{
name = bottom;
position = "{440, -14}";
},
{
name = ogonek;
position = "{495, 0}";
},
{
name = top;
position = "{441, 686}";
},
{
name = topright;
position = "{879, 686}";
}
);
layerId = "EB38A4D2-CD30-49BA-8E45-1F04A566FFE8";
paths = (
{
closed = 1;
nodes = (
"627 -14 OFFCURVE",
"768 104 OFFCURVE",
"768 271 CURVE SMOOTH",
"768 618 LINE",
"604 618 LINE",
"606 283 LINE SMOOTH",
"607 184 OFFCURVE",
"536 117 OFFCURVE",
"443 117 CURVE SMOOTH",
"350 117 OFFCURVE",
"281 183 OFFCURVE",
"281 281 CURVE SMOOTH",
"282 618 LINE",
"119 618 LINE",
"119 271 LINE SMOOTH",
"119 104 OFFCURVE",
"252 -14 OFFCURVE",
"443 -14 CURVE SMOOTH"
);
},
{
closed = 1;
nodes = (
"379 559 LINE",
"379 686 LINE",
"7 686 LINE",
"7 559 LINE"
);
},
{
closed = 1;
nodes = (
"879 559 LINE",
"879 686 LINE",
"506 686 LINE",
"506 559 LINE"
);
}
);
width = 886;
},
{
anchors = (
{
name = bottom;
position = "{672, -14}";
},
{
name = ogonek;
position = "{719, 3}";
},
{
name = top;
position = "{665, 686}";
},
{
name = topright;
position = "{1330, 686}";
}
);
layerId = "816E4B99-7363-45E2-A2DF-0C5A75075B59";
paths = (
{
closed = 1;
nodes = (
"928 -14 OFFCURVE",
"1136 104 OFFCURVE",
"1136 353 CURVE SMOOTH",
"1136 609 LINE",
"954 609 LINE",
"952 357 LINE SMOOTH",
"951 194 OFFCURVE",
"829 135 OFFCURVE",
"672 135 CURVE",
"511 135 OFFCURVE",
"393 193 OFFCURVE",
"392 353 CURVE SMOOTH",
"390 609 LINE",
"208 609 LINE",
"208 353 LINE SMOOTH",
"208 104 OFFCURVE",
"406 -14 OFFCURVE",
"672 -14 CURVE"
);
},
{
closed = 1;
nodes = (
"564 542 LINE",
"564 686 LINE",
"12 686 LINE",
"12 542 LINE"
);
},
{
closed = 1;
nodes = (
"1331 542 LINE",
"1331 686 LINE",
"784 686 LINE",
"784 542 LINE"
);
}
);
width = 1342;
}
);
leftKerningGroup = U;
rightKerningGroup = U;
unicode = 0055;
},
{
glyphname = V;
lastChange = "2016-06-07 16:15:49 +0000";
layers = (
{
anchors = (
{
name = bottom;
position = "{619, -14}";
},
{
name = top;
position = "{619, 640}";
}
);
layerId = "B29C398E-974A-40D0-A0A0-00935056D4B4";
paths = (
{
closed = 1;
nodes = (
"-7 686 LINE",
"-7 655 LINE",
"438 655 LINE",
"438 686 LINE"
);
},
{
closed = 1;
nodes = (
"798 686 LINE",
"798 655 LINE",
"1242 655 LINE",
"1242 686 LINE"
);
},
{
closed = 1;
nodes = (
"622 -14 LINE",
"1038 669 LINE",
"1001 669 LINE",
"619 39 LINE",
"239 669 LINE",
"198 669 LINE",
"614 -14 LINE"
);
}
);
width = 1235;
},
{
anchors = (
{
name = bottom;
position = "{427, -14}";
},
{
name = top;
position = "{427, 640}";
}
);
layerId = "543F9737-16F7-428D-9F96-2EBD9FC8D3B6";
paths = (
{
closed = 1;
nodes = (
"0 686 LINE",
"0 655 LINE",
"299 655 LINE",
"299 686 LINE"
);
},
{
closed = 1;
nodes = (
"540 686 LINE",
"540 655 LINE",
"853 655 LINE",
"853 686 LINE"
);
},
{
closed = 1;
nodes = (
"431 -14 LINE",
"728 669 LINE",
"691 669 LINE",
"428 52 LINE",
"164 669 LINE",
"125 669 LINE",
"421 -14 LINE"
);
}
);
width = 853;
},
{
anchors = (
{
name = bottom;
position = "{415, -14}";
},
{
name = top;
position = "{415, 640}";
}
);
layerId = "EB38A4D2-CD30-49BA-8E45-1F04A566FFE8";
paths = (
{
closed = 1;
nodes = (
"0 686 LINE",
"0 559 LINE",
"361 559 LINE",
"361 686 LINE"
);
},
{
closed = 1;
nodes = (
"473 686 LINE",
"473 559 LINE",
"831 559 LINE",
"831 686 LINE"
);
},
{
closed = 1;
nodes = (
"457 -14 LINE",
"779 669 LINE",
"620 669 LINE",
"425 199 LINE",
"223 669 LINE",
"52 669 LINE",
"372 -14 LINE"
);
}
);
width = 831;
},
{
anchors = (
{
name = bottom;
position = "{608, -14}";
},
{
name = top;
position = "{608, 640}";
}
);
layerId = "816E4B99-7363-45E2-A2DF-0C5A75075B59";
paths = (
{
closed = 1;
nodes = (
"-10 686 LINE",
"-10 542 LINE",
"480 542 LINE",
"480 686 LINE"
);
},
{
closed = 1;
nodes = (
"755 686 LINE",
"755 542 LINE",
"1218 542 LINE",
"1218 686 LINE"
);
},
{
closed = 1;
nodes = (
"655 -14 LINE",
"1141 669 LINE",
"958 669 LINE",
"629 189 LINE",
"295 669 LINE",
"63 669 LINE",
"552 -14 LINE"
);
}
);
width = 1208;
}
);
leftKerningGroup = V;
rightKerningGroup = V;
unicode = 0056;
},
{
glyphname = W;
lastChange = "2016-06-09 23:59:51 +0000";
layers = (
{
anchors = (
{
name = bottom;
position = "{799, 14}";
},
{
name = top;
position = "{799, 686}";
}
);
background = {
paths = (
{
closed = 1;
nodes = (
"414 658 LINE",
"414 686 LINE",
"-13 686 LINE",
"-13 658 LINE"
);
},
{
closed = 1;
nodes = (
"1131 658 LINE",
"1131 686 LINE",
"510 686 LINE",
"510 658 LINE"
);
},
{
closed = 1;
nodes = (
"1658 658 LINE",
"1658 686 LINE",
"1232 686 LINE",
"1232 658 LINE"
);
},
{
closed = 1;
nodes = (
"585 -13 LINE",
"595 28 LINE",
"232 669 LINE",
"194 669 LINE",
"576 -13 LINE"
);
},
{
closed = 1;
nodes = (
"587 -13 LINE",
"1029 669 LINE",
"991 669 LINE",
"986 669 LINE",
"573 25 LINE",
"582 -13 LINE"
);
},
{
closed = 1;
nodes = (
"1063 -13 LINE",
"1074 28 LINE",
"662 669 LINE",
"655 669 LINE",
"619 669 LINE",
"1057 -13 LINE"
);
},
{
closed = 1;
nodes = (
"1067 -13 LINE",
"1448 669 LINE",
"1410 669 LINE",
"1052 28 LINE",
"1062 -13 LINE"
);
}
);
};
layerId = "B29C398E-974A-40D0-A0A0-00935056D4B4";
paths = (
{
closed = 1;
nodes = (
"493 -13 LINE",
"816 634 LINE",
"801 669 LINE",
"796 669 LINE",
"477 25 LINE",
"487 -13 LINE"
);
},
{
closed = 1;
nodes = (
"490 -13 LINE",
"501 28 LINE",
"238 669 LINE",
"199 669 LINE",
"482 -13 LINE"
);
},
{
closed = 1;
nodes = (
"438 655 LINE",
"438 686 LINE",
"-7 686 LINE",
"-7 655 LINE"
);
},
{
closed = 1;
nodes = (
"1110 -13 LINE",
"1121 28 LINE",
"806 669 LINE",
"799 669 LINE",
"785 634 LINE",
"1104 -13 LINE"
);
},
{
closed = 1;
nodes = (
"1114 -13 LINE",
"1399 669 LINE",
"1361 669 LINE",
"1100 28 LINE",
"1109 -13 LINE"
);
},
{
closed = 1;
nodes = (
"1606 655 LINE",
"1606 686 LINE",
"1162 686 LINE",
"1162 655 LINE"
);
}
);
width = 1599;
},
{
anchors = (
{
name = bottom;
position = "{595, 14}";
},
{
name = top;
position = "{596, 686}";
}
);
background = {
paths = (
{
closed = 1;
nodes = (
"798 -13 LINE",
"1042 669 LINE",
"1005 669 LINE",
"791 53 LINE",
"476 669 LINE",
"438 669 LINE",
"787 -13 LINE"
);
},
{
closed = 1;
nodes = (
"395 -13 LINE",
"745 669 LINE",
"711 669 LINE",
"395 53 LINE",
"179 669 LINE",
"141 669 LINE",
"384 -13 LINE"
);
},
{
closed = 1;
nodes = (
"316 656 LINE",
"316 686 LINE",
"15 686 LINE",
"15 656 LINE"
);
},
{
closed = 1;
nodes = (
"823 656 LINE",
"823 686 LINE",
"352 686 LINE",
"352 656 LINE"
);
},
{
closed = 1;
nodes = (
"1166 656 LINE",
"1166 686 LINE",
"853 686 LINE",
"853 656 LINE"
);
}
);
};
layerId = "543F9737-16F7-428D-9F96-2EBD9FC8D3B6";
paths = (
{
closed = 1;
nodes = (
"306 655 LINE",
"306 686 LINE",
"7 686 LINE",
"7 655 LINE"
);
},
{
closed = 1;
nodes = (
"372 -14 LINE",
"383 33 LINE",
"166 669 LINE",
"128 669 LINE",
"364 -14 LINE"
);
},
{
closed = 1;
nodes = (
"375 -14 LINE",
"613 622 LINE",
"598 669 LINE",
"593 669 LINE",
"361 33 LINE",
"370 -14 LINE"
);
},
{
closed = 1;
nodes = (
"821 -14 LINE",
"832 33 LINE",
"603 669 LINE",
"595 669 LINE",
"582 625 LINE",
"816 -14 LINE"
);
},
{
closed = 1;
nodes = (
"825 -14 LINE",
"1064 669 LINE",
"1025 669 LINE",
"811 33 LINE",
"820 -14 LINE"
);
},
{
closed = 1;
nodes = (
"1186 655 LINE",
"1186 686 LINE",
"872 686 LINE",
"872 655 LINE"
);
}
);
width = 1192;
},
{
anchors = (
{
name = bottom;
position = "{583, 14}";
},
{
name = top;
position = "{583, 686}";
}
);
background = {
paths = (
{
closed = 1;
nodes = (
"807 -13 LINE",
"1126 669 LINE",
"976 669 LINE",
"779 204 LINE",
"573 669 LINE",
"417 669 LINE",
"724 -13 LINE"
);
},
{
closed = 1;
nodes = (
"396 -13 LINE",
"718 669 LINE",
"568 669 LINE",
"367 204 LINE",
"200 669 LINE",
"26 669 LINE",
"310 -13 LINE"
);
},
{
closed = 1;
nodes = (
"331 560 LINE",
"331 686 LINE",
"0 686 LINE",
"0 560 LINE"
);
},
{
closed = 1;
nodes = (
"765 560 LINE",
"765 686 LINE",
"411 686 LINE",
"411 560 LINE"
);
},
{
closed = 1;
nodes = (
"1153 560 LINE",
"1153 686 LINE",
"845 686 LINE",
"845 560 LINE"
);
}
);
};
guideLines = (
{
position = "{436, 608}";
}
);
layerId = "EB38A4D2-CD30-49BA-8E45-1F04A566FFE8";
paths = (
{
closed = 1;
nodes = (
"366 559 LINE",
"366 686 LINE",
"0 686 LINE",
"0 559 LINE"
);
},
{
closed = 1;
nodes = (
"365 -14 LINE",
"415 97 LINE",
"249 608 LINE",
"79 608 LINE",
"308 -14 LINE"
);
},
{
closed = 1;
nodes = (
"392 -14 LINE",
"627 541 LINE",
"602 673 LINE",
"539 673 LINE",
"296 57 LINE",
"330 -14 LINE"
);
},
{
closed = 1;
nodes = (
"837 -14 LINE",
"883 97 LINE",
"634 673 LINE",
"575 673 LINE",
"520 532 LINE",
"779 -14 LINE"
);
},
{
closed = 1;
nodes = (
"864 -14 LINE",
"1088 608 LINE",
"933 608 LINE",
"768 57 LINE",
"801 -14 LINE"
);
},
{
closed = 1;
nodes = (
"1170 559 LINE",
"1170 686 LINE",
"818 686 LINE",
"818 559 LINE"
);
}
);
width = 1170;
},
{
anchors = (
{
name = bottom;
position = "{865, 14}";
},
{
name = top;
position = "{865, 686}";
}
);
layerId = "816E4B99-7363-45E2-A2DF-0C5A75075B59";
paths = (
{
closed = 1;
nodes = (
"577 -13 LINE",
"907 557 LINE",
"879 674 LINE",
"815 674 LINE",
"459 60 LINE",
"506 -13 LINE"
);
},
{
closed = 1;
nodes = (
"547 -13 LINE",
"613 81 LINE",
"324 597 LINE",
"121 597 LINE",
"480 -13 LINE"
);
},
{
closed = 1;
nodes = (
"466 542 LINE",
"466 686 LINE",
"-10 686 LINE",
"-10 542 LINE"
);
},
{
closed = 1;
nodes = (
"1185 -13 LINE",
"1250 81 LINE",
"917 674 LINE",
"848 674 LINE",
"784 557 LINE",
"1118 -13 LINE"
);
},
{
closed = 1;
nodes = (
"1215 -13 LINE",
"1571 597 LINE",
"1395 597 LINE",
"1096 60 LINE",
"1143 -13 LINE"
);
},
{
closed = 1;
nodes = (
"1704 542 LINE",
"1704 686 LINE",
"1255 686 LINE",
"1255 542 LINE"
);
}
);
width = 1699;
}
);
leftKerningGroup = V;
rightKerningGroup = V;
unicode = 0057;
},
{
glyphname = X;
lastChange = "2016-06-07 16:15:49 +0000";
layers = (
{
anchors = (
{
name = bottom;
position = "{627, 14}";
},
{
name = top;
position = "{627, 672}";
}
);
layerId = "B29C398E-974A-40D0-A0A0-00935056D4B4";
paths = (
{
closed = 1;
nodes = (
"1195 0 LINE",
"1195 31 LINE",
"971 31 LINE",
"955 31 LINE",
"751 31 LINE",
"751 0 LINE"
);
},
{
closed = 1;
nodes = (
"503 0 LINE",
"503 31 LINE",
"304 31 LINE",
"284 31 LINE",
"59 31 LINE",
"59 0 LINE"
);
},
{
closed = 1;
nodes = (
"1002 15 LINE",
"641 344 LINE",
"638 344 LINE",
"283 669 LINE",
"233 669 LINE",
"613 325 LINE",
"616 325 LINE",
"953 15 LINE"
);
},
{
closed = 1;
nodes = (
"301 15 LINE",
"638 325 LINE",
"641 325 LINE",
"1021 669 LINE",
"975 669 LINE",
"619 344 LINE",
"615 344 LINE",
"255 15 LINE"
);
},
{
closed = 1;
nodes = (
"262 655 LINE",
"278 655 LINE",
"504 655 LINE",
"504 686 LINE SMOOTH",
"59 686 LINE",
"59 655 LINE"
);
},
{
closed = 1;
nodes = (
"975 655 LINE",
"992 655 LINE",
"1195 655 LINE",
"1195 686 LINE",
"750 686 LINE SMOOTH",
"750 655 LINE"
);
}
);
width = 1254;
},
{
anchors = (
{
name = bottom;
position = "{416, 14}";
},
{
name = top;
position = "{416, 672}";
}
);
background = {
anchors = (
{
name = bottom;
position = "{422, 0}";
},
{
name = top;
position = "{422, 647}";
}
);
paths = (
{
closed = 1;
nodes = (
"685 15 LINE",
"171 669 LINE",
"121 669 LINE",
"636 15 LINE"
);
},
{
closed = 1;
nodes = (
"325 0 LINE",
"325 31 LINE",
"13 31 LINE",
"13 0 LINE"
);
},
{
closed = 1;
nodes = (
"812 0 LINE",
"812 31 LINE",
"501 31 LINE",
"501 0 LINE"
);
},
{
closed = 1;
nodes = (
"189 15 LINE",
"422 317 LINE",
"428 317 LINE",
"704 669 LINE",
"658 669 LINE",
"408 348 LINE",
"403 348 LINE",
"143 15 LINE"
);
},
{
closed = 1;
nodes = (
"326 656 LINE",
"326 686 LINE SMOOTH",
"13 686 LINE",
"13 656 LINE"
);
},
{
closed = 1;
nodes = (
"812 656 LINE",
"812 686 LINE",
"499 686 LINE SMOOTH",
"499 656 LINE"
);
}
);
};
layerId = "543F9737-16F7-428D-9F96-2EBD9FC8D3B6";
paths = (
{
closed = 1;
nodes = (
"681 15 LINE",
"424 348 LINE",
"418 348 LINE",
"166 669 LINE",
"125 669 LINE",
"402 317 LINE",
"407 317 LINE",
"640 15 LINE"
);
},
{
closed = 1;
nodes = (
"325 0 LINE",
"325 31 LINE",
"183 31 LINE",
"169 31 LINE",
"13 31 LINE",
"13 0 LINE"
);
},
{
closed = 1;
nodes = (
"812 0 LINE",
"812 31 LINE",
"659 31 LINE",
"641 31 LINE",
"501 31 LINE",
"501 0 LINE"
);
},
{
closed = 1;
nodes = (
"184 15 LINE",
"420 316 LINE",
"425 323 LINE",
"699 669 LINE",
"662 669 LINE",
"409 349 LINE",
"404 341 LINE",
"147 15 LINE"
);
},
{
closed = 1;
nodes = (
"146 655 LINE",
"160 655 LINE",
"326 655 LINE",
"326 686 LINE SMOOTH",
"13 686 LINE",
"13 655 LINE"
);
},
{
closed = 1;
nodes = (
"661 655 LINE",
"674 655 LINE",
"812 655 LINE",
"812 686 LINE",
"499 686 LINE SMOOTH",
"499 655 LINE"
);
}
);
width = 825;
},
{
anchors = (
{
name = bottom;
position = "{388, 14}";
},
{
name = top;
position = "{417, 672}";
}
);
layerId = "EB38A4D2-CD30-49BA-8E45-1F04A566FFE8";
paths = (
{
closed = 1;
nodes = (
"746 105 LINE",
"476 385 LINE",
"460 385 LINE",
"273 583 LINE",
"58 583 LINE",
"341 297 LINE",
"359 297 LINE",
"530 105 LINE"
);
},
{
closed = 1;
nodes = (
"341 0 LINE",
"341 113 LINE",
"133 113 LINE",
"133 127 LINE",
"13 127 LINE",
"13 0 LINE"
);
},
{
closed = 1;
nodes = (
"794 0 LINE",
"794 127 LINE",
"674 127 LINE",
"674 113 LINE",
"436 113 LINE",
"436 0 LINE"
);
},
{
closed = 1;
nodes = (
"244 105 LINE",
"430 308 LINE",
"454 306 LINE",
"728 583 LINE",
"559 583 LINE",
"378 395 LINE",
"354 397 LINE",
"73 105 LINE"
);
},
{
closed = 1;
nodes = (
"139 559 LINE",
"139 573 LINE",
"369 573 LINE",
"369 686 LINE",
"13 686 LINE",
"13 559 LINE"
);
},
{
closed = 1;
nodes = (
"669 573 LINE",
"669 559 LINE",
"794 559 LINE",
"794 686 LINE",
"463 686 LINE",
"463 573 LINE"
);
}
);
width = 807;
},
{
anchors = (
{
name = bottom;
position = "{602, 14}";
},
{
name = top;
position = "{633, 672}";
}
);
layerId = "816E4B99-7363-45E2-A2DF-0C5A75075B59";
paths = (
{
closed = 1;
nodes = (
"1189 0 LINE",
"1189 144 LINE",
"986 144 LINE",
"991 139 LINE",
"679 139 LINE",
"679 0 LINE"
);
},
{
closed = 1;
nodes = (
"521 0 LINE",
"521 139 LINE",
"223 139 LINE",
"227 144 LINE",
"42 144 LINE",
"42 0 LINE"
);
},
{
closed = 1;
nodes = (
"1108 121 LINE",
"706 390 LINE",
"688 390 LINE",
"414 567 LINE",
"131 567 LINE",
"537 301 LINE",
"555 301 LINE",
"833 121 LINE"
);
},
{
closed = 1;
nodes = (
"353 121 LINE",
"648 316 LINE",
"675 305 LINE",
"1069 567 LINE",
"860 567 LINE",
"585 400 LINE",
"556 413 LINE",
"142 121 LINE"
);
},
{
closed = 1;
nodes = (
"363 542 LINE",
"356 549 LINE",
"554 549 LINE",
"554 686 LINE SMOOTH",
"42 686 LINE",
"42 542 LINE"
);
},
{
closed = 1;
nodes = (
"895 549 LINE",
"886 542 LINE",
"1189 542 LINE",
"1189 686 LINE",
"709 686 LINE SMOOTH",
"709 549 LINE"
);
}
);
width = 1232;
}
);
leftKerningGroup = X;
rightKerningGroup = X;
unicode = 0058;
},
{
glyphname = Y;
lastChange = "2016-06-07 16:15:49 +0000";
layers = (
{
anchors = (
{
name = bottom;
position = "{607, 0}";
},
{
name = top;
position = "{607, 686}";
}
);
background = {
paths = (
{
closed = 1;
nodes = (
"424 24 LINE",
"153 24 LINE",
"153 0 LINE",
"448 0 LINE",
"448 140 LINE",
"424 140 LINE"
);
},
{
closed = 1;
nodes = (
"722 0 LINE",
"722 24 LINE",
"435 24 LINE",
"435 0 LINE"
);
},
{
closed = 1;
nodes = (
"681 462 LINE",
"427 147 LINE",
"444 132 LINE",
"692 438 LINE",
"917 438 LINE",
"917 462 LINE"
);
},
{
closed = 1;
nodes = (
"191 462 LINE",
"-46 462 LINE",
"-46 438 LINE",
"179 438 LINE",
"428 132 LINE",
"447 147 LINE"
);
}
);
};
layerId = "B29C398E-974A-40D0-A0A0-00935056D4B4";
paths = (
{
closed = 1;
nodes = (
"619 235 LINE",
"1009 671 LINE",
"965 671 LINE",
"608 272 LINE",
"256 667 LINE",
"209 667 LINE",
"595 235 LINE"
);
},
{
closed = 1;
nodes = (
"865 0 LINE",
"865 31 LINE",
"351 31 LINE",
"351 0 LINE"
);
},
{
closed = 1;
nodes = (
"625 0 LINE",
"625 270 LINE",
"592 270 LINE",
"592 0 LINE"
);
},
{
closed = 1;
nodes = (
"451 655 LINE",
"451 686 LINE",
"7 686 LINE",
"7 655 LINE"
);
},
{
closed = 1;
nodes = (
"1208 655 LINE",
"1208 686 LINE",
"765 686 LINE",
"765 655 LINE"
);
}
);
width = 1214;
},
{
anchors = (
{
name = bottom;
position = "{410, 0}";
},
{
name = top;
position = "{410, 686}";
}
);
layerId = "543F9737-16F7-428D-9F96-2EBD9FC8D3B6";
paths = (
{
closed = 1;
nodes = (
"421 235 LINE",
"700 673 LINE",
"662 673 LINE",
"410 273 LINE",
"154 674 LINE",
"117 674 LINE",
"397 235 LINE"
);
},
{
closed = 1;
nodes = (
"582 0 LINE",
"582 31 LINE",
"238 31 LINE",
"238 0 LINE"
);
},
{
closed = 1;
nodes = (
"427 0 LINE",
"427 270 LINE",
"394 270 LINE",
"394 0 LINE"
);
},
{
closed = 1;
nodes = (
"306 655 LINE",
"306 686 LINE",
"7 686 LINE",
"7 655 LINE"
);
},
{
closed = 1;
nodes = (
"812 655 LINE",
"812 686 LINE",
"514 686 LINE",
"514 655 LINE"
);
}
);
width = 818;
},
{
anchors = (
{
name = bottom;
position = "{400, 0}";
},
{
name = top;
position = "{398, 686}";
}
);
layerId = "EB38A4D2-CD30-49BA-8E45-1F04A566FFE8";
paths = (
{
closed = 1;
nodes = (
"438 230 LINE",
"726 593 LINE",
"578 593 LINE",
"418 383 LINE",
"253 594 LINE",
"62 594 LINE",
"356 230 LINE"
);
},
{
closed = 1;
nodes = (
"594 0 LINE",
"594 127 LINE",
"204 127 LINE",
"204 0 LINE"
);
},
{
closed = 1;
nodes = (
"480 66 LINE",
"480 330 LINE",
"318 330 LINE",
"318 66 LINE"
);
},
{
closed = 1;
nodes = (
"342 559 LINE",
"342 686 LINE",
"13 686 LINE",
"13 559 LINE"
);
},
{
closed = 1;
nodes = (
"783 559 LINE",
"783 686 LINE",
"454 686 LINE",
"454 559 LINE"
);
}
);
width = 796;
},
{
anchors = (
{
name = bottom;
position = "{570, 0}";
},
{
name = top;
position = "{570, 686}";
}
);
layerId = "816E4B99-7363-45E2-A2DF-0C5A75075B59";
paths = (
{
closed = 1;
nodes = (
"612 229 LINE",
"1005 575 LINE",
"818 575 LINE",
"587 370 LINE",
"346 571 LINE",
"109 571 LINE",
"520 229 LINE"
);
},
{
closed = 1;
nodes = (
"852 0 LINE",
"852 144 LINE",
"284 144 LINE",
"284 0 LINE"
);
},
{
closed = 1;
nodes = (
"660 78 LINE",
"660 341 LINE",
"475 341 LINE",
"475 78 LINE"
);
},
{
closed = 1;
nodes = (
"451 542 LINE",
"451 686 LINE",
"11 686 LINE",
"11 542 LINE"
);
},
{
closed = 1;
nodes = (
"1123 542 LINE",
"1123 686 LINE",
"682 686 LINE",
"682 542 LINE"
);
}
);
width = 1134;
}
);
leftKerningGroup = V;
rightKerningGroup = V;
unicode = 0059;
},
{
glyphname = Z;
lastChange = "2016-06-07 16:15:49 +0000";
layers = (
{
anchors = (
{
name = bottom;
position = "{573, 0}";
},
{
name = top;
position = "{573, 686}";
}
);
background = {
paths = (
{
closed = 1;
nodes = (
"1008 0 LINE",
"1008 242 LINE",
"975 242 LINE",
"975 31 LINE",
"198 31 LINE",
"189 24 LINE",
"190 19 LINE",
"200 21 LINE",
"1002 669 LINE",
"1002 686 LINE",
"139 686 LINE",
"139 444 LINE",
"172 444 LINE",
"172 656 LINE",
"946 656 LINE",
"953 662 LINE",
"952 666 LINE",
"944 662 LINE",
"143 18 LINE",
"143 0 LINE"
);
}
);
};
layerId = "B29C398E-974A-40D0-A0A0-00935056D4B4";
paths = (
{
closed = 1;
nodes = (
"1008 0 LINE",
"1008 242 LINE",
"975 242 LINE",
"975 31 LINE",
"235 31 LINE SMOOTH",
"218 31 OFFCURVE",
"204 26 OFFCURVE",
"197 25 CURVE",
"197 26 LINE",
"204 29 OFFCURVE",
"217 34 OFFCURVE",
"229 44 CURVE SMOOTH",
"1002 669 LINE",
"1002 686 LINE",
"139 686 LINE",
"139 444 LINE",
"172 444 LINE",
"172 656 LINE",
"906 656 LINE SMOOTH",
"928 656 OFFCURVE",
"945 660 OFFCURVE",
"950 661 CURVE",
"950 660 LINE",
"945 659 OFFCURVE",
"930 651 OFFCURVE",
"915 639 CURVE SMOOTH",
"143 18 LINE",
"143 0 LINE"
);
}
);
width = 1140;
},
{
anchors = (
{
name = bottom;
position = "{365, 0}";
},
{
name = top;
position = "{365, 686}";
}
);
layerId = "543F9737-16F7-428D-9F96-2EBD9FC8D3B6";
paths = (
{
closed = 1;
nodes = (
"651 0 LINE",
"651 179 LINE",
"618 179 LINE",
"618 31 LINE",
"139 31 LINE SMOOTH",
"127 31 OFFCURVE",
"110 29 OFFCURVE",
"101 26 CURVE",
"101 28 LINE",
"110 31 OFFCURVE",
"125 37 OFFCURVE",
"134 51 CURVE SMOOTH",
"646 669 LINE",
"646 686 LINE",
"73 686 LINE",
"73 507 LINE",
"106 507 LINE",
"106 656 LINE",
"570 656 LINE SMOOTH",
"583 656 OFFCURVE",
"598 658 OFFCURVE",
"607 660 CURVE",
"607 659 LINE",
"598 656 OFFCURVE",
"582 646 OFFCURVE",
"572 634 CURVE SMOOTH",
"64 18 LINE",
"64 0 LINE"
);
}
);
width = 711;
},
{
anchors = (
{
name = bottom;
position = "{408, 0}";
},
{
name = top;
position = "{408, 686}";
}
);
background = {
paths = (
{
closed = 1;
nodes = (
"712 0 LINE",
"712 264 LINE",
"569 264 LINE",
"569 127 LINE",
"160 127 LINE",
"110 41 LINE",
"118 28 LINE",
"193 42 LINE",
"706 573 LINE",
"706 686 LINE",
"59 686 LINE",
"59 422 LINE",
"202 422 LINE",
"202 560 LINE",
"609 560 LINE",
"659 651 LINE",
"652 659 LINE",
"576 645 LINE",
"64 113 LINE",
"64 0 LINE"
);
}
);
};
layerId = "EB38A4D2-CD30-49BA-8E45-1F04A566FFE8";
paths = (
{
closed = 1;
nodes = (
"712 0 LINE",
"712 264 LINE",
"571 264 LINE",
"571 127 LINE",
"316 127 LINE SMOOTH",
"289 127 OFFCURVE",
"252 121 OFFCURVE",
"237 118 CURVE",
"235 125 LINE",
"253 128 OFFCURVE",
"290 141 OFFCURVE",
"309 161 CURVE SMOOTH",
"706 573 LINE",
"706 686 LINE",
"59 686 LINE",
"59 422 LINE",
"200 422 LINE",
"200 560 LINE",
"453 560 LINE SMOOTH",
"482 560 OFFCURVE",
"514 565 OFFCURVE",
"532 569 CURVE",
"534 561 LINE",
"515 556 OFFCURVE",
"480 542 OFFCURVE",
"460 523 CURVE SMOOTH",
"64 113 LINE",
"64 0 LINE"
);
}
);
width = 765;
},
{
anchors = (
{
name = bottom;
position = "{595, 0}";
},
{
name = top;
position = "{595, 686}";
}
);
layerId = "816E4B99-7363-45E2-A2DF-0C5A75075B59";
paths = (
{
closed = 1;
nodes = (
"1052 0 LINE",
"1052 341 LINE",
"889 341 LINE",
"889 144 LINE",
"484 144 LINE SMOOTH",
"451 144 OFFCURVE",
"419 138 OFFCURVE",
"399 135 CURVE",
"398 143 LINE",
"417 148 OFFCURVE",
"447 157 OFFCURVE",
"478 176 CURVE SMOOTH",
"1046 556 LINE",
"1046 686 LINE",
"111 686 LINE",
"111 346 LINE",
"274 346 LINE",
"274 541 LINE",
"677 541 LINE SMOOTH",
"712 541 OFFCURVE",
"748 549 OFFCURVE",
"762 551 CURVE",
"765 542 LINE",
"750 540 OFFCURVE",
"713 529 OFFCURVE",
"683 508 CURVE SMOOTH",
"116 130 LINE",
"116 0 LINE"
);
}
);
width = 1157;
}
);
leftKerningGroup = Z;
rightKerningGroup = Z;
unicode = 005A;
},
{
export = 0;
glyphname = W.bold;
lastChange = "2016-06-07 16:15:49 +0000";
layers = (
{
anchors = (
{
name = bottom;
position = "{829, 0}";
},
{
name = top;
position = "{838, 686}";
}
);
background = {
paths = (
{
closed = 1;
nodes = (
"420 658 LINE",
"420 686 LINE",
"-7 686 LINE",
"-7 658 LINE"
);
},
{
closed = 1;
nodes = (
"1137 658 LINE",
"1137 686 LINE",
"517 686 LINE",
"517 658 LINE"
);
},
{
closed = 1;
nodes = (
"1664 658 LINE",
"1664 686 LINE",
"1239 686 LINE",
"1239 658 LINE"
);
},
{
closed = 1;
nodes = (
"592 -13 LINE",
"602 28 LINE",
"239 669 LINE",
"200 669 LINE",
"583 -13 LINE"
);
},
{
closed = 1;
nodes = (
"594 -13 LINE",
"1035 669 LINE",
"992 669 LINE",
"580 25 LINE",
"589 -13 LINE"
);
},
{
closed = 1;
nodes = (
"1069 -13 LINE",
"1080 28 LINE",
"669 669 LINE",
"626 669 LINE",
"1064 -13 LINE"
);
},
{
closed = 1;
nodes = (
"1074 -13 LINE",
"1454 669 LINE",
"1417 669 LINE",
"1058 28 LINE",
"1068 -13 LINE"
);
}
);
};
layerId = "B29C398E-974A-40D0-A0A0-00935056D4B4";
paths = (
{
closed = 1;
nodes = (
"594 -13 LINE",
"1035 669 LINE",
"999 669 LINE",
"593 37 LINE",
"239 669 LINE",
"200 669 LINE",
"585 -13 LINE"
);
},
{
closed = 1;
nodes = (
"420 658 LINE",
"420 686 LINE",
"-7 686 LINE",
"-7 658 LINE"
);
},
{
closed = 1;
nodes = (
"1074 -13 LINE",
"1458 669 LINE",
"1425 669 LINE",
"1069 37 LINE",
"662 669 LINE",
"626 669 LINE",
"1064 -13 LINE"
);
},
{
closed = 1;
nodes = (
"1137 658 LINE",
"1137 686 LINE",
"517 686 LINE",
"517 658 LINE"
);
},
{
closed = 1;
nodes = (
"1664 658 LINE",
"1664 686 LINE",
"1239 686 LINE",
"1239 658 LINE"
);
}
);
width = 1658;
},
{
anchors = (
{
name = bottom;
position = "{586, 0}";
},
{
name = top;
position = "{586, 686}";
}
);
background = {
anchors = (
{
name = top;
position = "{590, 686}";
}
);
};
layerId = "543F9737-16F7-428D-9F96-2EBD9FC8D3B6";
paths = (
{
closed = 1;
nodes = (
"788 -13 LINE",
"1032 669 LINE",
"997 669 LINE",
"781 53 LINE",
"468 669 LINE",
"429 669 LINE",
"778 -13 LINE"
);
},
{
closed = 1;
nodes = (
"385 -13 LINE",
"735 669 LINE",
"701 669 LINE",
"385 53 LINE",
"171 669 LINE",
"132 669 LINE",
"375 -13 LINE"
);
},
{
closed = 1;
nodes = (
"306 656 LINE",
"306 686 LINE",
"7 686 LINE",
"7 656 LINE"
);
},
{
closed = 1;
nodes = (
"813 656 LINE",
"813 686 LINE",
"343 686 LINE",
"343 656 LINE"
);
},
{
closed = 1;
nodes = (
"1156 656 LINE",
"1156 686 LINE",
"844 686 LINE",
"844 656 LINE"
);
}
);
width = 1163;
},
{
anchors = (
{
name = bottom;
position = "{561, 0}";
},
{
name = top;
position = "{575, 686}";
}
);
background = {
paths = (
{
closed = 1;
nodes = (
"147 568 LINE",
"147 581 LINE",
"330 581 LINE",
"330 686 LINE",
"48 686 LINE",
"48 568 LINE"
);
},
{
closed = 1;
nodes = (
"397 -13 LINE",
"436 66 LINE",
"233 608 LINE",
"80 608 LINE",
"319 -13 LINE"
);
},
{
closed = 1;
nodes = (
"410 -13 LINE",
"631 546 LINE",
"613 673 LINE",
"569 673 LINE",
"342 66 LINE",
"385 -13 LINE"
);
},
{
closed = 1;
nodes = (
"864 -13 LINE",
"902 66 LINE",
"664 673 LINE",
"596 673 LINE",
"559 546 LINE",
"785 -13 LINE"
);
},
{
closed = 1;
nodes = (
"877 -13 LINE",
"1115 616 LINE",
"996 616 LINE",
"803 66 LINE",
"850 -13 LINE"
);
},
{
closed = 1;
nodes = (
"1042 581 LINE",
"1042 568 LINE",
"1141 568 LINE",
"1141 686 LINE",
"905 686 LINE",
"905 581 LINE"
);
}
);
};
guideLines = (
{
position = "{449, 608}";
}
);
layerId = "EB38A4D2-CD30-49BA-8E45-1F04A566FFE8";
paths = (
{
closed = 1;
nodes = (
"821 -13 LINE",
"1140 669 LINE",
"989 669 LINE",
"792 204 LINE",
"586 669 LINE",
"430 669 LINE",
"737 -13 LINE"
);
},
{
closed = 1;
nodes = (
"409 -13 LINE",
"732 669 LINE",
"581 669 LINE",
"381 204 LINE",
"213 669 LINE",
"40 669 LINE",
"323 -13 LINE"
);
},
{
closed = 1;
nodes = (
"344 560 LINE",
"344 686 LINE",
"0 686 LINE",
"0 560 LINE"
);
},
{
closed = 1;
nodes = (
"778 560 LINE",
"778 686 LINE",
"425 686 LINE",
"425 560 LINE"
);
},
{
closed = 1;
nodes = (
"1179 560 LINE",
"1179 686 LINE",
"858 686 LINE",
"858 560 LINE"
);
}
);
width = 1179;
},
{
anchors = (
{
name = bottom;
position = "{830, 17}";
},
{
name = top;
position = "{837, 686}";
}
);
layerId = "816E4B99-7363-45E2-A2DF-0C5A75075B59";
paths = (
{
closed = 1;
nodes = (
"587 -14 LINE",
"1034 669 LINE",
"861 669 LINE",
"566 189 LINE",
"279 669 LINE",
"64 669 LINE",
"489 -14 LINE"
);
},
{
closed = 1;
nodes = (
"454 541 LINE",
"454 686 LINE",
"-10 686 LINE",
"-10 541 LINE"
);
},
{
closed = 1;
nodes = (
"1156 -14 LINE",
"1603 669 LINE",
"1434 669 LINE",
"1138 189 LINE",
"837 667 LINE",
"691 556 LINE",
"1058 -14 LINE"
);
},
{
closed = 1;
nodes = (
"1069 541 LINE",
"1069 686 LINE",
"619 686 LINE",
"619 541 LINE"
);
},
{
closed = 1;
nodes = (
"1696 541 LINE",
"1696 686 LINE",
"1211 686 LINE",
"1211 541 LINE"
);
}
);
width = 1685;
}
);
leftKerningGroup = V;
rightKerningGroup = V;
},
{
glyphname = a;
lastChange = "2016-06-10 00:07:21 +0000";
layers = (
{
anchors = (
{
name = bottom;
position = "{378, -13}";
},
{
name = ogonek;
position = "{1013, 9}";
},
{
name = top;
position = "{507, 484}";
}
);
background = {
anchors = (
{
name = bottom;
position = "{378, -13}";
},
{
name = ogonek;
position = "{1045, 25}";
},
{
name = top;
position = "{507, 484}";
}
);
paths = (
{
closed = 1;
nodes = (
"978 -13 OFFCURVE",
"1014 2 OFFCURVE",
"1045 25 CURVE",
"1032 52 LINE",
"1002 29 OFFCURVE",
"975 18 OFFCURVE",
"938 18 CURVE SMOOTH",
"895 18 OFFCURVE",
"854 51 OFFCURVE",
"854 123 CURVE SMOOTH",
"854 260 LINE SMOOTH",
"854 392 OFFCURVE",
"755 484 OFFCURVE",
"547 484 CURVE SMOOTH",
"416 484 OFFCURVE",
"282 457 OFFCURVE",
"138 409 CURVE",
"147 378 LINE",
"283 421 OFFCURVE",
"410 454 OFFCURVE",
"547 454 CURVE SMOOTH",
"738 454 OFFCURVE",
"821 371 OFFCURVE",
"821 260 CURVE SMOOTH",
"821 123 LINE SMOOTH",
"821 37 OFFCURVE",
"870 -13 OFFCURVE",
"937 -13 CURVE SMOOTH"
);
},
{
closed = 1;
nodes = (
"524 -13 OFFCURVE",
"692 26 OFFCURVE",
"836 100 CURVE",
"836 130 LINE",
"685 58 OFFCURVE",
"521 18 OFFCURVE",
"378 18 CURVE SMOOTH",
"233 18 OFFCURVE",
"152 52 OFFCURVE",
"152 121 CURVE SMOOTH",
"152 196 OFFCURVE",
"259 245 OFFCURVE",
"433 245 CURVE SMOOTH",
"583 245 OFFCURVE",
"724 226 OFFCURVE",
"836 202 CURVE",
"836 229 LINE",
"724 253 OFFCURVE",
"593 276 OFFCURVE",
"433 276 CURVE SMOOTH",
"238 276 OFFCURVE",
"119 217 OFFCURVE",
"119 119 CURVE SMOOTH",
"119 32 OFFCURVE",
"212 -13 OFFCURVE",
"378 -13 CURVE SMOOTH"
);
}
);
};
layerId = "B29C398E-974A-40D0-A0A0-00935056D4B4";
paths = (
{
closed = 1;
nodes = (
"978 -13 OFFCURVE",
"1014 2 OFFCURVE",
"1045 25 CURVE",
"1028 50 LINE",
"1002 29 OFFCURVE",
"975 18 OFFCURVE",
"938 18 CURVE SMOOTH",
"895 18 OFFCURVE",
"854 51 OFFCURVE",
"854 123 CURVE SMOOTH",
"854 260 LINE SMOOTH",
"854 392 OFFCURVE",
"755 484 OFFCURVE",
"547 484 CURVE SMOOTH",
"416 484 OFFCURVE",
"282 457 OFFCURVE",
"138 409 CURVE",
"147 377 LINE",
"283 420 OFFCURVE",
"410 453 OFFCURVE",
"547 453 CURVE SMOOTH",
"738 453 OFFCURVE",
"821 371 OFFCURVE",
"821 260 CURVE",
"821 123 LINE",
"821 37 OFFCURVE",
"870 -13 OFFCURVE",
"937 -13 CURVE SMOOTH"
);
},
{
closed = 1;
nodes = (
"524 -13 OFFCURVE",
"692 26 OFFCURVE",
"836 100 CURVE",
"836 130 LINE",
"685 58 OFFCURVE",
"521 18 OFFCURVE",
"378 18 CURVE SMOOTH",
"233 18 OFFCURVE",
"152 57 OFFCURVE",
"152 126 CURVE SMOOTH",
"152 201 OFFCURVE",
"259 245 OFFCURVE",
"433 245 CURVE SMOOTH",
"583 245 OFFCURVE",
"724 226 OFFCURVE",
"836 202 CURVE",
"836 229 LINE",
"724 253 OFFCURVE",
"593 276 OFFCURVE",
"433 276 CURVE SMOOTH",
"238 276 OFFCURVE",
"119 222 OFFCURVE",
"119 124 CURVE SMOOTH",
"119 37 OFFCURVE",
"212 -13 OFFCURVE",
"378 -13 CURVE SMOOTH"
);
}
);
width = 1062;
},
{
anchors = (
{
name = bottom;
position = "{231, -13}";
},
{
name = ogonek;
position = "{532, 12}";
},
{
name = top;
position = "{288, 484}";
}
);
background = {
anchors = (
{
name = bottom;
position = "{231, -13}";
},
{
name = ogonek;
position = "{563, 9}";
},
{
name = top;
position = "{288, 484}";
}
);
paths = (
{
closed = 1;
nodes = (
"534 -7 OFFCURVE",
"552 1 OFFCURVE",
"563 9 CURVE",
"553 37 LINE",
"542 31 OFFCURVE",
"529 24 OFFCURVE",
"514 24 CURVE SMOOTH",
"483 24 OFFCURVE",
"469 48 OFFCURVE",
"469 97 CURVE SMOOTH",
"469 308 LINE SMOOTH",
"469 440 OFFCURVE",
"388 484 OFFCURVE",
"296 484 CURVE SMOOTH",
"219 484 OFFCURVE",
"147 462 OFFCURVE",
"86 435 CURVE",
"95 404 LINE",
"156 431 OFFCURVE",
"219 453 OFFCURVE",
"296 453 CURVE SMOOTH",
"371 453 OFFCURVE",
"437 418 OFFCURVE",
"437 308 CURVE SMOOTH",
"437 97 LINE SMOOTH",
"437 31 OFFCURVE",
"462 -7 OFFCURVE",
"510 -7 CURVE SMOOTH"
);
},
{
closed = 1;
nodes = (
"303 -13 OFFCURVE",
"384 33 OFFCURVE",
"457 88 CURVE",
"457 119 LINE",
"384 61 OFFCURVE",
"306 18 OFFCURVE",
"231 18 CURVE SMOOTH",
"158 18 OFFCURVE",
"92 57 OFFCURVE",
"92 132 CURVE SMOOTH",
"92 212 OFFCURVE",
"172 252 OFFCURVE",
"256 251 CURVE SMOOTH",
"323 250 OFFCURVE",
"384 238 OFFCURVE",
"457 211 CURVE",
"457 242 LINE",
"389 265 OFFCURVE",
"330 282 OFFCURVE",
"256 282 CURVE SMOOTH",
"141 282 OFFCURVE",
"59 222 OFFCURVE",
"59 132 CURVE SMOOTH",
"59 39 OFFCURVE",
"140 -13 OFFCURVE",
"231 -13 CURVE SMOOTH"
);
}
);
};
layerId = "543F9737-16F7-428D-9F96-2EBD9FC8D3B6";
paths = (
{
closed = 1;
nodes = (
"534 -7 OFFCURVE",
"552 1 OFFCURVE",
"563 9 CURVE",
"553 37 LINE",
"542 31 OFFCURVE",
"529 24 OFFCURVE",
"514 24 CURVE SMOOTH",
"483 24 OFFCURVE",
"469 48 OFFCURVE",
"469 97 CURVE SMOOTH",
"469 308 LINE SMOOTH",
"469 440 OFFCURVE",
"388 484 OFFCURVE",
"296 484 CURVE SMOOTH",
"219 484 OFFCURVE",
"147 462 OFFCURVE",
"86 435 CURVE",
"95 404 LINE",
"156 431 OFFCURVE",
"219 453 OFFCURVE",
"296 453 CURVE SMOOTH",
"371 453 OFFCURVE",
"436 418 OFFCURVE",
"436 308 CURVE SMOOTH",
"436 97 LINE SMOOTH",
"436 31 OFFCURVE",
"462 -7 OFFCURVE",
"510 -7 CURVE SMOOTH"
);
},
{
closed = 1;
nodes = (
"303 -13 OFFCURVE",
"384 33 OFFCURVE",
"457 88 CURVE",
"457 119 LINE",
"384 61 OFFCURVE",
"306 18 OFFCURVE",
"231 18 CURVE SMOOTH",
"158 18 OFFCURVE",
"92 57 OFFCURVE",
"92 132 CURVE SMOOTH",
"92 212 OFFCURVE",
"172 252 OFFCURVE",
"256 251 CURVE SMOOTH",
"323 250 OFFCURVE",
"384 238 OFFCURVE",
"457 211 CURVE",
"457 242 LINE",
"389 265 OFFCURVE",
"330 282 OFFCURVE",
"256 282 CURVE SMOOTH",
"141 282 OFFCURVE",
"59 222 OFFCURVE",
"59 132 CURVE SMOOTH",
"59 39 OFFCURVE",
"140 -13 OFFCURVE",
"231 -13 CURVE SMOOTH"
);
}
);
width = 585;
},
{
anchors = (
{
name = bottom;
position = "{210, -13}";
},
{
name = ogonek;
position = "{602, 14}";
},
{
name = top;
position = "{298, 484}";
}
);
background = {
paths = (
{
closed = 1;
nodes = (
"548 -8 OFFCURVE",
"583 4 OFFCURVE",
"602 14 CURVE",
"572 121 LINE",
"567 119 OFFCURVE",
"559 117 OFFCURVE",
"548 117 CURVE SMOOTH",
"535 117 OFFCURVE",
"523 124 OFFCURVE",
"523 146 CURVE SMOOTH",
"523 288 LINE SMOOTH",
"523 403 OFFCURVE",
"448 483 OFFCURVE",
"298 483 CURVE SMOOTH",
"218 483 OFFCURVE",
"161 463 OFFCURVE",
"72 425 CURVE",
"105 310 LINE",
"176 339 OFFCURVE",
"227 356 OFFCURVE",
"286 356 CURVE SMOOTH",
"342 356 OFFCURVE",
"378 337 OFFCURVE",
"378 295 CURVE SMOOTH",
"378 132 LINE SMOOTH",
"378 41 OFFCURVE",
"437 -8 OFFCURVE",
"504 -8 CURVE SMOOTH"
);
},
{
closed = 1;
nodes = (
"289 -14 OFFCURVE",
"359 29 OFFCURVE",
"428 108 CURVE",
"430 206 LINE",
"355 133 OFFCURVE",
"297 110 OFFCURVE",
"260 110 CURVE SMOOTH",
"233 110 OFFCURVE",
"213 120 OFFCURVE",
"213 145 CURVE SMOOTH",
"213 176 OFFCURVE",
"244 189 OFFCURVE",
"278 190 CURVE SMOOTH",
"308 191 OFFCURVE",
"361 187 OFFCURVE",
"430 152 CURVE",
"430 244 LINE",
"372 275 OFFCURVE",
"318 297 OFFCURVE",
"243 297 CURVE SMOOTH",
"154 297 OFFCURVE",
"46 245 OFFCURVE",
"45 139 CURVE SMOOTH",
"44 33 OFFCURVE",
"131 -14 OFFCURVE",
"210 -14 CURVE SMOOTH"
);
}
);
};
layerId = "EB38A4D2-CD30-49BA-8E45-1F04A566FFE8";
paths = (
{
closed = 1;
nodes = (
"554 -8 OFFCURVE",
"590 4 OFFCURVE",
"608 14 CURVE",
"579 121 LINE",
"573 119 OFFCURVE",
"565 117 OFFCURVE",
"554 117 CURVE SMOOTH",
"541 117 OFFCURVE",
"529 124 OFFCURVE",
"529 146 CURVE SMOOTH",
"529 288 LINE SMOOTH",
"529 403 OFFCURVE",
"454 483 OFFCURVE",
"298 483 CURVE SMOOTH",
"231 483 OFFCURVE",
"150 464 OFFCURVE",
"70 431 CURVE",
"100 317 LINE",
"166 342 OFFCURVE",
"230 356 OFFCURVE",
"276 356 CURVE SMOOTH",
"336 356 OFFCURVE",
"385 337 OFFCURVE",
"385 295 CURVE SMOOTH",
"385 132 LINE SMOOTH",
"385 41 OFFCURVE",
"443 -8 OFFCURVE",
"510 -8 CURVE SMOOTH"
);
},
{
closed = 1;
nodes = (
"283 -14 OFFCURVE",
"356 29 OFFCURVE",
"425 108 CURVE",
"428 206 LINE",
"352 133 OFFCURVE",
"278 110 OFFCURVE",
"245 110 CURVE SMOOTH",
"216 110 OFFCURVE",
"191 120 OFFCURVE",
"191 145 CURVE SMOOTH",
"191 176 OFFCURVE",
"229 189 OFFCURVE",
"270 190 CURVE SMOOTH",
"305 190 OFFCURVE",
"358 187 OFFCURVE",
"428 152 CURVE",
"428 244 LINE",
"370 275 OFFCURVE",
"321 297 OFFCURVE",
"239 297 CURVE SMOOTH",
"147 297 OFFCURVE",
"41 246 OFFCURVE",
"40 139 CURVE SMOOTH",
"39 35 OFFCURVE",
"114 -14 OFFCURVE",
"200 -14 CURVE SMOOTH"
);
}
);
width = 615;
},
{
anchors = (
{
name = bottom;
position = "{333, -14}";
},
{
name = ogonek;
position = "{1050, 24}";
},
{
name = top;
position = "{528, 483}";
}
);
layerId = "816E4B99-7363-45E2-A2DF-0C5A75075B59";
paths = (
{
closed = 1;
nodes = (
"987 -12 OFFCURVE",
"1016 4 OFFCURVE",
"1043 21 CURVE",
"1004 141 LINE",
"993 137 OFFCURVE",
"980 130 OFFCURVE",
"964 130 CURVE SMOOTH",
"941 130 OFFCURVE",
"919 144 OFFCURVE",
"919 186 CURVE SMOOTH",
"919 189 LINE SMOOTH",
"919 379 OFFCURVE",
"795 483 OFFCURVE",
"515 483 CURVE SMOOTH",
"362 483 OFFCURVE",
"233 463 OFFCURVE",
"99 434 CURVE",
"120 315 LINE",
"247 340 OFFCURVE",
"376 358 OFFCURVE",
"515 358 CURVE SMOOTH",
"687 358 OFFCURVE",
"772 314 OFFCURVE",
"772 181 CURVE",
"772 144 LINE",
"772 53 OFFCURVE",
"841 -12 OFFCURVE",
"929 -12 CURVE SMOOTH"
);
},
{
closed = 1;
nodes = (
"520 -13 OFFCURVE",
"683 33 OFFCURVE",
"791 86 CURVE",
"793 164 LINE",
"668 133 OFFCURVE",
"522 108 OFFCURVE",
"413 108 CURVE SMOOTH",
"314 108 OFFCURVE",
"266 115 OFFCURVE",
"266 148 CURVE SMOOTH",
"266 178 OFFCURVE",
"314 192 OFFCURVE",
"420 192 CURVE SMOOTH",
"555 192 OFFCURVE",
"668 182 OFFCURVE",
"793 165 CURVE",
"793 238 LINE",
"691 270 OFFCURVE",
"556 296 OFFCURVE",
"395 296 CURVE SMOOTH",
"206 296 OFFCURVE",
"78 252 OFFCURVE",
"78 144 CURVE SMOOTH",
"78 43 OFFCURVE",
"172 -13 OFFCURVE",
"350 -13 CURVE SMOOTH"
);
}
);
width = 1040;
}
);
leftKerningGroup = a;
rightKerningGroup = n;
unicode = 0061;
},
{
glyphname = a.alt;
lastChange = "2016-06-10 00:10:09 +0000";
layers = (
{
anchors = (
{
name = bottom;
position = "{378, -13}";
},
{
name = ogonek;
position = "{979, 10}";
},
{
name = top;
position = "{507, 484}";
}
);
background = {
anchors = (
{
name = bottom;
position = "{378, -13}";
},
{
name = ogonek;
position = "{1009, 24}";
},
{
name = top;
position = "{507, 484}";
}
);
paths = (
{
closed = 1;
nodes = (
"1021 -7 OFFCURVE",
"1051 72 OFFCURVE",
"1051 136 CURVE SMOOTH",
"1051 154 LINE",
"1018 154 LINE",
"1018 136 LINE SMOOTH",
"1018 72 OFFCURVE",
"990 24 OFFCURVE",
"935 24 CURVE SMOOTH",
"873 24 OFFCURVE",
"847 72 OFFCURVE",
"847 150 CURVE",
"847 260 LINE SMOOTH",
"847 392 OFFCURVE",
"748 484 OFFCURVE",
"540 484 CURVE SMOOTH",
"409 484 OFFCURVE",
"275 457 OFFCURVE",
"131 409 CURVE",
"141 378 LINE",
"276 421 OFFCURVE",
"404 454 OFFCURVE",
"540 454 CURVE SMOOTH",
"732 454 OFFCURVE",
"814 371 OFFCURVE",
"814 260 CURVE SMOOTH",
"814 150 LINE",
"814 58 OFFCURVE",
"849 -7 OFFCURVE",
"932 -7 CURVE SMOOTH"
);
},
{
closed = 1;
nodes = (
"517 -13 OFFCURVE",
"685 26 OFFCURVE",
"829 100 CURVE",
"829 130 LINE",
"679 58 OFFCURVE",
"515 18 OFFCURVE",
"372 18 CURVE SMOOTH",
"250 18 OFFCURVE",
"145 44 OFFCURVE",
"145 127 CURVE",
"145 213 OFFCURVE",
"266 242 OFFCURVE",
"430 242 CURVE SMOOTH",
"567 242 OFFCURVE",
"714 222 OFFCURVE",
"829 202 CURVE",
"829 232 LINE",
"714 252 OFFCURVE",
"569 272 OFFCURVE",
"409 272 CURVE SMOOTH",
"249 272 OFFCURVE",
"112 235 OFFCURVE",
"112 127 CURVE",
"112 21 OFFCURVE",
"212 -13 OFFCURVE",
"372 -13 CURVE SMOOTH"
);
}
);
};
layerId = "B29C398E-974A-40D0-A0A0-00935056D4B4";
paths = (
{
closed = 1;
nodes = (
"1021 -7 OFFCURVE",
"1051 72 OFFCURVE",
"1051 136 CURVE SMOOTH",
"1051 154 LINE",
"1018 154 LINE",
"1018 136 LINE SMOOTH",
"1018 72 OFFCURVE",
"990 24 OFFCURVE",
"935 24 CURVE SMOOTH",
"873 24 OFFCURVE",
"847 72 OFFCURVE",
"847 150 CURVE",
"847 260 LINE SMOOTH",
"847 392 OFFCURVE",
"748 484 OFFCURVE",
"540 484 CURVE SMOOTH",
"409 484 OFFCURVE",
"275 457 OFFCURVE",
"131 409 CURVE",
"141 377 LINE",
"276 420 OFFCURVE",
"404 453 OFFCURVE",
"540 453 CURVE SMOOTH",
"732 453 OFFCURVE",
"814 371 OFFCURVE",
"814 260 CURVE SMOOTH",
"814 150 LINE",
"814 58 OFFCURVE",
"849 -7 OFFCURVE",
"932 -7 CURVE SMOOTH"
);
},
{
closed = 1;
nodes = (
"517 -13 OFFCURVE",
"685 26 OFFCURVE",
"829 100 CURVE",
"829 130 LINE",
"679 58 OFFCURVE",
"515 18 OFFCURVE",
"372 18 CURVE SMOOTH",
"250 18 OFFCURVE",
"145 44 OFFCURVE",
"145 127 CURVE",
"145 213 OFFCURVE",
"266 241 OFFCURVE",
"430 241 CURVE SMOOTH",
"567 241 OFFCURVE",
"714 221 OFFCURVE",
"829 201 CURVE",
"829 232 LINE",
"714 252 OFFCURVE",
"569 272 OFFCURVE",
"409 272 CURVE SMOOTH",
"249 272 OFFCURVE",
"112 235 OFFCURVE",
"112 127 CURVE",
"112 21 OFFCURVE",
"212 -13 OFFCURVE",
"372 -13 CURVE SMOOTH"
);
}
);
width = 1076;
},
{
anchors = (
{
name = bottom;
position = "{231, -13}";
},
{
name = ogonek;
position = "{563, 9}";
},
{
name = top;
position = "{288, 484}";
}
);
background = {
anchors = (
{
name = bottom;
position = "{224, -13}";
},
{
name = ogonek;
position = "{542, -18}";
},
{
name = top;
position = "{277, 497}";
}
);
paths = (
{
closed = 1;
nodes = (
"573 -7 OFFCURVE",
"606 34 OFFCURVE",
"606 90 CURVE SMOOTH",
"606 114 LINE",
"575 114 LINE",
"575 90 LINE SMOOTH",
"575 52 OFFCURVE",
"557 24 OFFCURVE",
"523 24 CURVE SMOOTH",
"490 24 OFFCURVE",
"469 48 OFFCURVE",
"469 92 CURVE SMOOTH",
"469 308 LINE SMOOTH",
"469 440 OFFCURVE",
"388 484 OFFCURVE",
"296 484 CURVE SMOOTH",
"219 484 OFFCURVE",
"147 462 OFFCURVE",
"86 435 CURVE",
"95 404 LINE",
"156 431 OFFCURVE",
"219 453 OFFCURVE",
"296 453 CURVE SMOOTH",
"371 453 OFFCURVE",
"437 418 OFFCURVE",
"437 308 CURVE SMOOTH",
"437 92 LINE SMOOTH",
"437 34 OFFCURVE",
"471 -7 OFFCURVE",
"523 -7 CURVE SMOOTH"
);
},
{
closed = 1;
nodes = (
"303 -13 OFFCURVE",
"384 33 OFFCURVE",
"457 88 CURVE",
"457 119 LINE",
"384 61 OFFCURVE",
"306 18 OFFCURVE",
"231 18 CURVE SMOOTH",
"158 18 OFFCURVE",
"92 57 OFFCURVE",
"92 132 CURVE SMOOTH",
"92 212 OFFCURVE",
"172 252 OFFCURVE",
"256 251 CURVE SMOOTH",
"323 250 OFFCURVE",
"384 238 OFFCURVE",
"457 211 CURVE",
"457 242 LINE",
"389 265 OFFCURVE",
"330 282 OFFCURVE",
"256 282 CURVE SMOOTH",
"141 282 OFFCURVE",
"59 222 OFFCURVE",
"59 132 CURVE SMOOTH",
"59 39 OFFCURVE",
"140 -13 OFFCURVE",
"231 -13 CURVE SMOOTH"
);
}
);
};
layerId = "543F9737-16F7-428D-9F96-2EBD9FC8D3B6";
paths = (
{
closed = 1;
nodes = (
"573 -7 OFFCURVE",
"606 34 OFFCURVE",
"606 90 CURVE SMOOTH",
"606 114 LINE",
"575 114 LINE",
"575 90 LINE SMOOTH",
"575 52 OFFCURVE",
"557 24 OFFCURVE",
"523 24 CURVE SMOOTH",
"490 24 OFFCURVE",
"469 48 OFFCURVE",
"469 92 CURVE SMOOTH",
"469 308 LINE SMOOTH",
"469 440 OFFCURVE",
"388 484 OFFCURVE",
"296 484 CURVE SMOOTH",
"219 484 OFFCURVE",
"147 462 OFFCURVE",
"86 435 CURVE",
"95 404 LINE",
"156 431 OFFCURVE",
"219 453 OFFCURVE",
"296 453 CURVE SMOOTH",
"371 453 OFFCURVE",
"436 418 OFFCURVE",
"436 308 CURVE SMOOTH",
"436 92 LINE SMOOTH",
"436 34 OFFCURVE",
"471 -7 OFFCURVE",
"523 -7 CURVE SMOOTH"
);
},
{
closed = 1;
nodes = (
"303 -13 OFFCURVE",
"384 33 OFFCURVE",
"457 88 CURVE",
"457 119 LINE",
"384 61 OFFCURVE",
"306 18 OFFCURVE",
"231 18 CURVE SMOOTH",
"158 18 OFFCURVE",
"92 57 OFFCURVE",
"92 132 CURVE SMOOTH",
"92 212 OFFCURVE",
"172 252 OFFCURVE",
"256 251 CURVE SMOOTH",
"323 250 OFFCURVE",
"384 238 OFFCURVE",
"457 211 CURVE",
"457 242 LINE",
"389 265 OFFCURVE",
"330 282 OFFCURVE",
"256 282 CURVE SMOOTH",
"141 282 OFFCURVE",
"59 222 OFFCURVE",
"59 132 CURVE SMOOTH",
"59 39 OFFCURVE",
"140 -13 OFFCURVE",
"231 -13 CURVE SMOOTH"
);
}
);
width = 608;
},
{
anchors = (
{
name = bottom;
position = "{210, -13}";
},
{
name = ogonek;
position = "{592, 14}";
},
{
name = top;
position = "{298, 484}";
}
);
background = {
paths = (
{
closed = 1;
nodes = (
"586 -8 OFFCURVE",
"642 35 OFFCURVE",
"642 119 CURVE SMOOTH",
"642 189 LINE",
"568 189 LINE",
"568 118 LINE SMOOTH",
"568 103 OFFCURVE",
"563 90 OFFCURVE",
"548 90 CURVE SMOOTH",
"534 90 OFFCURVE",
"529 105 OFFCURVE",
"529 117 CURVE SMOOTH",
"529 288 LINE SMOOTH",
"529 403 OFFCURVE",
"454 483 OFFCURVE",
"305 483 CURVE SMOOTH",
"224 483 OFFCURVE",
"167 463 OFFCURVE",
"78 425 CURVE",
"111 310 LINE",
"183 339 OFFCURVE",
"233 356 OFFCURVE",
"293 356 CURVE SMOOTH",
"349 356 OFFCURVE",
"385 337 OFFCURVE",
"385 295 CURVE SMOOTH",
"385 119 LINE SMOOTH",
"385 42 OFFCURVE",
"435 -8 OFFCURVE",
"516 -8 CURVE SMOOTH"
);
},
{
closed = 1;
nodes = (
"296 -14 OFFCURVE",
"365 29 OFFCURVE",
"435 108 CURVE",
"437 206 LINE",
"362 133 OFFCURVE",
"304 110 OFFCURVE",
"266 110 CURVE SMOOTH",
"240 110 OFFCURVE",
"220 120 OFFCURVE",
"220 145 CURVE SMOOTH",
"220 176 OFFCURVE",
"251 189 OFFCURVE",
"285 190 CURVE SMOOTH",
"315 191 OFFCURVE",
"367 187 OFFCURVE",
"437 152 CURVE",
"437 244 LINE",
"378 275 OFFCURVE",
"325 297 OFFCURVE",
"250 297 CURVE SMOOTH",
"161 297 OFFCURVE",
"53 245 OFFCURVE",
"52 139 CURVE SMOOTH",
"51 33 OFFCURVE",
"138 -14 OFFCURVE",
"217 -14 CURVE SMOOTH"
);
}
);
};
layerId = "EB38A4D2-CD30-49BA-8E45-1F04A566FFE8";
paths = (
{
closed = 1;
nodes = (
"586 -8 OFFCURVE",
"642 35 OFFCURVE",
"642 119 CURVE SMOOTH",
"642 189 LINE",
"568 189 LINE",
"568 118 LINE SMOOTH",
"568 103 OFFCURVE",
"563 90 OFFCURVE",
"548 90 CURVE SMOOTH",
"534 90 OFFCURVE",
"529 105 OFFCURVE",
"529 117 CURVE SMOOTH",
"529 288 LINE SMOOTH",
"529 403 OFFCURVE",
"454 483 OFFCURVE",
"305 483 CURVE SMOOTH",
"224 483 OFFCURVE",
"167 463 OFFCURVE",
"78 425 CURVE",
"111 310 LINE",
"183 339 OFFCURVE",
"233 356 OFFCURVE",
"293 356 CURVE SMOOTH",
"349 356 OFFCURVE",
"385 337 OFFCURVE",
"385 295 CURVE SMOOTH",
"385 119 LINE SMOOTH",
"385 42 OFFCURVE",
"435 -8 OFFCURVE",
"516 -8 CURVE SMOOTH"
);
},
{
closed = 1;
nodes = (
"283 -14 OFFCURVE",
"356 29 OFFCURVE",
"425 108 CURVE",
"428 206 LINE",
"352 133 OFFCURVE",
"282 110 OFFCURVE",
"249 110 CURVE SMOOTH",
"218 110 OFFCURVE",
"191 120 OFFCURVE",
"191 145 CURVE SMOOTH",
"191 176 OFFCURVE",
"229 189 OFFCURVE",
"270 190 CURVE SMOOTH",
"305 190 OFFCURVE",
"358 187 OFFCURVE",
"428 152 CURVE",
"428 244 LINE",
"370 275 OFFCURVE",
"321 297 OFFCURVE",
"239 297 CURVE SMOOTH",
"147 297 OFFCURVE",
"41 246 OFFCURVE",
"40 139 CURVE SMOOTH",
"39 35 OFFCURVE",
"114 -14 OFFCURVE",
"200 -14 CURVE SMOOTH"
);
}
);
width = 647;
},
{
anchors = (
{
name = bottom;
position = "{333, -14}";
},
{
name = ogonek;
position = "{1030, 24}";
},
{
name = top;
position = "{528, 483}";
}
);
background = {
paths = (
{
closed = 1;
nodes = (
"1046 -7 OFFCURVE",
"1095 74 OFFCURVE",
"1095 171 CURVE SMOOTH",
"1095 244 LINE",
"1009 244 LINE",
"1009 170 LINE SMOOTH",
"1009 132 OFFCURVE",
"999 103 OFFCURVE",
"964 103 CURVE SMOOTH",
"926 103 OFFCURVE",
"921 130 OFFCURVE",
"921 175 CURVE",
"921 189 LINE SMOOTH",
"921 379 OFFCURVE",
"797 483 OFFCURVE",
"517 483 CURVE SMOOTH",
"364 483 OFFCURVE",
"207 461 OFFCURVE",
"84 422 CURVE",
"120 299 LINE",
"236 334 OFFCURVE",
"368 353 OFFCURVE",
"481 353 CURVE SMOOTH",
"689 353 OFFCURVE",
"752 308 OFFCURVE",
"752 210 CURVE SMOOTH",
"752 182 LINE",
"752 69 OFFCURVE",
"806 -7 OFFCURVE",
"932 -7 CURVE SMOOTH"
);
},
{
closed = 1;
nodes = (
"497 -14 OFFCURVE",
"684 33 OFFCURVE",
"802 88 CURVE",
"804 182 LINE",
"679 147 OFFCURVE",
"480 118 OFFCURVE",
"387 118 CURVE SMOOTH",
"290 118 OFFCURVE",
"267 129 OFFCURVE",
"267 149 CURVE",
"267 173 OFFCURVE",
"315 190 OFFCURVE",
"421 190 CURVE SMOOTH",
"546 190 OFFCURVE",
"669 174 OFFCURVE",
"804 147 CURVE",
"804 250 LINE",
"693 280 OFFCURVE",
"543 312 OFFCURVE",
"424 312 CURVE SMOOTH",
"198 312 OFFCURVE",
"79 249 OFFCURVE",
"79 144 CURVE",
"79 46 OFFCURVE",
"172 -14 OFFCURVE",
"339 -14 CURVE SMOOTH"
);
}
);
};
layerId = "816E4B99-7363-45E2-A2DF-0C5A75075B59";
paths = (
{
closed = 1;
nodes = (
"1046 -7 OFFCURVE",
"1095 74 OFFCURVE",
"1095 171 CURVE SMOOTH",
"1095 244 LINE",
"1009 244 LINE",
"1009 170 LINE SMOOTH",
"1009 132 OFFCURVE",
"999 103 OFFCURVE",
"964 103 CURVE SMOOTH",
"926 103 OFFCURVE",
"921 130 OFFCURVE",
"921 175 CURVE SMOOTH",
"921 189 LINE",
"921 379 OFFCURVE",
"797 483 OFFCURVE",
"517 483 CURVE SMOOTH",
"364 483 OFFCURVE",
"235 463 OFFCURVE",
"101 434 CURVE",
"122 315 LINE",
"249 340 OFFCURVE",
"378 358 OFFCURVE",
"517 358 CURVE SMOOTH",
"689 358 OFFCURVE",
"774 314 OFFCURVE",
"774 181 CURVE SMOOTH",
"774 144 LINE SMOOTH",
"774 69 OFFCURVE",
"826 -7 OFFCURVE",
"932 -7 CURVE SMOOTH"
);
},
{
closed = 1;
nodes = (
"522 -13 OFFCURVE",
"685 33 OFFCURVE",
"793 86 CURVE",
"795 164 LINE",
"670 133 OFFCURVE",
"524 108 OFFCURVE",
"415 108 CURVE SMOOTH",
"316 108 OFFCURVE",
"268 115 OFFCURVE",
"268 148 CURVE SMOOTH",
"268 178 OFFCURVE",
"316 192 OFFCURVE",
"422 192 CURVE SMOOTH",
"557 192 OFFCURVE",
"670 182 OFFCURVE",
"795 165 CURVE",
"795 238 LINE",
"693 270 OFFCURVE",
"558 296 OFFCURVE",
"397 296 CURVE SMOOTH",
"208 296 OFFCURVE",
"80 252 OFFCURVE",
"80 144 CURVE SMOOTH",
"80 43 OFFCURVE",
"174 -13 OFFCURVE",
"352 -13 CURVE SMOOTH"
);
}
);
width = 1083;
}
);
leftKerningGroup = a;
rightKerningGroup = n;
},
